<svg width="298" height="237" viewBox="0 0 298 237" fill="none" xmlns="http://www.w3.org/2000/svg">
<path fill-rule="evenodd" clip-rule="evenodd" d="M80.332 1.06498C84.2019 1.24061 91.5312 2.35299 99.9745 3.99227C107.362 5.45592 116.333 7.15375 119.91 7.79775C123.487 8.44176 132.986 10.0225 141.018 11.369C149.11 12.6571 159.254 14.6476 163.593 15.76C167.932 16.8724 173.209 18.5702 175.319 19.5655C177.43 20.5607 181.652 23.0197 184.701 25.0102C187.75 27.0593 193.203 31.3332 196.838 34.4947C200.473 37.7147 207.568 44.1547 212.669 48.8384C217.771 53.5806 225.745 60.7818 230.436 64.88C235.126 68.9196 242.104 74.8913 245.974 77.9942C249.843 81.1557 255.238 85.2539 257.994 87.1274C260.749 89.0009 267.844 92.9234 273.825 95.7922C279.806 98.6609 286.373 102.115 288.425 103.462C290.477 104.75 292.646 106.506 293.174 107.326C293.76 108.145 294.64 110.019 295.168 111.6C295.695 113.122 296.399 116.927 296.692 120.089C297.103 124.011 297.103 128.227 296.692 133.671C296.34 138.004 295.519 144.854 294.875 148.893C294.23 152.933 292.764 159.666 291.708 163.822C290.653 167.979 288.425 175.649 286.724 180.801C285.024 185.953 282.21 193.447 280.392 197.486C278.633 201.526 275.994 206.912 274.528 209.488C273.063 212.064 270.952 215.636 269.838 217.392C268.724 219.148 265.792 222.72 263.329 225.237C260.867 227.755 257.7 230.623 256.235 231.56C254.769 232.438 252.892 233.199 252.013 233.199C251.075 233.199 247.146 232.38 243.218 231.384C237.706 230.038 234.716 229.569 230.729 229.628C227.797 229.628 215.953 230.565 204.343 231.736C192.734 232.848 178.368 234.37 172.388 235.014C165.117 235.834 159.723 236.127 155.97 235.951C152.921 235.775 147.879 234.956 144.83 234.195C141.781 233.433 137.559 232.028 135.448 231.092C132.282 229.745 131.051 229.511 128.119 229.687C126.184 229.862 121.552 229.979 117.858 229.979C111.701 229.979 110.822 229.862 107.89 228.399C106.131 227.52 103.375 225.705 101.792 224.3C100.209 222.895 97.805 219.968 96.3978 217.685C95.0492 215.401 93.0557 211.479 92.0002 208.903C90.9448 206.21 90.0067 202.755 89.5963 197.194L86.6059 196.198C84.9055 195.613 82.3842 194.442 80.9184 193.505C79.4525 192.627 77.2831 190.812 75.9931 189.524C74.7618 188.295 72.651 185.66 71.361 183.728C70.0124 181.796 68.2534 178.517 67.3153 176.41C66.4357 174.302 65.3803 170.789 65.0285 168.506C64.4422 165.345 64.4422 163.588 64.9699 160.895C65.3217 158.963 65.7908 156.856 65.9667 156.212C66.3185 155.158 65.908 154.982 60.8655 154.279C57.8752 153.87 54.1226 152.933 52.4808 152.23C50.8977 151.469 48.2591 149.713 46.676 148.308C45.1515 146.844 43.158 144.385 42.3957 142.746C41.5749 141.165 40.4022 137.828 39.8158 135.428C39.1709 133.027 38.4086 128.929 38.1154 126.353C37.8223 123.719 37.7636 120.264 38.0568 118.449C38.35 116.693 39.2881 113.766 40.109 112.009C40.9885 110.253 42.6889 107.384 43.9789 105.745C45.2688 104.047 46.1483 102.466 45.9724 102.232C45.7965 101.939 42.8062 101.178 39.3468 100.534C35.946 99.8319 31.5484 98.6609 29.6135 97.8998C27.6786 97.1387 24.6882 95.6165 23.0465 94.5042C21.3461 93.3333 17.5348 89.9961 14.6031 87.1274C11.6714 84.2586 7.91883 79.7506 6.15981 77.1746C4.45942 74.5986 2.58312 71.2029 2.05542 69.5636C1.41044 67.8073 1 64.88 1 62.2454C1 59.3767 1.35181 57.0348 1.99678 55.5126C2.58312 54.2246 3.5799 52.4097 4.22488 51.473C4.92849 50.5362 6.68752 49.2482 8.15337 48.6042C10.1469 47.726 12.6682 47.3162 18.0625 47.082C21.991 46.9064 25.2159 46.6137 25.2159 46.438C25.2159 46.2624 24.395 44.3304 23.3396 42.0471C21.8151 38.8271 21.4047 37.1878 21.4047 34.4361C21.4047 31.4503 21.8151 30.0452 24.1019 25.3615C25.5677 22.3171 27.9131 18.3946 29.2617 16.7553C30.5516 15.0574 32.897 12.8327 34.4801 11.896C36.0046 10.9007 40.4022 9.08576 44.272 7.8563C48.1419 6.62683 54.3571 4.929 58.0511 4.05082C61.745 3.23117 66.9048 2.17735 69.4847 1.65044C72.651 1.06498 76.169 0.889339 80.332 1.06498ZM105.779 31.6845C105.603 33.2067 104.9 35.5485 104.313 36.9536C103.727 38.3001 103.141 39.4125 103.082 39.4125C102.965 39.4125 99.3295 40.1736 94.9906 41.1689C90.6517 42.1056 86.1955 42.9253 85.1987 42.9253C83.6156 42.9253 83.2638 42.6911 83.2051 41.6373C83.1465 40.4078 83.0879 40.4078 82.8533 41.4616C82.5601 42.5154 82.267 42.574 79.8043 42.2227C78.3385 41.9885 75.2895 41.6373 73.0028 41.4031C70.716 41.1689 69.0156 41.1689 69.1916 41.3445C69.3675 41.5202 72.2405 41.93 75.6413 42.2813C79.0421 42.6325 83.7328 43.4522 86.0782 44.0962C88.3649 44.7402 90.4758 45.2671 90.7689 45.2086C91.0035 45.2086 90.2412 44.8573 89.1272 44.3889C87.759 43.8815 87.3681 43.5302 87.9545 43.3351C88.4236 43.1595 92.6452 42.1642 97.336 41.1689C102.027 40.1151 108.711 38.3587 112.288 37.2463C115.864 36.1925 118.62 35.1387 118.444 35.0216C118.268 34.9045 115.102 35.7241 111.408 36.8365C107.714 38.0074 104.607 38.8271 104.489 38.71C104.431 38.5929 104.724 37.5976 105.193 36.4852C105.603 35.3729 106.131 33.2067 106.366 31.6845C106.542 30.1037 106.6 28.8743 106.424 28.8743C106.307 28.8743 106.014 30.1037 105.779 31.6845ZM79.218 31.9772C79.9216 33.3237 80.977 35.7827 81.622 37.3634C82.2083 39.0027 82.5601 39.4711 82.3842 38.5343C82.1497 37.5976 81.2702 35.1387 80.2734 33.1481C79.3353 31.099 78.4558 29.4597 78.2799 29.4597C78.104 29.4597 78.5144 30.5721 79.218 31.9772ZM106.952 52.4097C107.538 52.8195 110.411 54.7515 113.343 56.6835C116.275 58.6156 119.793 61.5429 121.259 63.1236C122.725 64.7629 124.835 68.0414 126.008 70.4418C128.002 74.54 128.119 75.184 128.119 80.3946C128.119 84.9026 127.884 86.5419 126.829 88.8838C126.067 90.5231 125.891 91.2841 126.36 90.6401C126.888 89.9961 127.708 88.0056 128.236 86.2492C128.823 84.1416 129.057 81.6241 128.881 78.931C128.705 75.7695 128.178 73.7789 126.477 70.3247C125.304 67.8073 123.076 64.4116 121.552 62.7723C119.969 61.133 117.154 58.6156 115.219 57.269C113.284 55.9224 110.411 54.1075 108.77 53.2293C107.186 52.3512 106.307 51.9999 106.952 52.4097ZM8.91561 56.6835C8.85698 59.6694 9.15015 61.4843 9.97103 63.2992C10.616 64.6458 11.8473 66.2265 12.7268 66.812C14.0754 67.6902 15.5999 67.8073 23.4569 67.6902C28.4408 67.5731 33.542 67.2804 34.7147 66.9291C35.946 66.6363 36.9428 65.9923 36.9428 65.6411C37.0014 65.1142 36.7082 65.1142 36.0046 65.7582C35.2424 66.4607 32.7797 66.6949 24.6882 66.8705C17.7694 66.9876 13.9582 66.8705 13.02 66.4022C12.3164 66.0509 11.261 64.88 10.7333 63.8847C10.2056 62.8309 9.56059 59.845 9.38469 57.269L8.97425 52.5853L8.91561 56.6835ZM31.6657 54.2246C31.6657 54.4588 32.8384 56.5665 34.3042 58.9083C35.7701 61.1916 36.9428 63.2992 36.9428 63.592C36.9428 63.8261 37.2359 64.3531 37.5877 64.7629C37.8809 65.1142 39.464 67.5731 41.0471 70.1491C42.6303 72.7251 45.562 76.8233 47.6728 79.2237C49.725 81.6241 52.4222 84.3757 53.7121 85.371C55.1193 86.4248 54.3571 85.4296 51.6599 82.7365C49.3146 80.3361 46.207 76.7648 44.8584 74.8328C43.5098 72.9008 40.0504 67.5145 37.2359 62.8309C34.4215 58.1472 32.0175 54.2246 31.9002 54.049C31.7829 53.8733 31.6657 53.9319 31.6657 54.2246ZM147.468 81.2143C145.533 83.2634 142.367 86.0736 140.373 87.4787C138.38 88.8838 136.269 90.406 135.683 90.8158C135.038 91.2256 135.272 91.2256 136.328 90.6987C137.324 90.2889 139.553 88.7667 141.312 87.4201C143.129 86.015 145.826 83.7317 147.41 82.2095C148.934 80.7459 150.459 79.0481 150.693 78.5211C150.986 77.9357 151.162 77.4673 151.104 77.5259C151.045 77.5259 149.403 79.2237 147.468 81.2143ZM56.7025 87.5958C56.8197 87.8299 58.4029 88.5325 60.2792 89.1765C62.0968 89.879 63.9145 90.2889 64.2076 90.1132C64.5595 89.9961 64.4422 89.8205 63.9145 89.8205C63.4454 89.762 61.5691 89.1765 59.7514 88.4154C57.9338 87.7129 56.5852 87.303 56.7025 87.5958ZM70.0711 91.8696C73.0028 92.6307 75.6413 93.1576 75.9345 93.0991C76.2863 92.982 74.2341 92.338 71.4196 91.6354C68.6052 90.9329 65.9667 90.3474 65.5562 90.406C65.1458 90.406 67.198 91.1085 70.0711 91.8696ZM122.549 94.8555C121.083 96.3776 120.321 97.3144 120.79 96.9046C121.317 96.5533 122.9 95.8507 124.308 95.3824C125.774 94.8554 126.184 94.6213 125.187 94.7969L123.428 95.1482C125.011 92.8064 125.363 92.1038 125.304 92.1038C125.246 92.1038 123.956 93.3333 122.549 94.8555ZM131.52 92.4551C130.992 92.6307 132.634 96.4362 136.328 104.106L141.898 115.522C141.018 122.079 140.843 124.128 141.018 124.304C141.136 124.48 141.429 123.309 141.663 121.669C141.839 120.089 142.132 118.332 142.308 117.864C142.484 117.337 144.536 120.791 147.116 125.768C149.579 130.627 152.687 136.13 154.035 138.062C155.325 139.994 157.729 143.039 159.371 144.795L162.361 148.015C163.006 157.968 162.889 161.949 162.479 164.701C162.127 167.101 161.364 170.438 160.837 172.019C160.192 174.009 158.96 175.883 156.908 177.873C155.267 179.513 152.98 181.152 151.866 181.62C150.224 182.323 149.638 182.323 148.641 181.679C147.644 181.094 147.585 181.094 148.23 181.738C148.641 182.206 148.993 182.674 148.993 182.85C148.993 183.026 147.996 183.494 146.765 183.962C145.006 184.606 144.302 184.606 143.071 184.021C141.839 183.377 141.722 183.435 142.367 184.079C142.777 184.548 143.129 185.016 143.129 185.192C143.129 185.367 142.074 185.836 140.784 186.246C139.142 186.714 138.028 186.772 137.207 186.363C136.562 186.07 135.859 185.777 135.624 185.777C135.39 185.777 135.683 186.128 136.328 186.597C137.442 187.299 137.266 187.416 134.275 188.119C132.516 188.529 130.406 188.646 129.585 188.47C128.529 188.178 128.353 188.236 128.998 188.646C129.819 189.173 129.819 189.231 128.998 189.524C128.529 189.641 126.888 190.051 125.363 190.402C123.487 190.812 122.197 190.871 121.376 190.461C120.438 189.992 120.262 190.051 120.496 190.754C120.731 191.339 120.379 191.69 119.5 191.866C118.737 191.983 119.207 191.983 120.496 191.866C121.786 191.69 126.477 190.695 130.933 189.583C135.331 188.47 141.312 186.655 144.126 185.543C146.94 184.489 150.459 182.967 151.866 182.264C153.332 181.503 155.794 179.688 157.319 178.225C158.902 176.761 160.25 175.063 160.426 174.536C160.661 173.541 160.837 173.541 162.42 174.361C163.417 174.829 164.765 176.117 165.469 177.171C166.231 178.166 167.287 180.625 167.873 182.557C168.459 184.489 169.104 188.412 169.28 191.339C169.456 194.325 169.339 198.13 168.928 200.121C168.576 202.053 167.521 205.214 166.642 207.146C165.762 209.078 163.944 211.654 162.713 212.884C161.423 214.113 158.14 216.28 155.384 217.685C152.687 219.148 150.224 220.144 149.989 220.027C149.755 219.851 149.169 220.144 148.641 220.612C148.172 221.08 146.706 221.666 145.416 221.959C144.126 222.193 143.071 222.544 143.071 222.837C143.071 223.071 141.781 223.656 140.139 224.125C138.556 224.593 136.621 224.886 135.917 224.71C135.155 224.535 134.92 224.535 135.331 224.71C135.741 224.886 135.917 225.296 135.741 225.588C135.624 225.881 135.741 226.174 136.035 226.174C136.386 226.174 139.318 225.179 142.66 223.891C145.944 222.661 151.279 220.378 154.504 218.797C158.198 216.982 161.423 214.933 163.065 213.294C164.531 211.83 166.29 209.605 166.993 208.317C167.638 207.029 168.635 204.395 169.221 202.463C169.984 199.711 170.16 197.545 169.925 192.51C169.749 188.295 169.163 184.723 168.401 182.147C167.521 179.396 166.466 177.464 164.941 175.883C163.71 174.653 162.42 173.541 162.009 173.424C161.482 173.248 161.54 172.487 162.244 170.263C162.948 168.096 163.241 164.993 163.241 158.144C163.299 150.123 163.417 149.069 164.179 149.654C164.707 150.006 163.593 148.776 161.834 146.844C160.016 144.912 157.495 141.868 156.205 140.111C154.915 138.355 152.628 134.784 151.162 132.208C149.696 129.632 144.712 119.796 140.08 110.37C133.103 96.0849 131.813 93.0991 132.516 92.6307C133.044 92.338 133.161 92.1623 132.81 92.1623C132.516 92.1623 131.93 92.2794 131.52 92.4551ZM92.6452 97.1973C96.1633 98.134 96.3392 98.1926 94.6974 98.6024L92.9384 99.0122C96.1633 99.0122 97.8637 98.8366 98.8018 98.6024C100.385 98.2511 100.092 98.134 96.7496 97.5486C94.6974 97.1387 92.0589 96.6704 90.8862 96.5533C89.7722 96.3776 90.593 96.6704 92.6452 97.1973ZM72.7682 99.5977C73.5305 100.71 74.1168 100.886 77.6935 100.886C81.5047 100.944 81.7393 100.886 80.9184 99.9489C80.3907 99.3635 79.9802 99.2464 79.9216 99.6562C79.8043 100.007 78.573 100.3 76.9899 100.3C75.1722 100.3 73.8237 99.8904 73.0614 99.2464C72.006 98.3097 72.006 98.3097 72.7682 99.5977ZM86.1955 99.3049C86.1955 99.5391 85.1987 99.7733 84.026 99.7733C82.5406 99.8514 82.2865 99.9685 83.2638 100.125C84.0846 100.242 86.6059 100.125 88.834 99.8318L92.9384 99.3635C87.72 98.9537 86.1955 99.0122 86.1955 99.3049ZM108.183 99.5391C109.473 99.6562 111.76 99.6562 113.167 99.5391C114.633 99.422 113.578 99.3049 110.822 99.3049C108.125 99.3049 106.893 99.422 108.183 99.5391ZM135.859 136.891C134.979 138.648 133.044 141.516 131.52 143.214L128.764 146.259C133.044 142.161 135.096 139.467 136.035 137.652C137.031 135.779 137.735 134.14 137.618 133.964C137.559 133.847 136.738 135.135 135.859 136.891ZM113.754 151.001C111.995 151.469 107.128 152.055 102.906 152.347C96.046 152.757 95.7528 152.816 100.15 152.933C102.789 152.933 106.893 152.699 109.239 152.406C111.584 152.055 114.692 151.469 116.099 151.001C117.565 150.533 118.386 150.181 117.858 150.181C117.389 150.181 115.571 150.533 113.754 151.001ZM166.935 151.703C167.932 152.582 170.863 154.514 173.384 155.977C175.906 157.441 181.652 160.544 186.167 162.827C190.682 165.11 193.848 166.574 193.203 166.106C192.558 165.637 188.102 163.178 183.235 160.72C178.427 158.261 172.329 154.865 169.749 153.167C167.169 151.469 165.938 150.825 166.935 151.703ZM197.542 169.736C199.301 171.316 201.353 173.424 202.115 174.361C202.877 175.297 203.464 175.941 203.464 175.707C203.464 175.415 202.233 173.892 200.708 172.253C199.184 170.614 197.131 168.74 196.135 168.038C195.196 167.394 195.841 168.155 197.542 169.736ZM251.602 176.117C251.192 178.049 250.195 181.445 249.433 183.728C248.671 186.011 248.026 188.119 248.084 188.412C248.084 188.704 248.436 188.178 248.847 187.241C249.257 186.304 250.313 182.967 251.251 179.923C252.13 176.878 252.717 173.951 252.599 173.483C252.482 173.014 252.013 174.185 251.602 176.117ZM113.284 192.1C113.636 192.627 113.05 192.92 110.998 193.154C109.473 193.33 107.597 193.33 106.893 193.154C106.131 192.978 105.545 193.095 105.545 193.388C105.545 193.681 104.958 194.091 104.255 194.208C103.493 194.383 104.489 194.383 106.424 194.208C108.359 194.032 111.643 193.564 113.754 193.212L117.506 192.51C113.226 191.456 112.874 191.515 113.284 192.1ZM252.072 204.57C250.371 207.498 247.146 212.298 244.918 215.284C242.69 218.212 239.758 221.783 238.351 223.247C236.885 224.71 235.771 226.174 235.771 226.467C235.771 226.759 236.592 226.115 237.53 225.003C238.527 223.891 240.931 220.963 242.866 218.563C244.86 216.162 247.674 212.357 249.198 210.074C250.723 207.79 252.834 204.453 253.831 202.638C254.827 200.765 255.531 199.243 255.472 199.243C255.355 199.243 253.831 201.643 252.072 204.57ZM232.312 220.027C230.318 223.071 228.852 225.588 228.97 225.588C229.146 225.588 230.26 224.066 231.491 222.251C232.722 220.378 234.305 217.86 235.009 216.689C235.713 215.46 236.182 214.465 236.064 214.465C236.006 214.465 234.247 216.982 232.312 220.027Z" fill="#272727"/>
<path fill-rule="evenodd" clip-rule="evenodd" d="M78.573 3.69954C80.5666 3.69954 81.1529 3.99227 82.3256 5.63155C83.0878 6.62683 84.1432 8.44176 84.6123 9.55413C85.14 10.6665 85.5505 11.252 85.5505 10.9007C85.6091 10.4909 85.0814 8.73449 83.2051 3.99227L85.14 4.46064C86.1954 4.69482 87.4268 5.22173 87.8372 5.63155C88.3063 6.04138 89.303 7.73921 90.0653 9.43704C90.8275 11.0763 91.5898 12.4814 91.7657 12.4814C91.9416 12.4814 91.7657 11.4861 91.4139 10.3152C91.0621 9.08576 90.4171 7.38793 89.1271 4.87046L91.6484 5.51446C92.997 5.86574 94.287 6.21701 94.5801 6.39265C94.8147 6.50974 95.6942 8.03193 96.5151 9.72976C97.9223 12.5985 97.9809 12.6571 97.7464 10.725C97.5705 9.61267 97.2187 8.14903 96.9255 7.56357C96.5151 6.50974 96.6323 6.4512 98.8018 6.86102C100.092 7.0952 101.323 7.50502 101.558 7.68066C101.792 7.91484 102.554 9.43704 103.141 11.0178C103.786 12.6571 104.313 13.4182 104.372 12.7741C104.372 12.1301 104.137 10.725 103.199 7.79775L105.427 8.14903C106.6 8.38321 107.773 8.67594 108.007 8.91012C108.242 9.08576 108.652 10.3152 109.532 13.9451L109.59 11.4861C109.649 9.37849 109.825 9.02721 110.646 9.20285C111.232 9.37849 113.812 9.9054 116.392 10.3738C118.972 10.8421 127.181 12.1887 134.569 13.3596C141.957 14.5305 151.221 16.1698 155.091 16.9309C158.96 17.692 164.12 18.9215 166.524 19.624C168.928 20.268 171.274 21.2633 171.625 21.7902C172.036 22.3171 172.857 24.0735 173.502 25.6542C174.264 27.5863 174.674 28.1132 174.674 27.2935C174.733 26.5324 174.44 25.2444 174.147 24.3662C173.795 23.4295 173.678 22.6684 173.854 22.6099C174.029 22.4928 174.968 22.844 175.906 23.3124C176.844 23.7808 177.958 24.7175 178.251 25.3615C178.544 26.0055 179.248 28.0546 180.596 33.2652L180.303 29.6354C180.127 27.5863 180.127 25.947 180.303 25.947C180.479 25.947 181.359 26.4153 182.355 27.0008C183.587 27.7033 184.173 28.5815 184.408 30.0452C184.584 31.1576 184.818 33.3237 184.877 34.8459C184.935 36.3096 185.17 37.422 185.404 37.3049C185.698 37.1878 185.874 35.3729 185.874 29.4597L187.633 30.8063C188.629 31.5088 189.685 32.9725 190.037 34.1434C190.33 35.2558 190.799 38.1831 191.444 44.9744L192.03 34.0848L193.965 35.7241C195.9 37.3049 195.959 37.4805 196.369 43.218C196.779 48.8969 196.78 48.9555 197.19 45.8526C197.424 44.0962 197.659 41.8714 197.894 39.1783L201.881 42.6325L201.939 48.2529C201.998 51.3559 202.174 53.6392 202.408 53.2293C202.643 52.8781 202.995 50.7704 203.581 44.3889L205.399 46.3209C207.216 48.1944 207.275 48.3115 207.216 53.6392C207.158 56.5665 207.334 58.4985 207.568 57.8545C207.803 57.2105 208.155 55.1614 208.389 53.3464C208.565 51.473 208.917 49.9508 209.21 49.9508C209.444 49.8922 210.148 50.4777 210.793 51.1802C211.497 51.8828 212.2 53.9319 212.611 56.2737C213.08 58.7912 213.314 59.4938 213.373 58.3228C213.373 57.269 213.549 55.981 213.725 55.5126C213.959 54.7515 214.311 54.8101 215.777 55.8054C216.95 56.586 217.536 57.4642 217.536 58.4399C217.536 59.2596 217.829 59.9036 218.122 59.9036C218.416 59.9036 218.709 59.6694 218.709 59.3181C218.709 58.9668 219.588 59.4352 220.702 60.3719C221.816 61.2501 227.562 66.1094 233.484 71.2029C240.462 77.2917 244.801 81.4485 245.856 83.2048C246.794 84.727 248.378 87.7714 249.433 90.0547C250.488 92.338 251.837 95.6165 252.423 97.3729C253.01 99.1293 253.948 102.818 254.534 105.569C255.12 108.321 255.59 109.843 255.59 108.965C255.648 108.028 255.296 105.394 254.827 103.11C254.358 100.769 253.303 96.7875 252.482 94.3285C251.661 91.8111 250.312 88.474 249.492 86.8347C248.671 85.2539 248.143 83.9074 248.319 83.9074C248.495 83.9074 250.254 85.1368 252.247 86.659C254.3 88.1812 256.117 89.7034 256.352 90.0547C256.586 90.3474 257.642 92.6307 258.639 95.0311C259.694 97.4315 260.984 101.647 261.57 104.398C262.157 107.384 262.626 108.614 262.626 107.501C262.684 106.448 262.391 104.164 262.039 102.525C261.688 100.827 260.925 97.7242 260.28 95.6165C259.577 93.5089 259.166 91.7525 259.284 91.694C259.401 91.6354 260.691 92.338 262.215 93.3333C264.619 94.7384 265.206 95.558 266.261 98.4268C266.906 100.242 267.844 103.462 268.255 105.569C268.958 108.906 269.017 109.082 269.075 107.033C269.075 105.745 268.724 102.876 268.255 100.593C267.785 98.3097 267.492 96.4362 267.551 96.4362C267.61 96.3776 268.665 96.6704 269.838 97.1387C271.831 97.8413 272.183 98.3097 272.887 101.061C273.356 102.701 274.001 105.277 274.353 106.74C274.939 109.199 274.939 109.082 274.704 105.16C274.528 102.818 274.235 100.476 273.942 99.9489C273.59 99.1293 273.942 99.1878 276.17 100.242C278.34 101.178 278.926 101.822 279.454 103.637C279.864 104.867 280.45 107.033 280.802 108.497C281.389 110.956 281.389 110.838 281.154 106.916C280.978 104.574 280.978 102.642 281.154 102.642C281.33 102.642 282.385 103.169 283.499 103.813C285.141 104.75 285.728 105.569 286.372 108.087C286.842 109.726 287.369 111.775 287.545 112.595C287.662 113.414 287.78 112.302 287.604 106.33L289.011 107.267C289.773 107.794 290.77 109.024 291.298 109.96C291.767 110.897 292.412 112.536 292.705 113.473C292.998 114.41 293.467 117.864 293.76 121.084C294.054 124.655 294.054 129.69 293.702 133.964C293.409 137.828 292.588 144.268 291.943 148.308C291.298 152.347 289.715 159.607 288.483 164.408C287.252 169.267 284.731 177.522 282.913 182.85C281.095 188.236 277.636 196.667 275.056 201.877C272.535 207.029 269.134 213.235 267.492 215.636C265.851 218.036 262.45 222.017 259.928 224.535C257.407 226.993 254.651 229.277 253.713 229.628C252.834 229.979 251.837 230.272 251.544 230.272C251.251 230.272 252.013 229.218 253.303 227.93C254.593 226.642 256.41 224.183 257.407 222.544C258.345 220.846 259.166 219.148 259.166 218.856C259.108 218.563 258.521 219.207 257.818 220.319C257.114 221.49 255.883 223.247 255.062 224.3C254.241 225.354 252.482 226.993 251.075 227.93C248.729 229.628 248.495 229.628 243.394 228.223L245.915 225.588C247.264 224.125 249.081 221.9 249.843 220.612C250.664 219.324 251.544 217.802 251.72 217.275C251.954 216.689 252.013 216.221 251.837 216.221C251.661 216.221 250.664 217.568 249.609 219.265C248.612 220.905 246.56 223.305 245.094 224.593C243.628 225.823 242.045 227.052 241.576 227.345C241.107 227.579 239.817 227.52 236.885 226.759L240.286 222.837C242.104 220.612 245.27 216.631 247.205 213.879C249.198 211.128 252.423 206.151 254.358 202.755C256.352 199.36 259.401 193.447 261.101 189.583C262.86 185.719 265.616 178.693 267.316 173.951C268.958 169.15 270.307 164.993 270.307 164.701C270.307 164.408 269.955 164.115 269.544 164.115C269.193 164.115 268.489 165.345 268.02 166.867C267.551 168.389 265.909 173.248 264.267 177.581C262.684 181.913 259.987 188.412 258.287 191.924C256.586 195.437 253.479 201.116 251.427 204.512C249.374 207.908 246.149 212.767 244.156 215.343C242.162 217.919 239.231 221.49 237.648 223.247C234.892 226.232 234.54 226.467 232.253 226.349C230.963 226.232 229.849 226.057 229.849 225.881C229.849 225.705 230.729 224.359 231.843 222.837C232.898 221.256 235.419 217.275 237.354 213.879C239.289 210.484 242.28 204.687 243.921 200.999C245.622 197.311 248.26 190.461 249.785 185.777C251.368 181.094 253.303 173.834 254.065 169.677C254.886 165.52 255.824 159.08 256.176 155.509C256.528 151.879 256.704 148.601 256.528 148.308C256.352 148.015 255.941 147.839 255.648 148.015C255.355 148.191 255.062 149.362 255.062 150.65C255.062 151.938 254.651 156.094 254.182 159.9C253.655 163.647 252.482 169.911 251.544 173.775C250.606 177.639 248.905 183.552 247.791 186.948C246.677 190.344 244.508 195.847 243.042 199.243C241.517 202.638 238.879 207.908 237.178 210.952C235.419 213.996 232.488 218.739 230.611 221.49C228.207 224.944 226.8 226.525 225.862 226.642C224.631 226.759 224.631 226.584 226.917 221.783C228.207 219.031 229.263 216.338 229.263 215.811C229.263 215.226 228.266 216.865 226.976 219.441C225.745 222.017 223.868 224.827 222.872 225.764C221.523 226.935 220.409 227.345 216.363 227.345L218.709 222.544C219.999 219.851 221.054 217.158 221.054 216.514C221.113 215.87 219.999 217.45 218.709 220.027C217.419 222.603 215.777 225.413 215.015 226.232C214.077 227.345 212.904 227.872 210.91 228.164C209.386 228.34 208.155 228.399 208.155 228.223C208.155 228.047 208.799 227.052 209.562 226.057C210.324 225.003 211.673 222.72 212.493 221.08C213.314 219.382 214.018 217.626 214.018 217.275C214.018 216.865 213.138 218.036 212.083 219.851C211.086 221.724 209.21 224.417 207.979 225.881C206.22 228.047 205.34 228.574 203.288 228.867C201.939 229.101 200.532 229.16 200.122 229.043C199.653 228.867 200.122 227.637 201.47 225.588C202.584 223.832 203.464 221.959 203.464 221.49C203.464 221.022 202.76 221.783 201.822 223.247C200.884 224.71 199.301 226.759 198.245 227.813C197.073 228.984 195.724 229.687 194.786 229.687C193.906 229.687 192.147 229.862 188.512 230.506L190.037 228.457C190.916 227.403 192.03 225.588 192.558 224.593C193.086 223.539 193.496 222.31 193.496 221.959C193.555 221.549 192.499 222.778 191.209 224.71C189.978 226.642 188.453 228.691 187.808 229.277C187.163 229.862 185.229 230.506 182.942 230.799C180.831 231.092 179.013 231.209 178.837 231.092C178.662 230.975 179.072 230.272 179.776 229.511C180.421 228.808 181.359 227.579 181.828 226.759C182.355 225.94 182.883 224.769 183.118 224.125C183.411 223.247 183.235 223.305 182.473 224.417C181.945 225.237 180.303 227.169 178.837 228.691C176.375 231.326 175.906 231.56 169.046 232.321L171.567 229.569C172.974 227.989 174.147 226.408 174.147 226.057C174.147 225.647 173.384 226.174 172.505 227.286C171.625 228.399 169.749 230.096 168.283 231.092C165.703 232.848 165.527 232.907 158.609 232.907C153.449 232.848 150.283 232.555 146.589 231.619C143.833 230.916 139.904 229.745 134.158 227.637L141.077 225.12C144.947 223.715 150.693 221.256 153.918 219.734C157.377 218.036 161.071 215.753 162.889 214.055C164.883 212.298 166.7 209.957 167.756 207.732C168.694 205.8 169.749 202.755 170.101 200.999C170.511 199.184 170.629 195.203 170.453 191.924C170.277 188.236 169.69 184.548 168.87 181.972C167.873 178.752 166.993 177.347 162.127 172.604L162.948 169.677C163.475 167.862 163.768 163.588 163.886 150.298L167.99 153.284C170.277 154.924 176.844 158.67 182.649 161.656C188.453 164.584 194.727 168.213 196.545 169.677C198.421 171.141 200.884 173.775 201.998 175.532C203.112 177.288 204.343 178.752 204.636 178.752C204.93 178.752 205.223 178.4 205.223 178.049C205.223 177.639 204.285 175.883 203.171 174.244C202.057 172.546 199.711 170.028 197.952 168.682C196.193 167.277 190.037 163.705 184.29 160.661C178.544 157.617 172.153 154.045 170.042 152.699C167.931 151.294 164.413 148.366 162.185 146.2C160.016 143.975 156.615 139.819 154.68 136.891C152.804 133.964 146.999 123.133 141.839 112.77C136.738 102.349 132.516 93.7431 132.516 93.5674C132.516 93.3918 133.748 92.6893 135.272 91.9867C136.855 91.2256 139.553 89.5278 141.312 88.1812C143.071 86.8347 146.237 84.083 148.289 82.0339C150.458 79.8677 151.866 78.0528 151.631 77.643C151.397 77.1161 149.579 78.4626 146.413 81.4484C143.774 83.9659 140.256 86.9518 138.673 88.0056C137.031 89.118 134.158 90.6987 132.223 91.5769C130.288 92.5136 127.943 93.4503 127.005 93.6845C125.891 93.9773 125.363 93.9187 125.539 93.5674C125.715 93.2162 126.594 91.4012 127.533 89.4692C129.116 86.3078 129.292 85.4296 129.233 80.3946C129.233 76.0037 128.94 74.1302 127.884 71.6127C127.122 69.8564 125.422 66.812 124.073 64.88C122.549 62.7723 119.676 59.9621 116.92 57.8545C114.398 55.9225 109.004 52.6439 104.958 50.5948C100.913 48.4871 95.6355 46.0867 93.2315 45.2086C89.5962 43.9206 89.0685 43.5693 90.2998 43.3351C91.1207 43.1595 96.515 41.8129 102.32 40.4078C108.125 38.9442 115.454 36.778 118.62 35.5485C121.786 34.2605 124.366 32.9139 124.308 32.5627C124.308 32.1528 124.073 31.8016 123.721 31.8016C123.37 31.8016 122.138 32.2699 120.907 32.9139C119.734 33.4994 116.216 34.7874 113.167 35.7827C110.118 36.7194 107.011 37.6561 106.248 37.8903C104.958 38.2416 104.958 38.1831 105.838 36.1925C106.307 35.0801 106.717 32.8554 106.717 31.2161C106.717 29.6354 106.542 28.2888 106.248 28.2888C106.014 28.2888 105.603 29.6354 105.369 31.3332C105.076 33.031 104.489 35.4314 104.02 36.6609C103.551 37.8318 103.141 38.8271 103.023 38.8271C102.965 38.8271 99.3295 39.5882 94.9906 40.5834C90.6516 41.5202 86.43 42.3398 85.6091 42.3398C84.3191 42.3398 84.026 41.93 83.0878 38.8271C82.5601 36.895 81.3874 33.9092 80.5666 32.2699C79.687 30.5721 78.1626 27.9961 77.1658 26.5324C76.169 25.1273 75.1722 23.6637 74.9377 23.3124C74.664 22.9221 74.3318 22.9221 73.9409 23.3124C73.5891 23.7222 74.3513 25.303 76.169 27.9961C77.6935 30.2794 79.5111 33.5579 80.1561 35.3143C80.8597 37.0707 81.5633 39.2369 82.091 41.7544L77.5176 41.3445C75.0549 41.1103 72.1232 40.8762 71.0092 40.8762C69.8951 40.8762 68.8984 41.1103 68.7811 41.4616C68.6638 41.8129 71.361 42.3398 75.1722 42.7496C78.8075 43.1595 84.026 44.0962 86.7818 44.8573C89.5376 45.6184 93.9938 47.1406 96.7496 48.2529C99.5054 49.3653 104.255 51.7657 107.304 53.5806C110.353 55.3955 114.457 58.0301 116.392 59.4352C118.327 60.8988 120.907 63.3578 122.08 64.9385C123.252 66.5193 124.953 69.388 125.832 71.32C127.005 73.896 127.474 76.0622 127.708 79.5164C127.884 83.2634 127.708 84.8441 126.77 87.4201C126.067 89.1765 124.542 91.8111 123.252 93.2747C122.021 94.7384 119.851 96.4947 118.386 97.1973C116.275 98.2511 114.809 98.5438 110.529 98.5438C107.362 98.5438 102.085 97.9584 97.3359 97.0802C92.997 96.3191 83.6155 94.2114 76.5208 92.4551C69.4261 90.6987 62.0382 88.6496 60.1032 87.947C57.7579 87.0103 55.4711 85.4881 53.1258 83.3219C51.2495 81.5655 48.435 78.5212 46.9105 76.5891C45.3861 74.6571 41.4576 68.6269 38.1154 63.1236C34.7733 57.6203 30.2584 49.4824 28.0303 44.9744C25.3332 39.4125 24.0432 36.1339 24.0432 34.7288C24.0432 33.6165 24.9227 30.6892 25.9781 28.2888C27.0336 25.8884 29.1444 22.1415 30.6689 19.9753C32.1934 17.7505 34.4215 15.3502 35.5941 14.5891C36.8255 13.7694 40.2262 12.3058 43.0993 11.369C45.9724 10.3738 51.5426 8.79303 55.4125 7.79775C59.2824 6.86102 63.7386 5.86574 65.3803 5.6901C68.2534 5.28028 68.312 5.33883 70.5401 7.8563C71.7128 9.2614 72.7096 10.1981 72.7096 9.84686C72.7096 9.49558 72.0646 8.32466 71.2437 7.21229C70.4815 6.09992 70.0124 4.98755 70.1883 4.75337C70.4228 4.46064 71.5955 4.285 72.8268 4.285C74.7618 4.285 75.2308 4.57773 76.6381 6.62683C77.5762 7.97339 78.6316 9.43704 79.0421 10.0225C79.5111 10.608 79.4525 10.1396 78.8662 8.67594C78.3385 7.38793 77.5176 5.74865 77.0485 5.0461C76.169 3.69954 76.2276 3.69954 78.573 3.69954ZM20.232 50.0679C22.8119 50.0093 25.7436 50.0679 26.6818 50.302C28.1476 50.5948 29.0858 51.6486 32.3693 57.0348C34.5974 60.5476 36.2978 63.8847 36.1805 64.4116C36.1219 64.9385 35.2423 65.5825 34.3042 65.8752C33.366 66.1094 28.4408 66.4022 23.3982 66.4607C14.8963 66.6363 14.0754 66.5192 12.9027 65.4654C12.1405 64.8214 11.2023 63.4163 10.7919 62.421C10.3228 61.3672 9.97101 58.8497 9.97101 56.8592C9.97101 54.8101 10.0883 52.5853 10.2642 51.8828C10.4987 50.7704 11.0264 50.4777 13.02 50.3606C14.4272 50.2435 17.6521 50.1264 20.232 50.0679ZM8.38789 51.7071C8.44652 51.7071 8.44652 53.6392 8.32926 55.981C8.15335 58.8497 8.38789 60.9574 9.03287 62.5381C9.50194 63.8261 10.616 65.524 11.4369 66.3436C12.6682 67.5145 13.7822 67.8658 16.8898 68.1C19.0593 68.2756 23.9846 68.2756 27.8544 68.1C32.7211 67.8658 35.3596 67.456 36.3564 66.812C37.8222 65.9338 37.8222 65.9338 40.109 69.7978C41.3989 71.9055 43.5098 75.1255 44.917 76.8819C46.2656 78.6382 49.0214 81.6826 51.0736 83.6732C53.1258 85.6638 55.9988 87.8299 57.4647 88.591C58.9305 89.2936 63.9144 90.8743 76.9312 94.1529L79.1593 99.7148L76.3449 99.5977C73.765 99.422 73.4718 99.2464 71.5955 96.4947C69.8951 93.9773 69.6606 93.8016 70.0124 95.3238C70.2469 96.2605 70.9506 97.7827 72.7096 100.3H70.071C67.7843 100.3 67.198 100.007 65.8494 98.4268C65.0285 97.3729 63.8558 95.4409 63.2695 94.1529C62.5659 92.6307 62.1554 92.2209 62.1554 92.982C62.1554 93.626 62.8004 95.4995 63.6213 97.0802C64.4422 98.7195 65.0871 100.066 65.0871 100.183C65.0871 100.242 64.0904 100.3 62.859 100.3C60.9827 100.359 60.3378 99.9489 58.1097 97.5486C56.6438 96.0264 54.8848 93.4503 54.1812 91.8111C53.4189 90.2303 52.8326 89.235 52.8326 89.6449C52.774 89.9961 53.3017 91.7525 53.9466 93.4504C54.5916 95.0896 55.8229 97.3729 58.051 100.3H55.5298C53.4189 100.242 52.774 99.9489 50.7804 97.7827C49.4904 96.4362 47.7314 93.6845 46.7933 91.694C45.9138 89.6449 45.0342 88.0056 44.8583 88.0056C44.6824 88.0056 44.9756 89.235 45.4447 90.8158C45.9138 92.338 47.0864 94.7969 49.8423 99.1293H48.0832C46.7933 99.1293 45.5033 98.3682 43.0407 96.0849C41.223 94.3871 38.9363 91.694 37.9981 90.0547C37.06 88.4739 36.4737 87.7714 36.6496 88.591C36.8841 89.4107 37.6463 90.9914 38.2913 92.1038C38.9363 93.2162 40.109 94.9725 40.8712 95.9093C41.6335 96.846 42.1612 97.7242 42.1025 97.8413C41.9853 97.9584 41.1058 97.8998 40.1676 97.7242C39.1122 97.5486 37.0014 96.0849 34.8319 94.0358C32.897 92.1623 30.4343 89.1765 29.4376 87.4201C28.3821 85.6638 27.5613 84.5514 27.5613 84.9612C27.5613 85.3125 28.089 86.7176 28.7339 88.0056C29.3789 89.2936 31.0207 91.7525 34.8905 96.5533L32.897 95.9093C31.7829 95.6165 29.3203 93.8602 27.3267 92.0452C25.3332 90.2303 22.6946 87.2445 21.4047 85.3125C20.1734 83.439 18.8834 81.6241 18.5902 81.2728C18.2971 80.9801 18.7661 82.0925 19.587 83.7903C20.4079 85.4296 22.3428 88.3569 23.8673 90.2303C26.6231 93.5089 26.6231 93.5089 24.6296 92.1623C23.5155 91.4012 19.6457 87.8299 16.1276 84.2001C12.5509 80.6288 8.79833 76.2964 7.74291 74.54C6.74613 72.7837 5.45618 70.2662 4.98711 68.9782C4.51803 67.6902 4.16623 64.8214 4.16623 62.5381C4.16623 60.2548 4.51803 57.6203 4.86984 56.5665C5.28028 55.5712 6.15979 54.049 6.8634 53.2293C7.62565 52.4097 8.27062 51.7071 8.38789 51.7071ZM130.582 93.9187C130.699 93.8602 133.161 98.778 136.093 104.867C141.312 115.639 141.37 115.873 140.96 119.035C140.784 120.791 139.904 124.48 139.142 127.231C138.38 129.983 136.797 133.906 135.741 136.013C134.627 138.121 132.751 140.99 131.52 142.395C130.054 144.093 127.884 145.615 125.187 146.844C122.9 147.898 118.679 149.303 115.806 150.006C112.874 150.65 107.011 151.469 102.73 151.821C97.1014 152.23 94.6388 152.23 93.642 151.762C92.9384 151.411 91.4725 150.298 90.4171 149.245C89.3617 148.249 88.5408 147.781 88.5408 148.191C88.5408 148.542 89.1858 149.713 91.4725 152.406H89.1271C87.0749 152.406 86.4886 152.113 84.7296 149.947C83.5569 148.542 82.6774 147.078 82.6774 146.727C82.6774 146.317 82.3842 145.966 82.091 145.966C81.7392 145.966 81.9151 146.903 82.4428 148.191C82.9119 149.362 83.7914 150.825 84.3191 151.411C85.2573 152.406 85.1987 152.465 82.9706 152.465C81.2702 152.465 80.2734 152.055 79.3352 151.118C78.6316 150.357 77.4003 148.601 76.5794 147.137C75.7586 145.673 75.0549 144.912 75.0549 145.381C75.0549 145.849 75.6999 147.605 76.5208 149.186C77.5762 151.352 77.7521 152.23 77.2244 152.523C76.814 152.757 75.9931 152.992 75.3481 152.992C74.7031 152.933 73.2373 151.996 72.1232 150.767C71.0092 149.596 69.3674 147.137 68.4879 145.381C67.3739 143.156 66.9634 142.687 67.2566 143.917C67.4325 144.854 68.1947 146.903 68.957 148.483C69.7192 150.006 70.5987 151.352 70.9506 151.528C71.2437 151.703 71.5369 152.113 71.5369 152.406C71.5369 152.699 71.0678 152.992 70.4815 152.992C69.9538 152.992 68.6638 152.757 67.7257 152.465C66.7875 152.113 65.2044 150.884 64.2076 149.654C63.2695 148.425 61.8623 145.966 61.1 144.21C59.9273 141.517 59.8101 141.341 60.0446 143.039C60.2791 144.151 61.1 146.551 63.6213 151.703L61.5691 151.411C60.455 151.235 58.7546 150.415 57.8165 149.537C56.8784 148.718 55.647 147.195 55.0607 146.259C54.4157 145.322 53.9466 144.912 53.9466 145.381C53.9466 145.849 54.5916 147.254 56.8784 150.65L55.5298 150.298C54.8262 150.123 53.1844 149.362 51.8944 148.601C50.6045 147.898 48.6696 146.259 47.5555 145.029C46.4415 143.741 45.0342 141.575 44.3893 140.111C43.7443 138.648 42.7475 135.135 42.1612 132.208C41.5748 129.28 41.0471 124.714 41.0471 121.962C41.0471 117.396 41.223 116.635 43.0993 112.888C44.2134 110.604 46.3828 107.326 50.7218 102.232L64.794 101.881C72.7096 101.705 83.4983 101.003 89.4203 100.3C97.9809 99.3049 100.795 99.1878 104.196 99.7148C106.542 100.007 110.001 100.3 111.819 100.3C113.695 100.242 116.275 99.8904 117.565 99.3635C118.855 98.8951 120.321 98.134 120.79 97.6656C121.259 97.1973 123.663 96.1435 126.067 95.3824C128.471 94.6213 130.523 93.9773 130.582 93.9187ZM79.3939 94.6798C80.0975 94.8554 83.5569 95.7336 87.1922 96.6118C90.8275 97.5486 93.7006 98.3097 93.642 98.3682C93.5833 98.4267 92.1761 98.5438 90.4757 98.6609C88.1304 98.778 87.1922 98.6024 84.8469 96.4947L85.2573 97.8413C85.5505 98.9537 85.3746 99.1878 83.6742 99.3635C82.1497 99.5977 81.4461 99.3049 79.863 97.6071C78.8662 96.4947 78.0453 95.3238 78.1039 94.9725C78.1039 94.5627 78.6903 94.4456 79.3939 94.6798ZM142.602 118.157L147.116 126.939C149.579 131.798 152.511 137.067 153.625 138.648C154.739 140.287 157.026 143.156 158.726 145.088C161.716 148.483 161.834 148.718 162.185 152.992C162.42 155.392 162.361 159.607 162.127 162.359C161.892 165.11 161.247 168.916 160.602 170.848C159.899 173.19 158.785 175.122 157.319 176.644C156.087 177.873 154.094 179.63 152.863 180.449C150.81 181.913 150.576 181.913 148.875 181.094C147.82 180.625 146.823 179.805 146.53 179.337C146.295 178.869 145.944 178.576 145.709 178.752C145.533 178.927 146.061 179.923 148.348 182.85L146.706 183.494C145.826 183.845 144.478 183.904 143.657 183.67C142.836 183.435 141.312 182.499 140.256 181.562C139.259 180.684 138.38 180.04 138.38 180.215C138.38 180.391 139.318 181.562 142.484 185.192L140.432 185.777C138.732 186.246 137.911 186.128 135.565 184.958C134.041 184.196 132.106 182.791 131.168 181.738C130.288 180.742 129.585 180.274 129.585 180.684C129.643 181.035 130.933 182.733 132.575 184.314C134.158 185.953 135.507 187.299 135.448 187.416C135.448 187.475 134.334 187.709 132.927 187.885C131.402 188.119 129.702 187.943 128.412 187.416C127.298 186.948 125.246 185.543 123.839 184.255C122.431 183.026 121.317 182.264 121.317 182.557C121.317 182.85 122.666 184.372 124.308 185.953C125.891 187.475 127.591 188.704 127.943 188.763C128.353 188.763 127.357 189.173 125.773 189.641C123.428 190.285 122.49 190.285 121.141 189.7C120.203 189.348 118.327 187.768 116.92 186.246C115.513 184.665 114.34 183.611 114.34 183.904C114.34 184.138 114.75 184.958 115.278 185.777C115.864 186.597 117.096 188.06 119.91 190.988L118.151 191.339C117.213 191.573 115.337 191.398 114.047 190.988C112.757 190.578 110.411 189.056 108.828 187.592C106.014 184.958 105.955 184.958 107.069 186.89C107.656 187.943 109.004 189.524 110.06 190.402C111.349 191.456 111.701 192.042 111.232 192.334C110.822 192.569 109.825 192.803 108.887 192.803C108.007 192.803 106.307 192.393 105.076 191.924C103.903 191.398 101.909 189.992 100.678 188.822C99.5054 187.651 98.5086 187.007 98.5086 187.416C98.5086 187.768 99.564 189.173 100.854 190.461C102.144 191.749 103.551 192.803 103.903 192.803C104.411 192.803 104.372 192.998 103.786 193.388C103.317 193.681 102.261 193.974 101.44 193.974C100.619 193.974 98.3913 193.564 96.4564 193.095C94.5215 192.569 91.7657 191.398 90.2998 190.344C88.2476 188.939 87.8958 188.822 88.834 189.875C89.4789 190.636 91.1793 191.983 95.2837 194.676L92.352 194.383C90.7103 194.208 87.8372 193.505 85.9023 192.744C83.1465 191.749 81.4461 190.519 78.2798 187.299C75.4067 184.431 73.3546 181.679 71.7128 178.459C70.3642 175.883 68.8397 171.96 68.312 169.677C67.667 166.867 67.4911 164.584 67.7257 162.359C67.9602 160.602 68.4879 158.144 68.957 156.973C69.7779 154.806 69.8365 154.748 73.4132 154.455C75.4654 154.338 83.4396 154.045 91.1793 153.811C98.919 153.635 107.597 153.109 110.529 152.699C113.402 152.23 118.151 151.059 121.083 150.064C123.956 149.069 127.415 147.664 128.705 146.903C129.995 146.142 131.93 144.502 132.986 143.273C134.041 142.043 135.741 139.292 136.855 137.184C137.969 135.076 139.494 131.271 140.315 128.695C141.136 126.119 141.957 122.723 142.191 121.084L142.602 118.157ZM161.54 174.653C161.834 174.653 162.83 175.356 163.651 176.234C164.531 177.171 165.645 178.81 166.231 179.923C166.817 181.035 167.638 183.67 168.049 185.777C168.459 187.885 168.87 191.573 168.87 193.974C168.87 196.374 168.459 199.945 167.931 201.877C167.462 203.809 166.348 206.678 165.469 208.259C164.589 209.84 162.889 212.006 161.658 213.06C160.485 214.172 157.377 216.104 150.107 219.734L148.054 218.27C146.94 217.45 146.002 216.924 146.002 217.099C146.002 217.275 146.471 218.036 146.999 218.856C147.585 219.675 147.937 220.495 147.761 220.612C147.585 220.788 146.413 221.08 145.123 221.256C143.188 221.549 142.367 221.315 140.549 220.085C139.377 219.265 138.38 218.856 138.38 219.148C138.38 219.441 139.142 220.378 140.139 221.197C141.077 222.017 141.898 222.72 141.898 222.837C141.898 222.895 140.842 223.305 139.553 223.715C137.911 224.183 136.562 224.242 134.979 223.832C133.806 223.539 132.223 222.895 131.461 222.368C130.757 221.9 130.054 221.607 129.878 221.783C129.702 221.959 130.64 222.895 134.275 225.588L132.634 225.94C131.754 226.174 129.585 226.174 127.826 225.998C126.067 225.764 123.545 225.061 122.255 224.476C120.966 223.832 119.851 223.422 119.734 223.539C119.676 223.715 120.731 224.476 122.08 225.296C123.897 226.291 124.366 226.818 123.721 227.052C123.252 227.228 120.321 227.345 117.272 227.228C112.815 227.111 111.115 226.759 108.77 225.647C107.128 224.827 104.489 222.837 102.906 221.197C101.206 219.558 98.8604 216.104 97.3946 213.294C95.9873 210.542 94.2869 206.854 93.7006 205.097C93.1143 203.341 92.6452 200.882 92.6452 199.711C92.6452 197.955 92.9384 197.369 93.9352 196.959C94.6974 196.667 98.45 195.964 102.32 195.437C106.19 194.969 112.933 193.857 117.272 193.037C121.61 192.217 128.353 190.754 132.223 189.817C136.093 188.822 141.898 187.007 145.123 185.777C148.348 184.489 152.628 182.44 154.622 181.094C156.674 179.805 158.902 177.815 159.605 176.703C160.368 175.59 161.189 174.653 161.54 174.653Z" fill="#747474"/>
<path d="M97.7464 71.4957C98.6259 70.6175 100.209 69.5051 101.147 69.0367C102.144 68.5098 104.196 68.1585 108.77 68.2756L105.545 68.6855C103.786 68.9196 101.499 69.5051 100.561 69.9735C99.6227 70.5004 98.2155 71.5542 97.5705 72.3153C96.8669 73.0179 95.8701 74.423 95.401 75.4182C94.8733 76.355 94.4629 76.999 94.4042 76.7062C94.4042 76.4721 94.756 75.5939 95.2251 74.6571C95.6942 73.7789 96.8082 72.3738 97.7464 71.4957Z" fill="#272727"/>
<path d="M119.206 73.6619C117.33 72.5495 114.223 70.9688 112.288 70.1491C110.353 69.388 109.18 68.6855 109.649 68.6855C110.118 68.6855 112.639 69.6807 115.219 70.9688C117.799 72.2568 120.731 73.8375 121.669 74.4815C122.607 75.184 123.252 75.711 122.959 75.711C122.725 75.711 121.024 74.7742 119.206 73.6619Z" fill="#272727"/>
<path d="M93.3488 82.7365C93.2902 81.2728 93.4661 79.5164 93.7006 78.8139C93.9352 78.0528 94.1697 77.5259 94.1697 77.643C94.2283 77.7015 94.0524 79.4579 93.8179 81.5656C93.4661 84.9027 93.4075 85.0198 93.3488 82.7365Z" fill="#272727"/>
<path d="M99.7986 91.8696C98.2741 91.1085 96.5151 89.8791 95.8701 89.118L94.6974 87.7129L96.1633 89.0009C96.9841 89.7034 99.3881 91.1085 101.558 92.0453C103.786 93.0405 107.714 94.5042 110.353 95.2653C113.05 96.0849 114.75 96.7289 114.164 96.7289C113.636 96.7875 110.763 95.9678 107.89 95.0311C105.017 94.0358 101.382 92.6307 99.7986 91.8696Z" fill="#272727"/>
<path d="M126.594 122.255C125.949 120.03 125.187 117.688 124.894 117.103C124.659 116.459 124.659 116.166 124.953 116.342C125.246 116.576 126.008 118.508 126.653 120.674C127.298 122.84 127.826 125.007 127.826 125.475C127.767 126.002 127.239 124.538 126.594 122.255Z" fill="#272727"/>
<path d="M128.823 135.428C128.647 135.311 128.412 133.203 128.236 130.744C128.002 127.524 128.06 126.997 128.412 128.695C128.705 129.983 128.94 132.091 128.998 133.379C128.998 134.667 128.94 135.603 128.823 135.428Z" fill="#272727"/>
<path d="M150.869 160.076C149.638 157.617 147.058 153.928 145.181 151.879L141.663 148.015L144.771 150.942C146.471 152.582 148.875 155.626 150.107 157.675C151.338 159.783 152.511 162.183 152.745 162.944C152.921 163.764 152.1 162.476 150.869 160.076Z" fill="#272727"/>
<path d="M161.892 198.716C161.599 195.027 161.071 192.159 160.192 190.227C159.43 188.47 159.312 187.768 159.84 188.47C160.309 189.114 161.13 190.988 161.599 192.569C162.068 194.208 162.42 197.486 162.244 204.278L161.892 198.716Z" fill="#272727"/>
<path fill-rule="evenodd" clip-rule="evenodd" d="M80.332 1.06498C84.2019 1.24061 91.5312 2.35299 99.9745 3.99227C107.362 5.45592 116.333 7.15375 119.91 7.79775C123.487 8.44176 132.986 10.0225 141.018 11.369C149.11 12.6571 159.254 14.6476 163.593 15.76C167.932 16.8724 173.209 18.5702 175.319 19.5655C177.43 20.5607 181.652 23.0197 184.701 25.0102C187.75 27.0593 193.203 31.3332 196.838 34.4947C200.473 37.7147 207.568 44.1547 212.669 48.8384C217.771 53.5806 225.745 60.7818 230.436 64.88C235.126 68.9196 242.104 74.8913 245.974 77.9942C249.843 81.1557 255.238 85.2539 257.994 87.1274C260.749 89.0009 267.844 92.9234 273.825 95.7922C279.806 98.6609 286.373 102.115 288.425 103.462C290.477 104.75 292.646 106.506 293.174 107.326C293.76 108.145 294.64 110.019 295.168 111.6C295.695 113.122 296.399 116.927 296.692 120.089C297.103 124.011 297.103 128.227 296.692 133.671C296.34 138.004 295.519 144.854 294.875 148.893C294.23 152.933 292.764 159.666 291.708 163.822C290.653 167.979 288.425 175.649 286.724 180.801C285.024 185.953 282.21 193.447 280.392 197.486C278.633 201.526 275.994 206.912 274.528 209.488C273.063 212.064 270.952 215.636 269.838 217.392C268.724 219.148 265.792 222.72 263.329 225.237C260.867 227.755 257.7 230.623 256.235 231.56C254.769 232.438 252.892 233.199 252.013 233.199C251.075 233.199 247.146 232.38 243.218 231.384C237.706 230.038 234.716 229.569 230.729 229.628C227.797 229.628 215.953 230.565 204.343 231.736C192.734 232.848 178.368 234.37 172.388 235.014C165.117 235.834 159.723 236.127 155.97 235.951C152.921 235.775 147.879 234.956 144.83 234.195C141.781 233.433 137.559 232.028 135.448 231.092C132.282 229.745 131.051 229.511 128.119 229.687C126.184 229.862 121.552 229.979 117.858 229.979C111.701 229.979 110.822 229.862 107.89 228.399C106.131 227.52 103.375 225.705 101.792 224.3C100.209 222.895 97.805 219.968 96.3978 217.685C95.0492 215.401 93.0557 211.479 92.0002 208.903C90.9448 206.21 90.0067 202.755 89.5963 197.194L86.6059 196.198C84.9055 195.613 82.3842 194.442 80.9184 193.505C79.4525 192.627 77.2831 190.812 75.9931 189.524C74.7618 188.295 72.651 185.66 71.361 183.728C70.0124 181.796 68.2534 178.517 67.3153 176.41C66.4357 174.302 65.3803 170.789 65.0285 168.506C64.4422 165.345 64.4422 163.588 64.9699 160.895C65.3217 158.963 65.7908 156.856 65.9667 156.212C66.3185 155.158 65.908 154.982 60.8655 154.279C57.8752 153.87 54.1226 152.933 52.4808 152.23C50.8977 151.469 48.2591 149.713 46.676 148.308C45.1515 146.844 43.158 144.385 42.3957 142.746C41.5749 141.165 40.4022 137.828 39.8158 135.428C39.1709 133.027 38.4086 128.929 38.1154 126.353C37.8223 123.719 37.7636 120.264 38.0568 118.449C38.35 116.693 39.2881 113.766 40.109 112.009C40.9885 110.253 42.6889 107.384 43.9789 105.745C45.2688 104.047 46.1483 102.466 45.9724 102.232C45.7965 101.939 42.8062 101.178 39.3468 100.534C35.946 99.8319 31.5484 98.6609 29.6135 97.8998C27.6786 97.1387 24.6882 95.6165 23.0465 94.5042C21.3461 93.3333 17.5348 89.9961 14.6031 87.1274C11.6714 84.2586 7.91883 79.7506 6.15981 77.1746C4.45942 74.5986 2.58312 71.2029 2.05542 69.5636C1.41044 67.8073 1 64.88 1 62.2454C1 59.3767 1.35181 57.0348 1.99678 55.5126C2.58312 54.2246 3.5799 52.4097 4.22488 51.473C4.92849 50.5362 6.68752 49.2482 8.15337 48.6042C10.1469 47.726 12.6682 47.3162 18.0625 47.082C21.991 46.9064 25.2159 46.6137 25.2159 46.438C25.2159 46.2624 24.395 44.3304 23.3396 42.0471C21.8151 38.8271 21.4047 37.1878 21.4047 34.4361C21.4047 31.4503 21.8151 30.0452 24.1019 25.3615C25.5677 22.3171 27.9131 18.3946 29.2617 16.7553C30.5516 15.0574 32.897 12.8327 34.4801 11.896C36.0046 10.9007 40.4022 9.08576 44.272 7.8563C48.1419 6.62683 54.3571 4.929 58.0511 4.05082C61.745 3.23117 66.9048 2.17735 69.4847 1.65044C72.651 1.06498 76.169 0.889339 80.332 1.06498ZM105.779 31.6845C105.603 33.2067 104.9 35.5485 104.313 36.9536C103.727 38.3001 103.141 39.4125 103.082 39.4125C102.965 39.4125 99.3295 40.1736 94.9906 41.1689C90.6517 42.1056 86.1955 42.9253 85.1987 42.9253C83.6156 42.9253 83.2638 42.6911 83.2051 41.6373C83.1465 40.4078 83.0879 40.4078 82.8533 41.4616C82.5601 42.5154 82.267 42.574 79.8043 42.2227C78.3385 41.9885 75.2895 41.6373 73.0028 41.4031C70.716 41.1689 69.0156 41.1689 69.1916 41.3445C69.3675 41.5202 72.2405 41.93 75.6413 42.2813C79.0421 42.6325 83.7328 43.4522 86.0782 44.0962C88.3649 44.7402 90.4758 45.2671 90.7689 45.2086C91.0035 45.2086 90.2412 44.8573 89.1272 44.3889C87.759 43.8815 87.3681 43.5302 87.9545 43.3351C88.4236 43.1595 92.6452 42.1642 97.336 41.1689C102.027 40.1151 108.711 38.3587 112.288 37.2463C115.864 36.1925 118.62 35.1387 118.444 35.0216C118.268 34.9045 115.102 35.7241 111.408 36.8365C107.714 38.0074 104.607 38.8271 104.489 38.71C104.431 38.5929 104.724 37.5976 105.193 36.4852C105.603 35.3729 106.131 33.2067 106.366 31.6845C106.542 30.1037 106.6 28.8743 106.424 28.8743C106.307 28.8743 106.014 30.1037 105.779 31.6845ZM79.218 31.9772C79.9216 33.3237 80.977 35.7827 81.622 37.3634C82.2083 39.0027 82.5601 39.4711 82.3842 38.5343C82.1497 37.5976 81.2702 35.1387 80.2734 33.1481C79.3353 31.099 78.4558 29.4597 78.2799 29.4597C78.104 29.4597 78.5144 30.5721 79.218 31.9772ZM106.952 52.4097C107.538 52.8195 110.411 54.7515 113.343 56.6835C116.275 58.6156 119.793 61.5429 121.259 63.1236C122.725 64.7629 124.835 68.0414 126.008 70.4418C128.002 74.54 128.119 75.184 128.119 80.3946C128.119 84.9026 127.884 86.5419 126.829 88.8838C126.067 90.5231 125.891 91.2841 126.36 90.6401C126.888 89.9961 127.708 88.0056 128.236 86.2492C128.823 84.1416 129.057 81.6241 128.881 78.931C128.705 75.7695 128.178 73.7789 126.477 70.3247C125.304 67.8073 123.076 64.4116 121.552 62.7723C119.969 61.133 117.154 58.6156 115.219 57.269C113.284 55.9224 110.411 54.1075 108.77 53.2293C107.186 52.3512 106.307 51.9999 106.952 52.4097ZM8.91561 56.6835C8.85698 59.6694 9.15015 61.4843 9.97103 63.2992C10.616 64.6458 11.8473 66.2265 12.7268 66.812C14.0754 67.6902 15.5999 67.8073 23.4569 67.6902C28.4408 67.5731 33.542 67.2804 34.7147 66.9291C35.946 66.6363 36.9428 65.9923 36.9428 65.6411C37.0014 65.1142 36.7082 65.1142 36.0046 65.7582C35.2424 66.4607 32.7797 66.6949 24.6882 66.8705C17.7694 66.9876 13.9582 66.8705 13.02 66.4022C12.3164 66.0509 11.261 64.88 10.7333 63.8847C10.2056 62.8309 9.56059 59.845 9.38469 57.269L8.97425 52.5853L8.91561 56.6835ZM31.6657 54.2246C31.6657 54.4588 32.8384 56.5665 34.3042 58.9083C35.7701 61.1916 36.9428 63.2992 36.9428 63.592C36.9428 63.8261 37.2359 64.3531 37.5877 64.7629C37.8809 65.1142 39.464 67.5731 41.0471 70.1491C42.6303 72.7251 45.562 76.8233 47.6728 79.2237C49.725 81.6241 52.4222 84.3757 53.7121 85.371C55.1193 86.4248 54.3571 85.4296 51.6599 82.7365C49.3146 80.3361 46.207 76.7648 44.8584 74.8328C43.5098 72.9008 40.0504 67.5145 37.2359 62.8309C34.4215 58.1472 32.0175 54.2246 31.9002 54.049C31.7829 53.8733 31.6657 53.9319 31.6657 54.2246ZM147.468 81.2143C145.533 83.2634 142.367 86.0736 140.373 87.4787C138.38 88.8838 136.269 90.406 135.683 90.8158C135.038 91.2256 135.272 91.2256 136.328 90.6987C137.324 90.2889 139.553 88.7667 141.312 87.4201C143.129 86.015 145.826 83.7317 147.41 82.2095C148.934 80.7459 150.459 79.0481 150.693 78.5211C150.986 77.9357 151.162 77.4673 151.104 77.5259C151.045 77.5259 149.403 79.2237 147.468 81.2143ZM56.7025 87.5958C56.8197 87.8299 58.4029 88.5325 60.2792 89.1765C62.0968 89.879 63.9145 90.2889 64.2076 90.1132C64.5595 89.9961 64.4422 89.8205 63.9145 89.8205C63.4454 89.762 61.5691 89.1765 59.7514 88.4154C57.9338 87.7129 56.5852 87.303 56.7025 87.5958ZM70.0711 91.8696C73.0028 92.6307 75.6413 93.1576 75.9345 93.0991C76.2863 92.982 74.2341 92.338 71.4196 91.6354C68.6052 90.9329 65.9667 90.3474 65.5562 90.406C65.1458 90.406 67.198 91.1085 70.0711 91.8696ZM122.549 94.8555C121.083 96.3776 120.321 97.3144 120.79 96.9046C121.317 96.5533 122.9 95.8507 124.308 95.3824C125.774 94.8554 126.184 94.6213 125.187 94.7969L123.428 95.1482C125.011 92.8064 125.363 92.1038 125.304 92.1038C125.246 92.1038 123.956 93.3333 122.549 94.8555ZM131.52 92.4551C130.992 92.6307 132.634 96.4362 136.328 104.106L141.898 115.522C141.018 122.079 140.843 124.128 141.018 124.304C141.136 124.48 141.429 123.309 141.663 121.669C141.839 120.089 142.132 118.332 142.308 117.864C142.484 117.337 144.536 120.791 147.116 125.768C149.579 130.627 152.687 136.13 154.035 138.062C155.325 139.994 157.729 143.039 159.371 144.795L162.361 148.015C163.006 157.968 162.889 161.949 162.479 164.701C162.127 167.101 161.364 170.438 160.837 172.019C160.192 174.009 158.96 175.883 156.908 177.873C155.267 179.513 152.98 181.152 151.866 181.62C150.224 182.323 149.638 182.323 148.641 181.679C147.644 181.094 147.585 181.094 148.23 181.738C148.641 182.206 148.993 182.674 148.993 182.85C148.993 183.026 147.996 183.494 146.765 183.962C145.006 184.606 144.302 184.606 143.071 184.021C141.839 183.377 141.722 183.435 142.367 184.079C142.777 184.548 143.129 185.016 143.129 185.192C143.129 185.367 142.074 185.836 140.784 186.246C139.142 186.714 138.028 186.772 137.207 186.363C136.562 186.07 135.859 185.777 135.624 185.777C135.39 185.777 135.683 186.128 136.328 186.597C137.442 187.299 137.266 187.416 134.275 188.119C132.516 188.529 130.406 188.646 129.585 188.47C128.529 188.178 128.353 188.236 128.998 188.646C129.819 189.173 129.819 189.231 128.998 189.524C128.529 189.641 126.888 190.051 125.363 190.402C123.487 190.812 122.197 190.871 121.376 190.461C120.438 189.992 120.262 190.051 120.496 190.754C120.731 191.339 120.379 191.69 119.5 191.866C118.737 191.983 119.207 191.983 120.496 191.866C121.786 191.69 126.477 190.695 130.933 189.583C135.331 188.47 141.312 186.655 144.126 185.543C146.94 184.489 150.459 182.967 151.866 182.264C153.332 181.503 155.794 179.688 157.319 178.225C158.902 176.761 160.25 175.063 160.426 174.536C160.661 173.541 160.837 173.541 162.42 174.361C163.417 174.829 164.765 176.117 165.469 177.171C166.231 178.166 167.287 180.625 167.873 182.557C168.459 184.489 169.104 188.412 169.28 191.339C169.456 194.325 169.339 198.13 168.928 200.121C168.576 202.053 167.521 205.214 166.642 207.146C165.762 209.078 163.944 211.654 162.713 212.884C161.423 214.113 158.14 216.28 155.384 217.685C152.687 219.148 150.224 220.144 149.989 220.027C149.755 219.851 149.169 220.144 148.641 220.612C148.172 221.08 146.706 221.666 145.416 221.959C144.126 222.193 143.071 222.544 143.071 222.837C143.071 223.071 141.781 223.656 140.139 224.125C138.556 224.593 136.621 224.886 135.917 224.71C135.155 224.535 134.92 224.535 135.331 224.71C135.741 224.886 135.917 225.296 135.741 225.588C135.624 225.881 135.741 226.174 136.035 226.174C136.386 226.174 139.318 225.179 142.66 223.891C145.944 222.661 151.279 220.378 154.504 218.797C158.198 216.982 161.423 214.933 163.065 213.294C164.531 211.83 166.29 209.605 166.993 208.317C167.638 207.029 168.635 204.395 169.221 202.463C169.984 199.711 170.16 197.545 169.925 192.51C169.749 188.295 169.163 184.723 168.401 182.147C167.521 179.396 166.466 177.464 164.941 175.883C163.71 174.653 162.42 173.541 162.009 173.424C161.482 173.248 161.54 172.487 162.244 170.263C162.948 168.096 163.241 164.993 163.241 158.144C163.299 150.123 163.417 149.069 164.179 149.654C164.707 150.006 163.593 148.776 161.834 146.844C160.016 144.912 157.495 141.868 156.205 140.111C154.915 138.355 152.628 134.784 151.162 132.208C149.696 129.632 144.712 119.796 140.08 110.37C133.103 96.0849 131.813 93.0991 132.516 92.6307C133.044 92.338 133.161 92.1623 132.81 92.1623C132.516 92.1623 131.93 92.2794 131.52 92.4551ZM92.6452 97.1973C96.1633 98.134 96.3392 98.1926 94.6974 98.6024L92.9384 99.0122C96.1633 99.0122 97.8637 98.8366 98.8018 98.6024C100.385 98.2511 100.092 98.134 96.7496 97.5486C94.6974 97.1387 92.0589 96.6704 90.8862 96.5533C89.7722 96.3776 90.593 96.6704 92.6452 97.1973ZM72.7682 99.5977C73.5305 100.71 74.1168 100.886 77.6935 100.886C81.5047 100.944 81.7393 100.886 80.9184 99.9489C80.3907 99.3635 79.9802 99.2464 79.9216 99.6562C79.8043 100.007 78.573 100.3 76.9899 100.3C75.1722 100.3 73.8237 99.8904 73.0614 99.2464C72.006 98.3097 72.006 98.3097 72.7682 99.5977ZM86.1955 99.3049C86.1955 99.5391 85.1987 99.7733 84.026 99.7733C82.5406 99.8514 82.2865 99.9685 83.2638 100.125C84.0846 100.242 86.6059 100.125 88.834 99.8318L92.9384 99.3635C87.72 98.9537 86.1955 99.0122 86.1955 99.3049ZM108.183 99.5391C109.473 99.6562 111.76 99.6562 113.167 99.5391C114.633 99.422 113.578 99.3049 110.822 99.3049C108.125 99.3049 106.893 99.422 108.183 99.5391ZM135.859 136.891C134.979 138.648 133.044 141.516 131.52 143.214L128.764 146.259C133.044 142.161 135.096 139.467 136.035 137.652C137.031 135.779 137.735 134.14 137.618 133.964C137.559 133.847 136.738 135.135 135.859 136.891ZM113.754 151.001C111.995 151.469 107.128 152.055 102.906 152.347C96.046 152.757 95.7528 152.816 100.15 152.933C102.789 152.933 106.893 152.699 109.239 152.406C111.584 152.055 114.692 151.469 116.099 151.001C117.565 150.533 118.386 150.181 117.858 150.181C117.389 150.181 115.571 150.533 113.754 151.001ZM166.935 151.703C167.932 152.582 170.863 154.514 173.384 155.977C175.906 157.441 181.652 160.544 186.167 162.827C190.682 165.11 193.848 166.574 193.203 166.106C192.558 165.637 188.102 163.178 183.235 160.72C178.427 158.261 172.329 154.865 169.749 153.167C167.169 151.469 165.938 150.825 166.935 151.703ZM197.542 169.736C199.301 171.316 201.353 173.424 202.115 174.361C202.877 175.297 203.464 175.941 203.464 175.707C203.464 175.415 202.233 173.892 200.708 172.253C199.184 170.614 197.131 168.74 196.135 168.038C195.196 167.394 195.841 168.155 197.542 169.736ZM251.602 176.117C251.192 178.049 250.195 181.445 249.433 183.728C248.671 186.011 248.026 188.119 248.084 188.412C248.084 188.704 248.436 188.178 248.847 187.241C249.257 186.304 250.313 182.967 251.251 179.923C252.13 176.878 252.717 173.951 252.599 173.483C252.482 173.014 252.013 174.185 251.602 176.117ZM113.284 192.1C113.636 192.627 113.05 192.92 110.998 193.154C109.473 193.33 107.597 193.33 106.893 193.154C106.131 192.978 105.545 193.095 105.545 193.388C105.545 193.681 104.958 194.091 104.255 194.208C103.493 194.383 104.489 194.383 106.424 194.208C108.359 194.032 111.643 193.564 113.754 193.212L117.506 192.51C113.226 191.456 112.874 191.515 113.284 192.1ZM252.072 204.57C250.371 207.498 247.146 212.298 244.918 215.284C242.69 218.212 239.758 221.783 238.351 223.247C236.885 224.71 235.771 226.174 235.771 226.467C235.771 226.759 236.592 226.115 237.53 225.003C238.527 223.891 240.931 220.963 242.866 218.563C244.86 216.162 247.674 212.357 249.198 210.074C250.723 207.79 252.834 204.453 253.831 202.638C254.827 200.765 255.531 199.243 255.472 199.243C255.355 199.243 253.831 201.643 252.072 204.57ZM232.312 220.027C230.318 223.071 228.852 225.588 228.97 225.588C229.146 225.588 230.26 224.066 231.491 222.251C232.722 220.378 234.305 217.86 235.009 216.689C235.713 215.46 236.182 214.465 236.064 214.465C236.006 214.465 234.247 216.982 232.312 220.027Z" stroke="#272727"/>
<path fill-rule="evenodd" clip-rule="evenodd" d="M78.573 3.69954C80.5666 3.69954 81.1529 3.99227 82.3256 5.63155C83.0878 6.62683 84.1432 8.44176 84.6123 9.55413C85.14 10.6665 85.5505 11.252 85.5505 10.9007C85.6091 10.4909 85.0814 8.73449 83.2051 3.99227L85.14 4.46064C86.1954 4.69482 87.4268 5.22173 87.8372 5.63155C88.3063 6.04138 89.303 7.73921 90.0653 9.43704C90.8275 11.0763 91.5898 12.4814 91.7657 12.4814C91.9416 12.4814 91.7657 11.4861 91.4139 10.3152C91.0621 9.08576 90.4171 7.38793 89.1271 4.87046L91.6484 5.51446C92.997 5.86574 94.287 6.21701 94.5801 6.39265C94.8147 6.50974 95.6942 8.03193 96.5151 9.72976C97.9223 12.5985 97.9809 12.6571 97.7464 10.725C97.5705 9.61267 97.2187 8.14903 96.9255 7.56357C96.5151 6.50974 96.6323 6.4512 98.8018 6.86102C100.092 7.0952 101.323 7.50502 101.558 7.68066C101.792 7.91484 102.554 9.43704 103.141 11.0178C103.786 12.6571 104.313 13.4182 104.372 12.7741C104.372 12.1301 104.137 10.725 103.199 7.79775L105.427 8.14903C106.6 8.38321 107.773 8.67594 108.007 8.91012C108.242 9.08576 108.652 10.3152 109.532 13.9451L109.59 11.4861C109.649 9.37849 109.825 9.02721 110.646 9.20285C111.232 9.37849 113.812 9.9054 116.392 10.3738C118.972 10.8421 127.181 12.1887 134.569 13.3596C141.957 14.5305 151.221 16.1698 155.091 16.9309C158.96 17.692 164.12 18.9215 166.524 19.624C168.928 20.268 171.274 21.2633 171.625 21.7902C172.036 22.3171 172.857 24.0735 173.502 25.6542C174.264 27.5863 174.674 28.1132 174.674 27.2935C174.733 26.5324 174.44 25.2444 174.147 24.3662C173.795 23.4295 173.678 22.6684 173.854 22.6099C174.029 22.4928 174.968 22.844 175.906 23.3124C176.844 23.7808 177.958 24.7175 178.251 25.3615C178.544 26.0055 179.248 28.0546 180.596 33.2652L180.303 29.6354C180.127 27.5863 180.127 25.947 180.303 25.947C180.479 25.947 181.359 26.4153 182.355 27.0008C183.587 27.7033 184.173 28.5815 184.408 30.0452C184.584 31.1576 184.818 33.3237 184.877 34.8459C184.935 36.3096 185.17 37.422 185.404 37.3049C185.698 37.1878 185.874 35.3729 185.874 29.4597L187.633 30.8063C188.629 31.5088 189.685 32.9725 190.037 34.1434C190.33 35.2558 190.799 38.1831 191.444 44.9744L192.03 34.0848L193.965 35.7241C195.9 37.3049 195.959 37.4805 196.369 43.218C196.779 48.8969 196.78 48.9555 197.19 45.8526C197.424 44.0962 197.659 41.8714 197.894 39.1783L201.881 42.6325L201.939 48.2529C201.998 51.3559 202.174 53.6392 202.408 53.2293C202.643 52.8781 202.995 50.7704 203.581 44.3889L205.399 46.3209C207.216 48.1944 207.275 48.3115 207.216 53.6392C207.158 56.5665 207.334 58.4985 207.568 57.8545C207.803 57.2105 208.155 55.1614 208.389 53.3464C208.565 51.473 208.917 49.9508 209.21 49.9508C209.444 49.8922 210.148 50.4777 210.793 51.1802C211.497 51.8828 212.2 53.9319 212.611 56.2737C213.08 58.7912 213.314 59.4938 213.373 58.3228C213.373 57.269 213.549 55.981 213.725 55.5126C213.959 54.7515 214.311 54.8101 215.777 55.8054C216.95 56.586 217.536 57.4642 217.536 58.4399C217.536 59.2596 217.829 59.9036 218.122 59.9036C218.416 59.9036 218.709 59.6694 218.709 59.3181C218.709 58.9668 219.588 59.4352 220.702 60.3719C221.816 61.2501 227.562 66.1094 233.484 71.2029C240.462 77.2917 244.801 81.4485 245.856 83.2048C246.794 84.727 248.378 87.7714 249.433 90.0547C250.488 92.338 251.837 95.6165 252.423 97.3729C253.01 99.1293 253.948 102.818 254.534 105.569C255.12 108.321 255.59 109.843 255.59 108.965C255.648 108.028 255.296 105.394 254.827 103.11C254.358 100.769 253.303 96.7875 252.482 94.3285C251.661 91.8111 250.312 88.474 249.492 86.8347C248.671 85.2539 248.143 83.9074 248.319 83.9074C248.495 83.9074 250.254 85.1368 252.247 86.659C254.3 88.1812 256.117 89.7034 256.352 90.0547C256.586 90.3474 257.642 92.6307 258.639 95.0311C259.694 97.4315 260.984 101.647 261.57 104.398C262.157 107.384 262.626 108.614 262.626 107.501C262.684 106.448 262.391 104.164 262.039 102.525C261.688 100.827 260.925 97.7242 260.28 95.6165C259.577 93.5089 259.166 91.7525 259.284 91.694C259.401 91.6354 260.691 92.338 262.215 93.3333C264.619 94.7384 265.206 95.558 266.261 98.4268C266.906 100.242 267.844 103.462 268.255 105.569C268.958 108.906 269.017 109.082 269.075 107.033C269.075 105.745 268.724 102.876 268.255 100.593C267.785 98.3097 267.492 96.4362 267.551 96.4362C267.61 96.3776 268.665 96.6704 269.838 97.1387C271.831 97.8413 272.183 98.3097 272.887 101.061C273.356 102.701 274.001 105.277 274.353 106.74C274.939 109.199 274.939 109.082 274.704 105.16C274.528 102.818 274.235 100.476 273.942 99.9489C273.59 99.1293 273.942 99.1878 276.17 100.242C278.34 101.178 278.926 101.822 279.454 103.637C279.864 104.867 280.45 107.033 280.802 108.497C281.389 110.956 281.389 110.838 281.154 106.916C280.978 104.574 280.978 102.642 281.154 102.642C281.33 102.642 282.385 103.169 283.499 103.813C285.141 104.75 285.728 105.569 286.372 108.087C286.842 109.726 287.369 111.775 287.545 112.595C287.662 113.414 287.78 112.302 287.604 106.33L289.011 107.267C289.773 107.794 290.77 109.024 291.298 109.96C291.767 110.897 292.412 112.536 292.705 113.473C292.998 114.41 293.467 117.864 293.76 121.084C294.054 124.655 294.054 129.69 293.702 133.964C293.409 137.828 292.588 144.268 291.943 148.308C291.298 152.347 289.715 159.607 288.483 164.408C287.252 169.267 284.731 177.522 282.913 182.85C281.095 188.236 277.636 196.667 275.056 201.877C272.535 207.029 269.134 213.235 267.492 215.636C265.851 218.036 262.45 222.017 259.928 224.535C257.407 226.993 254.651 229.277 253.713 229.628C252.834 229.979 251.837 230.272 251.544 230.272C251.251 230.272 252.013 229.218 253.303 227.93C254.593 226.642 256.41 224.183 257.407 222.544C258.345 220.846 259.166 219.148 259.166 218.856C259.108 218.563 258.521 219.207 257.818 220.319C257.114 221.49 255.883 223.247 255.062 224.3C254.241 225.354 252.482 226.993 251.075 227.93C248.729 229.628 248.495 229.628 243.394 228.223L245.915 225.588C247.264 224.125 249.081 221.9 249.843 220.612C250.664 219.324 251.544 217.802 251.72 217.275C251.954 216.689 252.013 216.221 251.837 216.221C251.661 216.221 250.664 217.568 249.609 219.265C248.612 220.905 246.56 223.305 245.094 224.593C243.628 225.823 242.045 227.052 241.576 227.345C241.107 227.579 239.817 227.52 236.885 226.759L240.286 222.837C242.104 220.612 245.27 216.631 247.205 213.879C249.198 211.128 252.423 206.151 254.358 202.755C256.352 199.36 259.401 193.447 261.101 189.583C262.86 185.719 265.616 178.693 267.316 173.951C268.958 169.15 270.307 164.993 270.307 164.701C270.307 164.408 269.955 164.115 269.544 164.115C269.193 164.115 268.489 165.345 268.02 166.867C267.551 168.389 265.909 173.248 264.267 177.581C262.684 181.913 259.987 188.412 258.287 191.924C256.586 195.437 253.479 201.116 251.427 204.512C249.374 207.908 246.149 212.767 244.156 215.343C242.162 217.919 239.231 221.49 237.648 223.247C234.892 226.232 234.54 226.467 232.253 226.349C230.963 226.232 229.849 226.057 229.849 225.881C229.849 225.705 230.729 224.359 231.843 222.837C232.898 221.256 235.419 217.275 237.354 213.879C239.289 210.484 242.28 204.687 243.921 200.999C245.622 197.311 248.26 190.461 249.785 185.777C251.368 181.094 253.303 173.834 254.065 169.677C254.886 165.52 255.824 159.08 256.176 155.509C256.528 151.879 256.704 148.601 256.528 148.308C256.352 148.015 255.941 147.839 255.648 148.015C255.355 148.191 255.062 149.362 255.062 150.65C255.062 151.938 254.651 156.094 254.182 159.9C253.655 163.647 252.482 169.911 251.544 173.775C250.606 177.639 248.905 183.552 247.791 186.948C246.677 190.344 244.508 195.847 243.042 199.243C241.517 202.638 238.879 207.908 237.178 210.952C235.419 213.996 232.488 218.739 230.611 221.49C228.207 224.944 226.8 226.525 225.862 226.642C224.631 226.759 224.631 226.584 226.917 221.783C228.207 219.031 229.263 216.338 229.263 215.811C229.263 215.226 228.266 216.865 226.976 219.441C225.745 222.017 223.868 224.827 222.872 225.764C221.523 226.935 220.409 227.345 216.363 227.345L218.709 222.544C219.999 219.851 221.054 217.158 221.054 216.514C221.113 215.87 219.999 217.45 218.709 220.027C217.419 222.603 215.777 225.413 215.015 226.232C214.077 227.345 212.904 227.872 210.91 228.164C209.386 228.34 208.155 228.399 208.155 228.223C208.155 228.047 208.799 227.052 209.562 226.057C210.324 225.003 211.673 222.72 212.493 221.08C213.314 219.382 214.018 217.626 214.018 217.275C214.018 216.865 213.138 218.036 212.083 219.851C211.086 221.724 209.21 224.417 207.979 225.881C206.22 228.047 205.34 228.574 203.288 228.867C201.939 229.101 200.532 229.16 200.122 229.043C199.653 228.867 200.122 227.637 201.47 225.588C202.584 223.832 203.464 221.959 203.464 221.49C203.464 221.022 202.76 221.783 201.822 223.247C200.884 224.71 199.301 226.759 198.245 227.813C197.073 228.984 195.724 229.687 194.786 229.687C193.906 229.687 192.147 229.862 188.512 230.506L190.037 228.457C190.916 227.403 192.03 225.588 192.558 224.593C193.086 223.539 193.496 222.31 193.496 221.959C193.555 221.549 192.499 222.778 191.209 224.71C189.978 226.642 188.453 228.691 187.808 229.277C187.163 229.862 185.229 230.506 182.942 230.799C180.831 231.092 179.013 231.209 178.837 231.092C178.662 230.975 179.072 230.272 179.776 229.511C180.421 228.808 181.359 227.579 181.828 226.759C182.355 225.94 182.883 224.769 183.118 224.125C183.411 223.247 183.235 223.305 182.473 224.417C181.945 225.237 180.303 227.169 178.837 228.691C176.375 231.326 175.906 231.56 169.046 232.321L171.567 229.569C172.974 227.989 174.147 226.408 174.147 226.057C174.147 225.647 173.384 226.174 172.505 227.286C171.625 228.399 169.749 230.096 168.283 231.092C165.703 232.848 165.527 232.907 158.609 232.907C153.449 232.848 150.283 232.555 146.589 231.619C143.833 230.916 139.904 229.745 134.158 227.637L141.077 225.12C144.947 223.715 150.693 221.256 153.918 219.734C157.377 218.036 161.071 215.753 162.889 214.055C164.883 212.298 166.7 209.957 167.756 207.732C168.694 205.8 169.749 202.755 170.101 200.999C170.511 199.184 170.629 195.203 170.453 191.924C170.277 188.236 169.69 184.548 168.87 181.972C167.873 178.752 166.993 177.347 162.127 172.604L162.948 169.677C163.475 167.862 163.768 163.588 163.886 150.298L167.99 153.284C170.277 154.924 176.844 158.67 182.649 161.656C188.453 164.584 194.727 168.213 196.545 169.677C198.421 171.141 200.884 173.775 201.998 175.532C203.112 177.288 204.343 178.752 204.636 178.752C204.93 178.752 205.223 178.4 205.223 178.049C205.223 177.639 204.285 175.883 203.171 174.244C202.057 172.546 199.711 170.028 197.952 168.682C196.193 167.277 190.037 163.705 184.29 160.661C178.544 157.617 172.153 154.045 170.042 152.699C167.931 151.294 164.413 148.366 162.185 146.2C160.016 143.975 156.615 139.819 154.68 136.891C152.804 133.964 146.999 123.133 141.839 112.77C136.738 102.349 132.516 93.7431 132.516 93.5674C132.516 93.3918 133.748 92.6893 135.272 91.9867C136.855 91.2256 139.553 89.5278 141.312 88.1812C143.071 86.8347 146.237 84.083 148.289 82.0339C150.458 79.8677 151.866 78.0528 151.631 77.643C151.397 77.1161 149.579 78.4626 146.413 81.4484C143.774 83.9659 140.256 86.9518 138.673 88.0056C137.031 89.118 134.158 90.6987 132.223 91.5769C130.288 92.5136 127.943 93.4503 127.005 93.6845C125.891 93.9773 125.363 93.9187 125.539 93.5674C125.715 93.2162 126.594 91.4012 127.533 89.4692C129.116 86.3078 129.292 85.4296 129.233 80.3946C129.233 76.0037 128.94 74.1302 127.884 71.6127C127.122 69.8564 125.422 66.812 124.073 64.88C122.549 62.7723 119.676 59.9621 116.92 57.8545C114.398 55.9225 109.004 52.6439 104.958 50.5948C100.913 48.4871 95.6355 46.0867 93.2315 45.2086C89.5962 43.9206 89.0685 43.5693 90.2998 43.3351C91.1207 43.1595 96.515 41.8129 102.32 40.4078C108.125 38.9442 115.454 36.778 118.62 35.5485C121.786 34.2605 124.366 32.9139 124.308 32.5627C124.308 32.1528 124.073 31.8016 123.721 31.8016C123.37 31.8016 122.138 32.2699 120.907 32.9139C119.734 33.4994 116.216 34.7874 113.167 35.7827C110.118 36.7194 107.011 37.6561 106.248 37.8903C104.958 38.2416 104.958 38.1831 105.838 36.1925C106.307 35.0801 106.717 32.8554 106.717 31.2161C106.717 29.6354 106.542 28.2888 106.248 28.2888C106.014 28.2888 105.603 29.6354 105.369 31.3332C105.076 33.031 104.489 35.4314 104.02 36.6609C103.551 37.8318 103.141 38.8271 103.023 38.8271C102.965 38.8271 99.3295 39.5882 94.9906 40.5834C90.6516 41.5202 86.43 42.3398 85.6091 42.3398C84.3191 42.3398 84.026 41.93 83.0878 38.8271C82.5601 36.895 81.3874 33.9092 80.5666 32.2699C79.687 30.5721 78.1626 27.9961 77.1658 26.5324C76.169 25.1273 75.1722 23.6637 74.9377 23.3124C74.664 22.9221 74.3318 22.9221 73.9409 23.3124C73.5891 23.7222 74.3513 25.303 76.169 27.9961C77.6935 30.2794 79.5111 33.5579 80.1561 35.3143C80.8597 37.0707 81.5633 39.2369 82.091 41.7544L77.5176 41.3445C75.0549 41.1103 72.1232 40.8762 71.0092 40.8762C69.8951 40.8762 68.8984 41.1103 68.7811 41.4616C68.6638 41.8129 71.361 42.3398 75.1722 42.7496C78.8075 43.1595 84.026 44.0962 86.7818 44.8573C89.5376 45.6184 93.9938 47.1406 96.7496 48.2529C99.5054 49.3653 104.255 51.7657 107.304 53.5806C110.353 55.3955 114.457 58.0301 116.392 59.4352C118.327 60.8988 120.907 63.3578 122.08 64.9385C123.252 66.5193 124.953 69.388 125.832 71.32C127.005 73.896 127.474 76.0622 127.708 79.5164C127.884 83.2634 127.708 84.8441 126.77 87.4201C126.067 89.1765 124.542 91.8111 123.252 93.2747C122.021 94.7384 119.851 96.4947 118.386 97.1973C116.275 98.2511 114.809 98.5438 110.529 98.5438C107.362 98.5438 102.085 97.9584 97.3359 97.0802C92.997 96.3191 83.6155 94.2114 76.5208 92.4551C69.4261 90.6987 62.0382 88.6496 60.1032 87.947C57.7579 87.0103 55.4711 85.4881 53.1258 83.3219C51.2495 81.5655 48.435 78.5212 46.9105 76.5891C45.3861 74.6571 41.4576 68.6269 38.1154 63.1236C34.7733 57.6203 30.2584 49.4824 28.0303 44.9744C25.3332 39.4125 24.0432 36.1339 24.0432 34.7288C24.0432 33.6165 24.9227 30.6892 25.9781 28.2888C27.0336 25.8884 29.1444 22.1415 30.6689 19.9753C32.1934 17.7505 34.4215 15.3502 35.5941 14.5891C36.8255 13.7694 40.2262 12.3058 43.0993 11.369C45.9724 10.3738 51.5426 8.79303 55.4125 7.79775C59.2824 6.86102 63.7386 5.86574 65.3803 5.6901C68.2534 5.28028 68.312 5.33883 70.5401 7.8563C71.7128 9.2614 72.7096 10.1981 72.7096 9.84686C72.7096 9.49558 72.0646 8.32466 71.2437 7.21229C70.4815 6.09992 70.0124 4.98755 70.1883 4.75337C70.4228 4.46064 71.5955 4.285 72.8268 4.285C74.7618 4.285 75.2308 4.57773 76.6381 6.62683C77.5762 7.97339 78.6316 9.43704 79.0421 10.0225C79.5111 10.608 79.4525 10.1396 78.8662 8.67594C78.3385 7.38793 77.5176 5.74865 77.0485 5.0461C76.169 3.69954 76.2276 3.69954 78.573 3.69954ZM20.232 50.0679C22.8119 50.0093 25.7436 50.0679 26.6818 50.302C28.1476 50.5948 29.0858 51.6486 32.3693 57.0348C34.5974 60.5476 36.2978 63.8847 36.1805 64.4116C36.1219 64.9385 35.2423 65.5825 34.3042 65.8752C33.366 66.1094 28.4408 66.4022 23.3982 66.4607C14.8963 66.6363 14.0754 66.5192 12.9027 65.4654C12.1405 64.8214 11.2023 63.4163 10.7919 62.421C10.3228 61.3672 9.97101 58.8497 9.97101 56.8592C9.97101 54.8101 10.0883 52.5853 10.2642 51.8828C10.4987 50.7704 11.0264 50.4777 13.02 50.3606C14.4272 50.2435 17.6521 50.1264 20.232 50.0679ZM8.38789 51.7071C8.44652 51.7071 8.44652 53.6392 8.32926 55.981C8.15335 58.8497 8.38789 60.9574 9.03287 62.5381C9.50194 63.8261 10.616 65.524 11.4369 66.3436C12.6682 67.5145 13.7822 67.8658 16.8898 68.1C19.0593 68.2756 23.9846 68.2756 27.8544 68.1C32.7211 67.8658 35.3596 67.456 36.3564 66.812C37.8222 65.9338 37.8222 65.9338 40.109 69.7978C41.3989 71.9055 43.5098 75.1255 44.917 76.8819C46.2656 78.6382 49.0214 81.6826 51.0736 83.6732C53.1258 85.6638 55.9988 87.8299 57.4647 88.591C58.9305 89.2936 63.9144 90.8743 76.9312 94.1529L79.1593 99.7148L76.3449 99.5977C73.765 99.422 73.4718 99.2464 71.5955 96.4947C69.8951 93.9773 69.6606 93.8016 70.0124 95.3238C70.2469 96.2605 70.9506 97.7827 72.7096 100.3H70.071C67.7843 100.3 67.198 100.007 65.8494 98.4268C65.0285 97.3729 63.8558 95.4409 63.2695 94.1529C62.5659 92.6307 62.1554 92.2209 62.1554 92.982C62.1554 93.626 62.8004 95.4995 63.6213 97.0802C64.4422 98.7195 65.0871 100.066 65.0871 100.183C65.0871 100.242 64.0904 100.3 62.859 100.3C60.9827 100.359 60.3378 99.9489 58.1097 97.5486C56.6438 96.0264 54.8848 93.4503 54.1812 91.8111C53.4189 90.2303 52.8326 89.235 52.8326 89.6449C52.774 89.9961 53.3017 91.7525 53.9466 93.4504C54.5916 95.0896 55.8229 97.3729 58.051 100.3H55.5298C53.4189 100.242 52.774 99.9489 50.7804 97.7827C49.4904 96.4362 47.7314 93.6845 46.7933 91.694C45.9138 89.6449 45.0342 88.0056 44.8583 88.0056C44.6824 88.0056 44.9756 89.235 45.4447 90.8158C45.9138 92.338 47.0864 94.7969 49.8423 99.1293H48.0832C46.7933 99.1293 45.5033 98.3682 43.0407 96.0849C41.223 94.3871 38.9363 91.694 37.9981 90.0547C37.06 88.4739 36.4737 87.7714 36.6496 88.591C36.8841 89.4107 37.6463 90.9914 38.2913 92.1038C38.9363 93.2162 40.109 94.9725 40.8712 95.9093C41.6335 96.846 42.1612 97.7242 42.1025 97.8413C41.9853 97.9584 41.1058 97.8998 40.1676 97.7242C39.1122 97.5486 37.0014 96.0849 34.8319 94.0358C32.897 92.1623 30.4343 89.1765 29.4376 87.4201C28.3821 85.6638 27.5613 84.5514 27.5613 84.9612C27.5613 85.3125 28.089 86.7176 28.7339 88.0056C29.3789 89.2936 31.0207 91.7525 34.8905 96.5533L32.897 95.9093C31.7829 95.6165 29.3203 93.8602 27.3267 92.0452C25.3332 90.2303 22.6946 87.2445 21.4047 85.3125C20.1734 83.439 18.8834 81.6241 18.5902 81.2728C18.2971 80.9801 18.7661 82.0925 19.587 83.7903C20.4079 85.4296 22.3428 88.3569 23.8673 90.2303C26.6231 93.5089 26.6231 93.5089 24.6296 92.1623C23.5155 91.4012 19.6457 87.8299 16.1276 84.2001C12.5509 80.6288 8.79833 76.2964 7.74291 74.54C6.74613 72.7837 5.45618 70.2662 4.98711 68.9782C4.51803 67.6902 4.16623 64.8214 4.16623 62.5381C4.16623 60.2548 4.51803 57.6203 4.86984 56.5665C5.28028 55.5712 6.15979 54.049 6.8634 53.2293C7.62565 52.4097 8.27062 51.7071 8.38789 51.7071ZM130.582 93.9187C130.699 93.8602 133.161 98.778 136.093 104.867C141.312 115.639 141.37 115.873 140.96 119.035C140.784 120.791 139.904 124.48 139.142 127.231C138.38 129.983 136.797 133.906 135.741 136.013C134.627 138.121 132.751 140.99 131.52 142.395C130.054 144.093 127.884 145.615 125.187 146.844C122.9 147.898 118.679 149.303 115.806 150.006C112.874 150.65 107.011 151.469 102.73 151.821C97.1014 152.23 94.6388 152.23 93.642 151.762C92.9384 151.411 91.4725 150.298 90.4171 149.245C89.3617 148.249 88.5408 147.781 88.5408 148.191C88.5408 148.542 89.1858 149.713 91.4725 152.406H89.1271C87.0749 152.406 86.4886 152.113 84.7296 149.947C83.5569 148.542 82.6774 147.078 82.6774 146.727C82.6774 146.317 82.3842 145.966 82.091 145.966C81.7392 145.966 81.9151 146.903 82.4428 148.191C82.9119 149.362 83.7914 150.825 84.3191 151.411C85.2573 152.406 85.1987 152.465 82.9706 152.465C81.2702 152.465 80.2734 152.055 79.3352 151.118C78.6316 150.357 77.4003 148.601 76.5794 147.137C75.7586 145.673 75.0549 144.912 75.0549 145.381C75.0549 145.849 75.6999 147.605 76.5208 149.186C77.5762 151.352 77.7521 152.23 77.2244 152.523C76.814 152.757 75.9931 152.992 75.3481 152.992C74.7031 152.933 73.2373 151.996 72.1232 150.767C71.0092 149.596 69.3674 147.137 68.4879 145.381C67.3739 143.156 66.9634 142.687 67.2566 143.917C67.4325 144.854 68.1947 146.903 68.957 148.483C69.7192 150.006 70.5987 151.352 70.9506 151.528C71.2437 151.703 71.5369 152.113 71.5369 152.406C71.5369 152.699 71.0678 152.992 70.4815 152.992C69.9538 152.992 68.6638 152.757 67.7257 152.465C66.7875 152.113 65.2044 150.884 64.2076 149.654C63.2695 148.425 61.8623 145.966 61.1 144.21C59.9273 141.517 59.8101 141.341 60.0446 143.039C60.2791 144.151 61.1 146.551 63.6213 151.703L61.5691 151.411C60.455 151.235 58.7546 150.415 57.8165 149.537C56.8784 148.718 55.647 147.195 55.0607 146.259C54.4157 145.322 53.9466 144.912 53.9466 145.381C53.9466 145.849 54.5916 147.254 56.8784 150.65L55.5298 150.298C54.8262 150.123 53.1844 149.362 51.8944 148.601C50.6045 147.898 48.6696 146.259 47.5555 145.029C46.4415 143.741 45.0342 141.575 44.3893 140.111C43.7443 138.648 42.7475 135.135 42.1612 132.208C41.5748 129.28 41.0471 124.714 41.0471 121.962C41.0471 117.396 41.223 116.635 43.0993 112.888C44.2134 110.604 46.3828 107.326 50.7218 102.232L64.794 101.881C72.7096 101.705 83.4983 101.003 89.4203 100.3C97.9809 99.3049 100.795 99.1878 104.196 99.7148C106.542 100.007 110.001 100.3 111.819 100.3C113.695 100.242 116.275 99.8904 117.565 99.3635C118.855 98.8951 120.321 98.134 120.79 97.6656C121.259 97.1973 123.663 96.1435 126.067 95.3824C128.471 94.6213 130.523 93.9773 130.582 93.9187ZM79.3939 94.6798C80.0975 94.8554 83.5569 95.7336 87.1922 96.6118C90.8275 97.5486 93.7006 98.3097 93.642 98.3682C93.5833 98.4267 92.1761 98.5438 90.4757 98.6609C88.1304 98.778 87.1922 98.6024 84.8469 96.4947L85.2573 97.8413C85.5505 98.9537 85.3746 99.1878 83.6742 99.3635C82.1497 99.5977 81.4461 99.3049 79.863 97.6071C78.8662 96.4947 78.0453 95.3238 78.1039 94.9725C78.1039 94.5627 78.6903 94.4456 79.3939 94.6798ZM142.602 118.157L147.116 126.939C149.579 131.798 152.511 137.067 153.625 138.648C154.739 140.287 157.026 143.156 158.726 145.088C161.716 148.483 161.834 148.718 162.185 152.992C162.42 155.392 162.361 159.607 162.127 162.359C161.892 165.11 161.247 168.916 160.602 170.848C159.899 173.19 158.785 175.122 157.319 176.644C156.087 177.873 154.094 179.63 152.863 180.449C150.81 181.913 150.576 181.913 148.875 181.094C147.82 180.625 146.823 179.805 146.53 179.337C146.295 178.869 145.944 178.576 145.709 178.752C145.533 178.927 146.061 179.923 148.348 182.85L146.706 183.494C145.826 183.845 144.478 183.904 143.657 183.67C142.836 183.435 141.312 182.499 140.256 181.562C139.259 180.684 138.38 180.04 138.38 180.215C138.38 180.391 139.318 181.562 142.484 185.192L140.432 185.777C138.732 186.246 137.911 186.128 135.565 184.958C134.041 184.196 132.106 182.791 131.168 181.738C130.288 180.742 129.585 180.274 129.585 180.684C129.643 181.035 130.933 182.733 132.575 184.314C134.158 185.953 135.507 187.299 135.448 187.416C135.448 187.475 134.334 187.709 132.927 187.885C131.402 188.119 129.702 187.943 128.412 187.416C127.298 186.948 125.246 185.543 123.839 184.255C122.431 183.026 121.317 182.264 121.317 182.557C121.317 182.85 122.666 184.372 124.308 185.953C125.891 187.475 127.591 188.704 127.943 188.763C128.353 188.763 127.357 189.173 125.773 189.641C123.428 190.285 122.49 190.285 121.141 189.7C120.203 189.348 118.327 187.768 116.92 186.246C115.513 184.665 114.34 183.611 114.34 183.904C114.34 184.138 114.75 184.958 115.278 185.777C115.864 186.597 117.096 188.06 119.91 190.988L118.151 191.339C117.213 191.573 115.337 191.398 114.047 190.988C112.757 190.578 110.411 189.056 108.828 187.592C106.014 184.958 105.955 184.958 107.069 186.89C107.656 187.943 109.004 189.524 110.06 190.402C111.349 191.456 111.701 192.042 111.232 192.334C110.822 192.569 109.825 192.803 108.887 192.803C108.007 192.803 106.307 192.393 105.076 191.924C103.903 191.398 101.909 189.992 100.678 188.822C99.5054 187.651 98.5086 187.007 98.5086 187.416C98.5086 187.768 99.564 189.173 100.854 190.461C102.144 191.749 103.551 192.803 103.903 192.803C104.411 192.803 104.372 192.998 103.786 193.388C103.317 193.681 102.261 193.974 101.44 193.974C100.619 193.974 98.3913 193.564 96.4564 193.095C94.5215 192.569 91.7657 191.398 90.2998 190.344C88.2476 188.939 87.8958 188.822 88.834 189.875C89.4789 190.636 91.1793 191.983 95.2837 194.676L92.352 194.383C90.7103 194.208 87.8372 193.505 85.9023 192.744C83.1465 191.749 81.4461 190.519 78.2798 187.299C75.4067 184.431 73.3546 181.679 71.7128 178.459C70.3642 175.883 68.8397 171.96 68.312 169.677C67.667 166.867 67.4911 164.584 67.7257 162.359C67.9602 160.602 68.4879 158.144 68.957 156.973C69.7779 154.806 69.8365 154.748 73.4132 154.455C75.4654 154.338 83.4396 154.045 91.1793 153.811C98.919 153.635 107.597 153.109 110.529 152.699C113.402 152.23 118.151 151.059 121.083 150.064C123.956 149.069 127.415 147.664 128.705 146.903C129.995 146.142 131.93 144.502 132.986 143.273C134.041 142.043 135.741 139.292 136.855 137.184C137.969 135.076 139.494 131.271 140.315 128.695C141.136 126.119 141.957 122.723 142.191 121.084L142.602 118.157ZM161.54 174.653C161.834 174.653 162.83 175.356 163.651 176.234C164.531 177.171 165.645 178.81 166.231 179.923C166.817 181.035 167.638 183.67 168.049 185.777C168.459 187.885 168.87 191.573 168.87 193.974C168.87 196.374 168.459 199.945 167.931 201.877C167.462 203.809 166.348 206.678 165.469 208.259C164.589 209.84 162.889 212.006 161.658 213.06C160.485 214.172 157.377 216.104 150.107 219.734L148.054 218.27C146.94 217.45 146.002 216.924 146.002 217.099C146.002 217.275 146.471 218.036 146.999 218.856C147.585 219.675 147.937 220.495 147.761 220.612C147.585 220.788 146.413 221.08 145.123 221.256C143.188 221.549 142.367 221.315 140.549 220.085C139.377 219.265 138.38 218.856 138.38 219.148C138.38 219.441 139.142 220.378 140.139 221.197C141.077 222.017 141.898 222.72 141.898 222.837C141.898 222.895 140.842 223.305 139.553 223.715C137.911 224.183 136.562 224.242 134.979 223.832C133.806 223.539 132.223 222.895 131.461 222.368C130.757 221.9 130.054 221.607 129.878 221.783C129.702 221.959 130.64 222.895 134.275 225.588L132.634 225.94C131.754 226.174 129.585 226.174 127.826 225.998C126.067 225.764 123.545 225.061 122.255 224.476C120.966 223.832 119.851 223.422 119.734 223.539C119.676 223.715 120.731 224.476 122.08 225.296C123.897 226.291 124.366 226.818 123.721 227.052C123.252 227.228 120.321 227.345 117.272 227.228C112.815 227.111 111.115 226.759 108.77 225.647C107.128 224.827 104.489 222.837 102.906 221.197C101.206 219.558 98.8604 216.104 97.3946 213.294C95.9873 210.542 94.2869 206.854 93.7006 205.097C93.1143 203.341 92.6452 200.882 92.6452 199.711C92.6452 197.955 92.9384 197.369 93.9352 196.959C94.6974 196.667 98.45 195.964 102.32 195.437C106.19 194.969 112.933 193.857 117.272 193.037C121.61 192.217 128.353 190.754 132.223 189.817C136.093 188.822 141.898 187.007 145.123 185.777C148.348 184.489 152.628 182.44 154.622 181.094C156.674 179.805 158.902 177.815 159.605 176.703C160.368 175.59 161.189 174.653 161.54 174.653Z" stroke="#272727"/>
<path d="M97.7464 71.4957C98.6259 70.6175 100.209 69.5051 101.147 69.0367C102.144 68.5098 104.196 68.1585 108.77 68.2756L105.545 68.6855C103.786 68.9196 101.499 69.5051 100.561 69.9735C99.6227 70.5004 98.2155 71.5542 97.5705 72.3153C96.8669 73.0179 95.8701 74.423 95.401 75.4182C94.8733 76.355 94.4629 76.999 94.4042 76.7062C94.4042 76.4721 94.756 75.5939 95.2251 74.6571C95.6942 73.7789 96.8082 72.3738 97.7464 71.4957Z" stroke="#272727"/>
<path d="M119.206 73.6619C117.33 72.5495 114.223 70.9688 112.288 70.1491C110.353 69.388 109.18 68.6855 109.649 68.6855C110.118 68.6855 112.639 69.6807 115.219 70.9688C117.799 72.2568 120.731 73.8375 121.669 74.4815C122.607 75.184 123.252 75.711 122.959 75.711C122.725 75.711 121.024 74.7742 119.206 73.6619Z" stroke="#272727"/>
<path d="M93.3488 82.7365C93.2902 81.2728 93.4661 79.5164 93.7006 78.8139C93.9352 78.0528 94.1697 77.5259 94.1697 77.643C94.2283 77.7015 94.0524 79.4579 93.8179 81.5656C93.4661 84.9027 93.4075 85.0198 93.3488 82.7365Z" stroke="#272727"/>
<path d="M99.7986 91.8696C98.2741 91.1085 96.5151 89.8791 95.8701 89.118L94.6974 87.7129L96.1633 89.0009C96.9841 89.7034 99.3881 91.1085 101.558 92.0453C103.786 93.0405 107.714 94.5042 110.353 95.2653C113.05 96.0849 114.75 96.7289 114.164 96.7289C113.636 96.7875 110.763 95.9678 107.89 95.0311C105.017 94.0358 101.382 92.6307 99.7986 91.8696Z" stroke="#272727"/>
<path d="M126.594 122.255C125.949 120.03 125.187 117.688 124.894 117.103C124.659 116.459 124.659 116.166 124.953 116.342C125.246 116.576 126.008 118.508 126.653 120.674C127.298 122.84 127.826 125.007 127.826 125.475C127.767 126.002 127.239 124.538 126.594 122.255Z" stroke="#272727"/>
<path d="M128.823 135.428C128.647 135.311 128.412 133.203 128.236 130.744C128.002 127.524 128.06 126.997 128.412 128.695C128.705 129.983 128.94 132.091 128.998 133.379C128.998 134.667 128.94 135.603 128.823 135.428Z" stroke="#272727"/>
<path d="M150.869 160.076C149.638 157.617 147.058 153.928 145.181 151.879L141.663 148.015L144.771 150.942C146.471 152.582 148.875 155.626 150.107 157.675C151.338 159.783 152.511 162.183 152.745 162.944C152.921 163.764 152.1 162.476 150.869 160.076Z" stroke="#272727"/>
<path d="M161.892 198.716C161.599 195.027 161.071 192.159 160.192 190.227C159.43 188.47 159.312 187.768 159.84 188.47C160.309 189.114 161.13 190.988 161.599 192.569C162.068 194.208 162.42 197.486 162.244 204.278L161.892 198.716Z" stroke="#272727"/>
</svg>
