<svg width="64" height="64" viewBox="0 0 64 64" fill="none" xmlns="http://www.w3.org/2000/svg">
<path fill-rule="evenodd" clip-rule="evenodd" d="M12.1183 10.9974H14.4789C16.183 10.9974 17.054 11.0474 17.5716 11.185C17.9755 11.285 18.6067 11.5225 18.9602 11.71C19.3262 11.885 19.9574 12.3475 20.3613 12.735C20.841 13.1975 21.245 13.7351 21.5353 14.3101C21.7751 14.7851 22.0024 15.3727 22.0907 15.9977H24.8047L25.6884 17.0227C26.168 17.5853 27.1148 18.4978 27.7712 19.0603C28.4276 19.6229 29.3996 20.3979 29.9172 20.7729C30.4347 21.1479 31.4824 21.8355 32.2525 22.3105C33.0099 22.7855 34.4363 23.5731 35.4083 24.0606C36.3803 24.5481 37.8951 25.2356 40.3945 26.2482L41.8083 25.6732C42.5909 25.3606 43.9795 24.7481 44.8757 24.3106C45.772 23.8731 47.2868 23.0605 48.2209 22.498C49.155 21.9355 50.026 21.3979 50.1396 21.2979C50.3416 21.1479 50.4047 21.1479 50.7077 21.3604C50.9097 21.4855 51.6797 22.2355 52.4497 23.023C53.2071 23.7981 54.2296 25.0231 55.6055 26.9982H57.7893C59.9479 26.9982 59.9732 26.9982 60.2761 26.6857C60.4781 26.4982 60.5917 26.2232 60.5917 25.9982C60.5917 25.7607 60.4781 25.5106 60.2761 25.3106C59.9732 25.0106 59.8848 24.9981 58.5341 24.9981C57.7641 24.9981 56.8931 24.9231 56.6154 24.8481C56.3124 24.7481 55.858 24.4481 55.4793 24.0606C55.088 23.6856 54.785 23.2355 54.684 22.9355C54.6083 22.6605 54.5325 22.2355 54.5325 21.998C54.5325 21.7605 54.6083 21.3354 54.684 21.0604C54.785 20.7604 55.088 20.3104 55.4793 19.9354C55.858 19.5479 56.3124 19.2478 56.6154 19.1478C56.8931 19.0728 57.6 18.9978 58.1933 18.9978C59.0769 18.9853 59.3294 19.0353 59.6071 19.2478C59.8974 19.4479 59.9606 19.5979 59.9606 19.9979C59.9606 20.3979 59.8974 20.5479 59.6071 20.7479C59.3294 20.9604 59.0769 21.0104 58.2185 20.9979C57.2718 20.9979 57.1456 21.0229 56.8679 21.3104C56.6659 21.498 56.5523 21.773 56.5523 21.998C56.5523 22.2355 56.6659 22.4855 56.8679 22.6855C57.1708 22.9855 57.2592 22.998 58.5972 22.998C59.3799 22.998 60.2509 23.073 60.5286 23.148C60.8316 23.248 61.286 23.548 61.6647 23.9356C62.056 24.3106 62.359 24.7606 62.46 25.0606C62.5357 25.3356 62.6114 25.7607 62.6114 25.9982C62.6114 26.2357 62.5357 26.6607 62.46 26.9357C62.359 27.2357 62.056 27.6857 61.6647 28.0608C61.286 28.4483 60.8316 28.7483 60.5286 28.8483C60.2509 28.9233 59.2789 28.9983 58.3448 28.9983C57.4359 28.9983 56.6785 29.0358 56.6785 29.0858C56.6785 29.1483 56.8805 29.6608 57.1077 30.2484C57.3475 30.8359 57.6631 31.7859 57.8146 32.3735C57.9661 32.961 58.168 33.8861 58.269 34.4361C58.37 34.9861 58.4836 36.1987 58.5341 37.1237C58.572 38.1113 58.5467 39.3488 58.4584 40.1239C58.3826 40.8489 58.1933 41.9739 58.0544 42.624C57.9156 43.274 57.6379 44.3241 57.4233 44.9366C57.2213 45.5491 56.729 46.7117 56.3503 47.4992C55.959 48.2867 55.3278 49.4118 54.9491 49.9993C54.5578 50.5869 53.914 51.4494 53.5227 51.9369C53.1187 52.4244 52.2982 53.287 51.6797 53.8745C51.0611 54.462 50.1775 55.2246 49.7105 55.5621C49.2434 55.9121 48.3598 56.4746 47.7538 56.8372C47.1353 57.1997 46.5546 57.5622 46.4284 57.6497C46.3148 57.7372 45.772 59.1998 44.1815 64H34.3353V62.3124C34.3353 60.6748 34.3227 60.6123 33.7041 59.9998H24.8552L24.5523 60.3123C24.2493 60.6123 24.2367 60.6873 24.2367 64L14.34 63.9375L12.2193 55.0621L11.0201 53.937C10.3511 53.3245 9.44221 52.3619 9.00039 51.8119C8.55858 51.2619 7.8643 50.2993 7.4856 49.6868C7.09428 49.0743 6.50099 47.9992 6.1854 47.3117C5.8572 46.6242 5.42801 45.5866 5.23866 44.9991C5.04931 44.4116 4.84734 43.9115 4.79684 43.874C4.74635 43.8365 3.64813 43.5865 0 42.8115V33.186L2.29744 32.711C3.57239 32.4485 4.67061 32.186 4.74635 32.1485C4.82209 32.0985 5.04931 31.5859 5.23866 30.9984C5.42801 30.4109 5.8572 29.3733 6.1854 28.6858C6.50099 27.9983 7.09428 26.9232 7.4856 26.3107C7.8643 25.6982 8.55858 24.7356 9.00039 24.1856C9.44221 23.6356 10.3258 22.698 12.1183 20.9979V10.9974ZM16.1578 17.9978C16.1578 19.2978 16.1704 19.3853 16.4734 19.6854C16.6753 19.8854 16.9278 19.9979 17.1677 19.9979C17.4201 19.9979 17.6726 19.8854 17.8619 19.6854C18.1649 19.3978 18.1775 19.2853 18.1775 17.9978C18.1775 16.6977 18.1649 16.6102 17.8619 16.3102C17.66 16.1102 17.4075 15.9977 17.1677 15.9977C16.9152 15.9977 16.6627 16.1102 16.4734 16.3102C16.1957 16.5852 16.1704 16.7102 16.1578 17.9978ZM13.002 27.6857C12.6233 27.8858 12.0426 28.2983 11.727 28.6108C11.4114 28.9233 10.9696 29.5358 10.755 29.9609C10.5278 30.3984 10.288 31.1234 10.1996 31.5859C10.086 32.2485 10.086 32.636 10.1996 33.336C10.288 33.836 10.5152 34.5861 10.7298 34.9986C10.9318 35.4111 11.3862 36.0237 11.7396 36.3737C12.0805 36.7112 12.6359 37.1362 12.9641 37.2987C13.3049 37.4612 13.8856 37.6862 14.2643 37.7987C14.643 37.9112 15.2237 37.9987 15.5519 37.9987C15.8927 37.9987 16.4607 37.9362 16.8142 37.8612C17.1803 37.7862 17.8114 37.5612 18.2028 37.3612C18.6067 37.1612 19.2126 36.7112 19.5661 36.3737C19.9069 36.0237 20.3361 35.4611 20.5128 35.1236C20.6895 34.7736 20.9168 34.1736 21.0178 33.7735C21.1187 33.386 21.2071 32.7735 21.2071 32.436C21.2071 32.086 21.1314 31.5234 21.0304 31.1859C20.942 30.8359 20.7022 30.2484 20.5128 29.8734C20.3108 29.4983 19.8943 28.9233 19.5787 28.6108C19.2631 28.2983 18.6824 27.8858 18.3037 27.6857C17.925 27.4982 17.3191 27.2607 16.9783 27.1732C16.6249 27.0732 16.0316 27.0107 15.6529 27.0107C15.2742 27.0107 14.6682 27.0857 14.3274 27.1732C13.974 27.2607 13.3807 27.4857 13.002 27.6857ZM28.5917 28.3108C28.415 28.4858 28.2888 28.7608 28.2761 28.9983C28.2761 29.2358 28.3897 29.4858 28.5917 29.6858L28.9073 29.9984H45.8351C46.34 29.4983 46.4537 29.2233 46.4537 28.9983C46.4537 28.7608 46.34 28.5108 46.1381 28.3108L45.8225 27.9983H28.8947L28.5917 28.3108ZM63.028 18.9978C63.1795 18.9978 63.4572 19.1103 63.6592 19.2478C63.9369 19.4479 64 19.5979 64 19.9979C64 20.3979 63.9369 20.5604 63.6592 20.7604C63.4572 20.8979 63.1795 21.0104 63.028 21.0104C62.8639 21.0104 62.5988 20.8729 62.4095 20.7229C62.1949 20.5229 62.0939 20.3104 62.0813 19.9979C62.0813 19.6729 62.157 19.4979 62.4095 19.2853C62.5988 19.1353 62.8765 18.9978 63.028 18.9978ZM15.1479 30.9984C15.3878 30.9984 15.6402 31.1234 15.8422 31.3109C16.0442 31.5109 16.1578 31.7734 16.1578 31.9985C16.1578 32.236 16.0442 32.4985 15.8548 32.686C15.6529 32.886 15.4004 32.9985 15.1606 32.9985C14.9081 32.9985 14.6556 32.886 14.4536 32.686C14.2517 32.486 14.1381 32.2485 14.1507 31.9985C14.1507 31.7734 14.2769 31.4984 14.4536 31.3109C14.643 31.1234 14.9081 30.9984 15.1479 30.9984Z" fill="#747474"/>
<path fill-rule="evenodd" clip-rule="evenodd" d="M34.0355 0.0320328C35.0959 0.0445334 35.9669 0.132038 36.497 0.282045C36.9515 0.39455 37.7972 0.719566 38.3905 0.994579C38.9838 1.26959 39.615 1.60711 39.817 1.74462C40.1578 1.98213 40.1578 1.98213 40.4986 1.74462C40.7006 1.60711 41.3318 1.26959 41.925 0.994579C42.5183 0.719566 43.3641 0.39455 43.8185 0.282045C44.2982 0.157039 45.2702 0.0445334 46.1538 0.0195322C47.4036 -0.0304702 47.858 0.00703159 48.7416 0.232042C49.3349 0.38205 50.1554 0.644562 50.572 0.819571C50.9886 0.994579 51.6955 1.3696 52.1499 1.66961C52.6043 1.95713 53.286 2.49465 53.6647 2.88217C54.0434 3.25719 54.5862 3.89472 54.8639 4.30724C55.1416 4.70726 55.4951 5.38229 55.6592 5.79481C55.8359 6.20733 56.0505 6.90737 56.1389 7.35739C56.2398 7.80741 56.3156 8.53244 56.3156 8.98246C56.3156 9.43249 56.2272 10.195 56.1262 10.67C56.0126 11.1451 55.6844 12.0451 55.3815 12.6701C55.0911 13.2952 54.4978 14.2452 54.0813 14.7952C53.6521 15.3453 52.8063 16.2703 52.2004 16.8578C51.5819 17.4454 50.5089 18.3454 49.8146 18.8579C49.1203 19.383 47.9337 20.1705 47.1637 20.633C46.3937 21.083 45.2323 21.7456 44.5759 22.0831C43.9195 22.4331 42.7077 23.0081 41.8872 23.3582C41.0793 23.6957 40.3093 23.9832 40.183 23.9832C40.0694 23.9832 39.6276 23.8457 39.211 23.6832C38.7945 23.5207 37.8604 23.1081 37.1282 22.7706C36.3961 22.4331 35.1842 21.7956 34.4142 21.3706C33.6442 20.933 32.5081 20.233 31.8895 19.8205C31.271 19.408 30.2359 18.6704 29.6174 18.1704C28.9988 17.6704 28.0521 16.8203 27.5345 16.2828C27.0043 15.7328 26.3227 14.9328 25.9945 14.4827C25.6663 14.0327 25.1866 13.1952 24.9089 12.6076C24.6312 12.0201 24.3156 11.1326 24.202 10.6325C24.0884 10.145 24 9.38248 24 8.95746C24 8.51994 24.0884 7.80741 24.1767 7.35739C24.2777 6.90737 24.4671 6.23233 24.6185 5.85731C24.7574 5.4823 25.0982 4.84477 25.3507 4.45725C25.6158 4.05723 26.1712 3.3947 26.5878 2.96967C27.0043 2.54465 27.5724 2.04463 27.8501 1.85712C28.1278 1.66961 28.759 1.30709 29.2387 1.06958C29.7183 0.819571 30.6398 0.482055 31.2584 0.307046C32.2556 0.0320328 32.6091 -0.00546901 34.0355 0.0320328ZM28.9862 4.91977C28.5949 5.29479 28.2919 5.74481 28.1909 6.04482C28.1152 6.31984 28.0394 6.76986 28.0394 7.04487C28.0394 7.31989 28.1783 7.81991 28.3298 8.16993C28.4939 8.50744 28.86 8.99497 29.1377 9.23248C29.4154 9.46999 29.8698 9.745 30.1349 9.82001C30.4 9.90751 30.8292 9.98251 31.069 9.98251C31.3089 9.98251 31.7381 9.90751 32.0158 9.83251C32.3187 9.7325 32.7732 9.43249 33.1519 9.04497C33.5432 8.66995 33.8462 8.21993 33.9471 7.91991C34.0229 7.6449 34.0986 7.21988 34.0986 6.98237C34.0986 6.74486 34.0229 6.31984 33.9471 6.04482C33.8462 5.74481 33.5432 5.29479 33.1519 4.91977C32.7732 4.53225 32.3187 4.23224 32.0158 4.13223C31.7381 4.05723 31.2836 3.99472 31.0059 3.99472C30.7282 4.00722 30.299 4.06973 30.0592 4.14473C29.8193 4.21974 29.327 4.56975 28.9862 4.91977ZM35.5124 10.8076C35.2347 11.1826 35.1716 11.4076 35.1716 11.9951C35.1716 12.5326 35.2347 12.8077 35.4367 13.0702C35.5882 13.2577 35.8659 13.5327 36.0426 13.6702C36.2951 13.8577 36.5854 13.9202 37.1282 13.9202C37.671 13.9202 37.9613 13.8577 38.2138 13.6702C38.3905 13.5327 38.6682 13.2577 38.8197 13.0702C39.0217 12.7951 39.0848 12.5326 39.0848 11.9826C39.0848 11.4326 39.0217 11.1701 38.8197 10.8951C38.6682 10.7075 38.4158 10.445 38.2517 10.32C38.0876 10.195 37.6584 10.0575 37.3176 10.0325C36.9389 9.99501 36.5223 10.045 36.2698 10.1575C36.0426 10.2575 35.7018 10.545 35.5124 10.8076Z" fill="#FF652F"/>
</svg>
