<svg width="300" height="600" viewBox="0 0 300 600" fill="none" xmlns="http://www.w3.org/2000/svg">
<path d="M104.089 419.491C101.039 419.876 98.3545 420.91 95.9802 422.628C88.419 428.114 87.3962 438.84 93.8068 445.641C97.0943 449.164 102.153 451.109 107.103 450.794C114.518 450.303 120.764 444.852 122.079 437.771C122.408 436.018 122.225 432.566 121.714 430.866C120.855 427.939 118.682 424.784 116.216 422.856C114.828 421.752 111.87 420.314 110.244 419.929C109.13 419.666 106.208 419.28 105.642 419.315C105.496 419.333 104.802 419.42 104.089 419.491ZM107.358 420.262C112.381 421.173 116.49 424.188 118.719 428.587C120.6 432.303 120.746 436.684 119.139 440.681C117.696 444.274 114.335 447.551 110.555 449.058C106.938 450.496 103.304 450.478 99.7608 449.006C97.77 448.182 96.455 447.306 94.6834 445.588C90.5011 441.574 89.0947 435.703 91.0124 430.252C92.8388 425.117 97.2952 421.366 102.902 420.262C104.491 419.946 105.696 419.946 107.358 420.262ZM117.057 424.503C118.956 426.256 120.454 428.762 121.184 431.409C121.75 433.477 121.75 436.842 121.184 438.84C120.399 441.627 118.627 444.431 116.563 446.131C114.938 447.481 114.5 447.726 115.723 446.622C117.714 444.799 119.504 441.96 120.289 439.331C120.654 438.139 120.709 437.561 120.709 434.984C120.709 432.092 120.691 431.952 120.125 430.392C119.796 429.498 119.285 428.307 118.992 427.746C118.445 426.694 116.545 424.275 115.924 423.82C115.742 423.697 115.431 423.399 115.23 423.171L114.865 422.733L115.413 423.101C115.723 423.311 116.454 423.942 117.057 424.503Z" fill="#FFE400"/>
<path d="M101.076 434.02H99.2494V435.756L100.126 435.808L100.984 435.861L101.094 438.227H99.2494V439.979H101.076V443.66H103.45V439.979H108.747V438.227H103.432L103.541 435.861L106.098 435.756C109.075 435.633 110.299 435.282 111.431 434.231C112.564 433.179 112.856 432.425 112.856 430.603C112.856 429.253 112.801 428.92 112.399 428.237C112.144 427.816 111.596 427.202 111.157 426.887C109.861 425.94 108.911 425.765 104.783 425.66L101.076 425.555V434.02ZM109.002 427.991C110.189 428.587 110.482 429.095 110.482 430.655C110.482 431.794 110.409 432.092 110.062 432.583C109.294 433.617 108.418 433.898 105.788 433.985L103.45 434.055V427.5L105.879 427.57C107.888 427.606 108.418 427.676 109.002 427.991Z" fill="#FFE400"/>
<path fill-rule="evenodd" clip-rule="evenodd" d="M125.636 431.173L125.363 430.752C125.31 430.795 125.294 430.738 125.294 430.507C125.294 430.507 124.969 429.421 124.799 429.185C124.763 429.135 124.695 428.92 124.593 428.601C124.324 427.756 123.822 426.18 123.079 425.022C120.212 420.447 115.207 417.029 109.801 415.943C106.843 415.347 102.77 415.294 99.7746 415.837C95.5922 416.591 91.6472 418.624 88.9442 421.411C84.7983 425.635 83.0815 429.596 83.0815 434.942C83.0815 438.5 83.7573 441.111 85.5654 444.354C86.6247 446.282 87.6657 447.561 89.6564 449.349C90.2278 449.864 91.1351 450.585 91.7344 451.062C92.0929 451.347 92.3412 451.544 92.3412 451.557L93.7841 452.258C96.7793 453.678 99.2084 454.291 102.733 454.484C105.235 454.624 108.87 454.344 110.715 453.888C110.876 453.848 111.056 453.797 111.235 453.747C111.575 453.651 111.913 453.556 112.118 453.534L113.43 453.115C114.118 452.722 114.265 452.617 114.339 452.565C114.352 452.556 114.363 452.548 114.374 452.541C114.425 452.507 114.482 452.48 114.805 452.329L114.806 452.328C116.742 451.382 118.769 449.997 120.066 448.718C122.075 446.702 124.485 442.706 125.125 440.287C125.234 439.849 125.362 439.499 125.399 439.499L125.654 438.657L125.855 436.8C126.02 435.415 126.02 434.468 125.855 433.049L125.636 431.173ZM109.345 416.451C116.449 417.748 122.221 422.708 124.449 429.421C125.088 431.331 125.289 432.733 125.289 435.117C125.289 438.57 124.412 441.567 122.495 444.687C121.216 446.79 117.984 449.91 115.828 451.137C107.902 455.641 97.9664 454.414 91.6655 448.139C87.8118 444.301 86.0402 440.165 86.022 434.942C86.022 427.125 91.0993 420.079 98.8066 417.292C101.784 416.205 106.13 415.872 109.345 416.451ZM96.4323 417.59C95.2817 418.168 95.1538 418.204 95.1538 417.888C95.1538 417.765 95.5922 417.538 96.1218 417.397C97.4916 416.977 97.5646 417.012 96.4323 417.59ZM94.2224 418.764C94.2224 418.852 93.8023 419.203 93.3092 419.571C92.4873 420.184 92.3777 420.202 92.1038 419.956C91.7933 419.641 91.7933 419.641 92.6334 419.062C93.1996 418.677 94.2589 418.484 94.2224 418.764ZM91.7385 420.552C91.8298 420.57 91.428 421.06 90.8619 421.656C89.4008 423.216 88.378 424.618 87.41 426.441C86.9534 427.3 86.5881 427.913 86.5699 427.791C86.5699 427.668 86.3142 427.58 85.9306 427.58C85.5836 427.58 85.2914 427.528 85.2914 427.458C85.2914 427.388 85.5654 426.827 85.8941 426.196C86.3142 425.39 86.6247 425.004 86.9899 424.881C87.3917 424.741 87.4831 424.618 87.41 424.32C87.337 424.058 87.5196 423.672 88.0492 423.041C88.6519 422.322 88.9076 422.147 89.346 422.147C89.8391 422.147 89.8939 422.095 89.7843 421.726C89.6382 421.183 90.5696 420.359 91.1906 420.465C91.4098 420.517 91.6655 420.552 91.7385 420.552ZM86.4786 428.579C86.1498 429.333 85.6384 431.664 85.474 433.224C84.9079 438.535 87.0265 444.441 90.8801 448.262C91.5194 448.911 91.9942 449.489 91.9211 449.542C91.6472 449.822 90.8253 449.612 90.2774 449.138C89.6016 448.56 89.5469 448.437 89.9487 448.437C90.0948 448.437 90.2226 448.315 90.2226 448.175C90.2226 447.999 90.04 447.912 89.6199 447.912C89.1816 447.912 88.8711 447.754 88.451 447.333C87.0995 445.984 85.3645 443.057 84.5609 440.813C84.0677 439.446 84.086 439.323 84.7435 439.323C85.1088 439.323 85.2914 439.236 85.2914 439.061C85.2914 438.885 85.1088 438.798 84.6704 438.798C84.1408 438.798 84.0312 438.727 83.9399 438.307C83.7207 437.325 83.5929 434.451 83.7207 433.136L83.8668 431.787H84.4878C84.9261 431.787 85.1088 431.699 85.1088 431.524C85.1088 431.366 84.9444 431.261 84.6704 431.261C84.0495 431.261 84.0129 431.138 84.2869 430.122C84.78 428.334 84.8166 428.281 85.7663 428.281C86.4968 428.281 86.5881 428.317 86.4786 428.579ZM93.5466 450.576C94.0215 450.891 94.4233 451.207 94.4233 451.277C94.4233 451.592 93.5284 451.364 92.6882 450.856C91.8846 450.383 91.8298 450.295 92.1403 450.173C92.3412 450.102 92.5421 450.032 92.5786 450.032C92.626 450.017 92.9458 450.211 93.3498 450.456L93.4822 450.537L93.5466 450.576ZM96.4323 452.293C97.1446 452.661 97.3272 452.802 97.035 452.819C96.5601 452.819 94.9712 452.118 94.9712 451.908C94.9712 451.662 95.4095 451.768 96.4323 452.293Z" fill="#FFE400"/>
<path fill-rule="evenodd" clip-rule="evenodd" d="M165.905 353.923C165.247 346.562 167.548 339.954 171.238 338.587C173.283 337.833 175.877 338.236 178.141 339.639C180.516 341.111 184.497 345.352 185.83 347.824C186.086 348.279 186.634 349.208 187.072 349.909C189.081 353.152 191.401 358.795 192.552 363.317C194.031 368.996 194.451 373.343 194.031 378.268C193.629 382.842 191.766 386.768 189.447 387.925C189.154 388.065 188.917 388.276 188.917 388.398C188.917 388.609 190.177 392.587 192.661 400.264C195.419 408.835 200.314 425.923 202.797 435.668C206.596 450.584 209.592 464.22 210.907 472.633C211.327 475.227 211.564 476.05 211.838 475.77C211.948 475.665 212.331 434.179 212.258 429.376L212.203 425.818L211.473 425.538C210.432 425.152 209.062 424.171 207.984 423.049C202.067 416.88 198.286 400.825 199.126 385.366C199.346 381.388 199.766 376.883 200.076 375.113C201.263 368.33 203.729 361.302 206.103 357.902C208.934 353.835 211.619 352.258 214.815 352.749C216.495 353.012 217.536 353.572 219.144 355.132C222.522 358.375 225.152 364.281 226.796 372.309C227.837 377.321 227.928 377.952 228.294 383.351C229.316 398.319 226.467 413.304 221.153 420.946C218.943 424.118 217.08 425.485 214.431 425.888L213.08 426.099L212.952 438.648C212.879 445.536 212.751 456.893 212.66 463.887C212.496 476.155 212.496 476.594 212.824 476.944C213.372 477.488 213.902 478.592 214.231 479.836C214.468 480.747 214.505 481.484 214.431 483.517C214.322 486.304 214.03 487.653 212.97 490.282L212.331 491.877L212.222 508.335C212.167 517.379 212.057 526.16 212.002 527.807V530.912H211.202L211.454 519.307C211.488 515.384 211.536 510.667 211.577 506.708L211.577 506.678C211.602 504.263 211.623 502.133 211.637 500.641C211.692 496.714 211.674 493.507 211.582 493.507C211.509 493.507 211.308 493.787 211.126 494.138C210.76 494.892 207.692 499.624 207.035 500.465C206.775 500.807 206.67 500.947 206.706 501.004C206.73 501.044 206.823 501.044 206.98 501.044H207.363L207.266 530.912H206.392L206.633 516.029C206.633 507.879 206.596 501.219 206.578 501.219C206.542 501.219 205.939 502.025 205.263 503.007C204.569 504.006 203.492 505.513 202.852 506.354L201.702 507.897V530.912H200.707L200.971 520.06C200.971 514.136 200.935 509.281 200.898 509.281C200.807 509.281 198.359 513.418 197.592 514.89C197.209 515.608 196.387 517.466 195.729 519.009C194.159 522.794 192.734 525.091 190.743 527.001C189.538 528.158 188.844 528.666 187.73 529.192C186.36 529.84 186.196 529.875 184.534 529.875C182.945 529.875 182.689 529.823 181.612 529.314C180.954 528.999 179.986 528.438 179.475 528.053C179.214 527.861 179.024 527.722 178.882 527.63V526.815L179.603 527.334C180.059 527.72 180.954 528.28 181.612 528.596C182.689 529.122 182.927 529.174 184.534 529.174C186.123 529.174 186.378 529.122 187.456 528.613C190.469 527.194 193.008 523.881 195.218 518.483C197.136 513.768 200.113 508.913 206.176 500.518C210.359 494.751 212.897 489.826 213.664 485.953C213.993 484.2 214.011 481.273 213.683 480.099C213.153 478.189 212.039 476.734 210.231 475.612C208.35 474.438 208.112 474.49 204.441 476.804C196.387 481.904 190.597 489.739 187.803 499.308C187.292 501.061 187.164 501.342 186.871 501.254C186.793 501.236 186.73 501.222 186.689 501.185C186.526 501.045 186.675 500.573 187.401 498.274C190.488 488.372 196.862 480.309 205.592 475.297C206.468 474.788 207.181 474.35 207.181 474.315C207.181 474.28 206.468 474.14 205.592 474C203.455 473.649 200.935 473.544 198.633 473.719C196.113 473.894 195.291 474.087 193.319 474.911C185.739 478.031 179.603 484.726 175.858 493.928C175.782 494.113 175.631 494.88 175.467 495.722C175.212 497.022 174.922 498.499 174.817 498.274C174.644 497.904 175.034 495.647 175.034 495.647C175.058 495.626 175.2 494.899 175.317 494.305C175.391 493.928 175.455 493.605 175.471 493.548C175.635 492.9 177.502 488.775 178.269 487.495C181.557 482.08 186.141 477.68 191.109 475.209C193.556 473.982 195.108 473.421 196.46 473.264C197.026 473.193 197.501 473.088 197.501 473.053C197.501 472.755 196.223 470.757 195.62 470.091C193.666 467.953 190.122 466.41 186.269 465.99C185.374 465.902 183.566 465.815 182.251 465.815H179.895L180.735 466.638C181.721 467.602 182.141 468.566 182.287 470.196C182.58 473.684 179.968 478.189 174.817 483.026C174.186 483.619 173.631 484.212 173.369 484.55L173.008 483.714C173.752 483.009 176.836 480.077 177.685 479.047C179 477.47 180.333 475.349 180.972 473.789C181.648 472.177 181.812 469.881 181.338 468.671C180.972 467.76 179.968 466.621 179.219 466.235L179.16 466.206C178.982 466.118 178.862 466.058 178.735 466.035C178.476 465.988 178.186 466.091 177.305 466.405L177.046 466.498C173.703 467.707 169.174 469.916 165.722 472.037L164.708 472.662L163.959 472.299L166.033 471.055C168.626 469.495 173.557 467.077 175.986 466.165C176.863 465.85 177.539 465.534 177.502 465.464C177.447 465.394 176.954 465.254 176.37 465.149C174.763 464.851 172.023 464.763 170.379 464.956C166.964 465.359 162.069 466.708 158.417 468.251C157.467 468.671 156.535 469.04 156.371 469.092L154.919 469.041C155.151 468.953 155.401 468.839 155.714 468.689C157.978 467.585 161.357 466.358 163.969 465.639C168.352 464.465 169.284 464.325 172.936 464.325C176.005 464.325 176.297 464.36 177.32 464.745C178.342 465.149 178.635 465.184 182.159 465.201C187.2 465.236 189.848 465.762 192.825 467.304C195.218 468.549 196.606 469.916 197.848 472.247L198.232 473.001H199.693C200.496 473.001 201.154 472.948 201.154 472.86C201.154 472.83 201.137 472.589 201.11 472.21L201.11 472.209C201.074 471.715 201.023 470.99 200.971 470.196C200.314 460.837 196.022 452.336 188.88 446.237C187.766 445.291 186.104 444.029 185.173 443.433C183.621 442.451 180.096 440.628 178.507 439.997L177.867 439.752V441.435C177.867 442.977 177.813 443.205 177.32 444.046C175.639 446.991 170.818 449.199 164.444 449.953C160.48 450.408 154.782 450.286 149.778 449.602C143.495 448.743 136.299 446.412 131.66 443.766C130.181 442.925 127.149 440.681 126.473 439.945C126.322 439.783 126.18 439.637 126.067 439.531L126.291 438.729L126.839 439.331C129.669 442.416 135.605 445.518 142.198 447.341C147.751 448.866 152.864 449.567 158.599 449.567C162.763 449.585 164.261 449.444 167.603 448.796C171.95 447.937 175.548 445.957 176.68 443.801C177.21 442.802 177.411 440.699 177.046 439.892C176.79 439.279 176.644 439.209 173.247 438.227C168.736 436.93 163.95 436.124 158.234 435.703C156.864 435.616 156.499 435.528 156.499 435.318C156.499 435.02 157.759 435.02 161.247 435.335C166.307 435.791 172.973 437.158 176.023 438.385C176.626 438.63 176.023 437.807 174.507 436.317C169.904 431.742 160.042 427.957 149.833 426.835C144.901 426.291 139.641 426.344 135.77 426.993C132.099 427.606 128.555 428.938 126.857 430.358L126.236 430.884L125.934 430.437C126.052 430.281 126.234 430.048 126.51 429.849C128.208 428.605 131.77 427.15 134.4 426.624C136.281 426.239 140.335 425.853 142.491 425.853C148.025 425.853 152.864 426.449 158.818 427.886C166.854 429.814 174.598 434.196 176.863 438.105C177.301 438.841 177.447 438.946 179.511 439.787C186.871 442.819 193.154 448.27 196.953 454.948C199.747 459.873 201.099 464.325 201.519 470.021C201.647 471.511 201.775 472.79 201.811 472.86C201.866 472.948 202.213 473.001 202.597 473.001C204.35 473.001 207.875 473.772 209.519 474.525C210.048 474.771 210.541 474.929 210.596 474.858C210.834 474.648 209.683 469.302 208.989 467.304C208.003 464.553 205.172 457.7 203.565 454.159C199.638 445.501 192.953 434.038 187.894 427.291C187.876 427.255 187.438 427.501 186.926 427.834C182.452 430.796 173.813 429.113 165.302 423.645C163.713 422.611 161.741 421.296 160.9 420.7C154.252 416.003 146.929 407.573 143.513 400.702C141.285 396.198 140.628 393.656 140.737 390.046C140.792 387.785 140.81 387.697 141.523 386.278C142.965 383.316 145.376 382.036 149.486 382.036C154.417 382.036 160.225 384.174 166.654 388.381C170.288 390.747 171.95 392.044 174.836 394.743C179.365 398.985 182.379 402.543 185.082 406.837C189.94 414.531 191.31 420.893 189.063 425.31C188.588 426.256 188.387 426.87 188.479 426.993C188.57 427.115 189.757 428.815 191.127 430.778C197.154 439.472 203.309 451.057 207.181 460.942C208.258 463.729 208.971 465.149 208.733 464.062C208.696 463.893 208.554 463.17 208.375 462.251L208.372 462.237L208.362 462.183L208.229 461.504L208.112 460.907C206.432 452.407 202.049 434.599 198.761 422.961C195.985 413.146 193.903 406.311 188.862 390.309L188.296 388.521H186.543C185.173 388.521 184.607 388.433 183.803 388.118C180.059 386.646 175.749 382.036 172.498 376.077C168.882 369.434 166.599 361.74 165.905 353.923ZM219.073 530.912H217.324L217.518 470.109L218.011 465.99C219.436 453.739 222.321 442.399 226.997 430.498C227.253 429.814 228.221 427.624 229.134 425.608C230.266 423.154 230.741 421.892 230.631 421.734C228.33 418.79 227.673 416.319 227.874 411.569C228.367 400.807 236.074 385.945 247.288 374.114C249.315 371.993 252.548 369.066 254.301 367.787C258.484 364.737 262.301 362.616 265.442 361.6C266.903 361.127 267.159 361.091 270.026 361.091H273.04L274.209 361.687C274.848 362.003 275.706 362.546 276.126 362.879C279.633 365.754 280.199 373.22 277.569 382.001C275.962 387.364 272.054 395.076 268.182 400.562C261.095 410.552 252.822 418.212 245.261 421.752C239.946 424.223 236.001 424.644 232.714 423.084L231.307 422.418L230.394 424.276C226.467 432.268 222.102 445.711 220.166 455.824C219.618 458.716 218.87 463.483 218.87 464.027C218.87 464.185 219.509 463.133 220.294 461.696C222.486 457.647 223.783 455.824 226.942 452.389C229.152 449.97 230.613 448.656 233.499 446.43C236.476 444.134 237.17 443.661 239.763 442.153C242.302 440.699 244.768 439.472 245.827 439.174C246.43 438.998 246.649 438.806 247.087 438.07C247.872 436.72 250.484 434.301 252.475 433.039C257.205 430.095 264.127 427.711 271.305 426.572C280.51 425.117 290.573 425.976 295.577 428.623C296.965 429.359 298.682 430.866 299.303 431.9C300.362 433.618 300.198 435.966 298.92 438.017C294.628 444.817 279.56 450.286 265.259 450.233C260.036 450.216 257.534 449.865 253.479 448.638C248.292 447.043 245.407 444.029 246.028 440.786C246.137 440.243 246.192 439.752 246.174 439.735C246.046 439.612 241.279 441.996 239.544 443.047C230.704 448.393 223.216 456.28 220.057 463.624L219.899 463.983C219.178 465.629 219.145 465.704 218.632 466.393C218.322 466.814 218.285 467.462 218.212 475.139C218.157 482.465 218.176 483.271 218.395 482.027C218.851 479.363 219.217 478.82 221.153 477.978C222.705 477.295 225.39 477.172 227.253 477.715C227.947 477.926 228.586 478.171 228.641 478.259C228.714 478.364 229.006 478.329 229.426 478.154C231.983 477.084 234.558 476.769 238.667 477.049C244.895 477.452 250.996 479.205 258.027 482.588C266.319 486.566 273.442 492.613 275.505 497.398C276.181 498.975 276.437 500.746 276.199 502.078C275.305 506.757 268.291 508.615 258.611 506.722C244.201 503.918 229.426 494.506 226.285 486.163C225.353 483.692 225.737 481.326 227.307 479.731L228.239 478.784L227.399 478.434C226.193 477.926 224.166 477.803 222.723 478.154C221.079 478.557 220.166 479.082 219.509 480.011L218.961 480.8L218.888 493.507C218.87 500.5 218.888 511.753 218.961 518.518L219.073 530.912ZM191.456 361.845C188.241 350.908 181.758 341.461 175.968 339.271C174.653 338.78 172.991 338.675 171.895 339.008C170.124 339.551 168.242 341.812 167.475 344.336C164.553 353.905 168.736 371.047 176.443 380.984C179.931 385.471 183.219 387.785 186.36 387.96C187.164 388.013 187.821 387.96 187.876 387.873C188.004 387.68 187.858 387.224 184.497 377.356C183.164 373.465 182.141 370.258 182.214 370.188C182.58 369.837 182.981 370.679 184.442 374.973L184.932 376.424L184.933 376.426C186.77 381.865 187.943 385.34 188.296 386.453C188.479 387.014 188.698 387.469 188.771 387.469C189.1 387.469 190.195 386.628 190.762 385.962C192.606 383.754 193.538 380.126 193.538 375.201C193.538 370.784 192.917 366.77 191.456 361.845ZM227.727 383.438C226.632 368.225 222.047 356.429 216.221 353.8C213.628 352.644 211.308 353.169 208.898 355.5C204.624 359.584 201.446 368.453 200.113 379.968C199.784 382.86 199.656 392.973 199.912 396.32C200.697 406.346 203.345 415.618 206.907 420.665C208.039 422.278 208.587 422.874 209.738 423.768C210.651 424.486 212.094 425.222 212.258 425.082C212.349 424.977 213.19 397.81 213.482 384.928C213.664 377.076 213.774 375.464 214.121 375.464C214.358 375.464 214.395 375.884 214.34 378.443C214.267 382.001 213.263 418.615 213.116 422.593L213.025 425.38L214.176 425.292C217.664 425.012 220.988 421.419 223.582 415.074C224.477 412.866 224.732 412.095 225.426 409.448C226.449 405.522 227.271 400.72 227.545 397.022L227.568 396.736L227.597 396.383C227.651 395.726 227.7 395.131 227.727 394.918C227.855 394.095 227.837 385.103 227.727 383.438ZM277.496 365.789C276.583 363.843 274.647 362.231 272.656 361.74C270.191 361.144 267.597 361.46 264.109 362.792C259.379 364.614 253.954 368.453 248.548 373.816C239.088 383.193 231.362 396.426 229.097 407.064C228.275 411.026 228.312 415.372 229.207 417.914C229.7 419.333 230.887 421.244 231.125 420.998C231.198 420.928 232.056 419.333 233.024 417.475C236.987 409.781 241.845 402.052 247.233 394.848C250.995 389.818 256.548 383.193 256.913 383.316C257.351 383.456 257.187 383.806 256.018 385.103C250.429 391.43 244.475 399.44 239.873 406.837C237.298 411.008 236.129 413.059 233.663 417.756C233.502 418.065 233.353 418.35 233.215 418.614C232.083 420.775 231.713 421.483 231.937 421.882C232.047 422.076 232.297 422.197 232.669 422.376C232.762 422.421 232.862 422.469 232.969 422.523C238.43 425.31 248.238 421.104 257.717 411.884C265.789 404.05 272.382 394.147 276.126 384.245C277.423 380.792 278.19 377.584 278.592 373.991C278.921 371.064 278.501 367.927 277.496 365.789ZM176.132 396.864C168.845 389.678 160.462 384.613 153.12 383.018C151.549 382.667 148.719 382.544 147.458 382.755C145.139 383.14 143.002 384.63 142.107 386.47C140.463 389.801 141.267 394.988 144.353 400.93C146.783 405.575 150.161 409.991 154.764 414.531C160.681 420.367 167.037 424.626 173.429 427.063C179.055 429.201 184.881 429.148 186.981 426.922L187.019 426.883C187.096 426.804 187.157 426.741 187.186 426.667C187.291 426.393 186.956 425.962 185.379 423.939L185.027 423.487C181.191 418.597 176.973 413.9 172.534 409.553C170.069 407.152 169.612 406.574 170.16 406.574C170.489 406.574 176.224 412.182 178.744 414.952C181.027 417.44 184.187 421.244 186.36 424.083L187.876 426.064L188.223 425.66C188.753 424.977 189.301 423.4 189.447 422.085C190.195 415.53 184.936 405.557 176.132 396.864ZM298.828 432.426C297.111 429.254 291.724 427.08 284.254 426.554C273.204 425.766 259.671 428.938 252.11 434.073C250.411 435.213 247.726 437.824 247.726 438.315C247.726 438.385 248.439 438.21 249.333 437.929C253.114 436.702 258.301 435.703 263.031 435.3C265.004 435.125 265.68 435.125 265.844 435.283C266.118 435.546 265.314 435.844 264.291 435.844C263.141 435.844 259.214 436.334 257.041 436.737C252.164 437.649 247.452 439.033 247.014 439.682C246.576 440.33 246.612 442.732 247.069 443.555C248.694 446.447 252.694 448.358 259.05 449.287C261.862 449.69 268.401 449.69 271.761 449.287C284.966 447.692 296.198 442.486 298.92 436.72C299.486 435.493 299.449 433.565 298.828 432.426ZM269.698 491.036C262.575 484.551 250.941 479.205 240.95 477.821C238.887 477.54 234.503 477.488 233.115 477.75C231.946 477.961 230.193 478.469 230.193 478.609C230.193 478.662 231.143 478.995 232.293 479.363C233.444 479.713 235.325 480.362 236.494 480.783C240.147 482.167 246.576 485.357 246.758 485.9C246.904 486.339 246.283 486.268 245.443 485.76C242.156 483.797 236.914 481.519 232.714 480.222L232.259 480.081L232.022 480.007C229.803 479.317 229.196 479.128 228.768 479.316C228.606 479.387 228.47 479.511 228.282 479.682C228.23 479.73 228.173 479.781 228.111 479.836C226.12 481.606 225.901 484.218 227.472 487.25C232.056 495.978 248.439 505.162 262.155 506.67C264.529 506.933 268.766 506.775 270.264 506.389C272.875 505.706 274.83 504.251 275.396 502.604C275.633 501.955 275.688 501.324 275.633 500.343C275.56 499.151 275.432 498.765 274.61 497.17C273.533 495.049 272.017 493.157 269.698 491.036ZM218.23 509.807C218.23 521.322 218.249 526.037 218.267 520.271C218.303 514.522 218.303 505.092 218.267 499.326C218.249 493.577 218.23 498.292 218.23 509.807Z" fill="#14A76C"/>
<path d="M67.6532 374.429C65.1876 374.587 63.0872 375.13 60.8043 376.164C55.8548 378.443 52.0925 382.421 50.3209 387.259C49.4077 389.783 49.152 391.5 49.2616 394.41C49.3529 397.354 49.7364 399.019 50.8871 401.596C51.9098 403.839 53.0056 405.399 54.9233 407.327C59.5989 411.972 65.9729 413.952 73.7167 413.146C79.6707 412.515 84.9855 409.535 88.5104 404.838C90.1176 402.7 91.5604 399.037 91.9257 396.162C92.1448 394.585 91.9622 391.22 91.5787 389.59C90.7751 386.067 88.7661 382.597 86.0082 379.95C84.5106 378.495 82.0633 376.795 81.2049 376.585C80.9309 376.532 80.5108 376.339 80.2551 376.164C79.6159 375.726 76.7668 374.832 75.3239 374.622C73.5889 374.376 69.8448 374.289 67.6532 374.429ZM75.7075 375.305C83.36 376.813 89.4783 382.632 91.049 389.923C91.4326 391.746 91.5239 395.286 91.1951 396.969C90.081 402.945 86.1178 407.975 80.3465 410.762C74.9039 413.374 67.9089 413.251 62.5576 410.429C57.6629 407.853 54.2293 403.681 52.75 398.528C52.2934 396.933 52.2386 396.495 52.2386 393.796C52.2386 391.115 52.2934 390.641 52.7317 389.064C54.2293 383.753 58.2473 379.056 63.2516 376.76C67.0505 375.042 71.6164 374.517 75.7075 375.305ZM62.6672 376.357C61.5531 376.918 61.0234 377.04 61.407 376.655C61.6261 376.462 63.1603 375.866 63.5438 375.849C63.6534 375.849 63.2516 376.077 62.6672 376.357ZM60.3477 377.549C60.3477 377.829 58.5396 378.986 58.2473 378.881C57.7907 378.706 57.9369 378.39 58.7587 377.899C59.5075 377.461 60.3477 377.268 60.3477 377.549ZM56.841 380.704C55.4895 382.036 54.1928 383.858 53.4257 385.524L52.9143 386.628L52.1473 386.558C51.7455 386.523 51.3984 386.4 51.3984 386.312C51.3984 386.207 51.7089 385.576 52.0742 384.928C52.6221 383.946 52.8413 383.718 53.1883 383.718C53.5718 383.718 53.6266 383.648 53.5353 383.227C53.4622 382.859 53.5901 382.579 54.1015 381.966C54.9051 381.002 55.0329 380.914 55.5808 380.914C55.9278 380.914 55.9826 380.844 55.8913 380.493C55.8183 380.178 55.8913 380.003 56.2931 379.757C56.8958 379.354 57.6446 379.179 57.8638 379.372C57.9734 379.442 57.5351 380.02 56.841 380.704ZM52.5856 387.434C51.8002 389.87 51.7089 390.501 51.6907 393.709C51.6724 397.284 51.855 398.248 53.0422 401.245C53.7545 402.998 55.7452 405.89 57.1333 407.204C57.6994 407.73 58.156 408.221 58.156 408.291C58.156 408.624 57.0054 408.396 56.4027 407.94C55.7269 407.432 55.6174 407.204 56.0557 407.204C56.2018 407.204 56.3296 407.082 56.3296 406.941C56.3296 406.766 56.147 406.678 55.7087 406.678C55.1973 406.678 54.9599 406.538 54.2841 405.75C53.1152 404.435 52.7682 403.909 51.8733 402.174C51.0149 400.527 50.2478 398.493 50.3939 398.248C50.4487 398.178 50.7044 398.143 50.9418 398.195C51.3071 398.248 51.3984 398.195 51.3984 397.915C51.3984 397.635 51.2706 397.564 50.7775 397.564C50.3026 397.564 50.1382 397.477 50.0469 397.161C49.846 396.495 49.7182 392.254 49.8825 391.43C50.0287 390.711 50.0834 390.641 50.6131 390.589C51.4532 390.501 51.5628 390.028 50.7409 390.028C50.2113 390.028 50.12 389.975 50.193 389.712C50.2478 389.555 50.3757 389.064 50.4853 388.661C50.8871 387.189 50.9966 387.048 51.9098 387.048C52.6586 387.048 52.7134 387.066 52.5856 387.434ZM59.745 409.43C60.3842 409.851 60.6582 410.131 60.5486 410.236C60.3294 410.447 59.2701 410.026 58.5213 409.483C58.1378 409.185 58.1012 409.115 58.3387 408.957C58.7039 408.729 58.6491 408.712 59.745 409.43ZM62.3749 411.06C62.9229 411.341 63.2881 411.586 63.1785 411.586C62.7585 411.586 61.2609 410.973 61.1878 410.762C61.0417 410.429 61.2791 410.482 62.3749 411.06Z" fill="#FFE400"/>
<path d="M69.0229 378.302C64.8588 379.091 61.6261 380.949 58.9779 384.016C56.421 386.996 55.0694 391.483 55.5626 395.461C56.0192 399.142 57.5168 402.174 60.165 404.751C63.5621 408.081 68.0915 409.728 72.9496 409.413C75.1961 409.272 76.6754 408.939 78.5383 408.098C80.5474 407.187 81.7893 406.381 83.1773 405.066C85.4786 402.875 86.9031 400.527 87.652 397.67C88.1816 395.654 88.2729 392.464 87.8529 390.554C87.0493 386.926 84.7846 383.508 81.7345 381.3C79.9994 380.055 78.027 379.091 76.1275 378.618C74.4655 378.197 70.5206 378.022 69.0229 378.302ZM74.4107 379.179C79.4333 380.406 83.6339 384.209 85.3872 389.117C85.99 390.782 86.0082 390.869 86.0082 393.796C86.0082 396.6 85.9717 396.863 85.4968 398.178C84.5289 400.842 82.8303 403.418 81.0405 404.926C77.2051 408.168 72.4748 409.448 68.0732 408.431C60.2381 406.626 55.0146 399.247 56.2201 391.658C57.115 385.979 61.0599 381.422 66.74 379.477C69.2969 378.6 71.6529 378.513 74.4107 379.179ZM82.4468 382.737C89.3322 388.643 89.1861 399.282 82.1363 405.101C80.5291 406.416 80.3647 406.416 81.8076 405.084C83.086 403.909 84.5471 401.859 85.369 400.123C87.2319 396.145 87.1771 391.167 85.2046 387.118C84.3097 385.296 83.7252 384.489 82.045 382.737C80.6569 381.282 80.7665 381.282 82.4468 382.737Z" fill="#FFE400"/>
<path d="M71.7077 387.311C70.064 388.801 68.6394 390.028 68.5481 390.028C68.4567 390.028 68.1463 389.765 67.8358 389.45L67.3061 388.889L66.6121 389.537L65.9363 390.203L66.5573 390.834L67.1965 391.465L66.2834 392.219L65.3702 392.99L64.7309 392.377L64.0734 391.781L62.8498 392.99L63.416 393.674L64.0004 394.357L62.7219 395.444C62.0096 396.057 61.4435 396.636 61.4435 396.758C61.4435 396.863 61.7905 397.302 62.2288 397.705L62.9959 398.423L64.2743 397.302C64.9866 396.688 65.6076 396.18 65.6989 396.162C65.772 396.162 66.6304 396.951 67.5984 397.933L69.3699 399.685L70.6484 398.458L68.8768 396.618L67.087 394.795L67.9636 393.989L68.8403 393.2L70.484 394.743C71.3972 395.584 72.3834 396.425 72.6757 396.618C74.155 397.582 76.1823 397.862 77.5886 397.302C78.4835 396.934 79.9994 395.584 80.4926 394.673C80.7665 394.182 80.8761 393.638 80.8944 392.832C80.8944 391.044 80.2186 389.923 77.4242 387.048C76.1458 385.751 75.0134 384.665 74.9038 384.647C74.776 384.612 73.3332 385.821 71.7077 387.311ZM76.3649 388.661C79.0315 391.307 79.415 392.78 77.826 394.375C76.6937 395.514 75.4152 395.777 73.9541 395.198C73.2784 394.918 70.3927 392.306 70.3927 391.956C70.3927 391.798 74.9586 387.574 75.1413 387.574C75.1961 387.574 75.744 388.065 76.3649 388.661Z" fill="#FFE400"/>
<path d="M100.528 336.694C98.8294 336.939 96.3638 337.587 95.0488 338.131C88.9852 340.637 84.2366 346.544 83.1773 352.871C82.9399 354.361 82.9399 357.778 83.1956 359.111C84.4558 365.911 89.2957 371.607 95.8706 374.061C98.9207 375.2 99.9435 375.358 104.089 375.34C109.368 375.323 111.888 374.78 115.431 372.939C120.216 370.433 123.887 365.928 125.074 361.144C126.061 357.13 126.061 353.94 125.093 350.645C122.974 343.547 116.71 338.078 109.313 336.851C107.724 336.588 101.916 336.483 100.528 336.694ZM108.984 337.36C115.65 338.481 121.403 342.986 123.905 349.085C125.403 352.748 125.659 356.814 124.636 360.67C124.161 362.493 122.536 365.701 121.257 367.331C115.577 374.569 105.167 376.865 96.6925 372.764C89.0948 369.083 84.748 360.793 86.1909 352.801C87.5972 345.071 93.752 338.99 101.715 337.447C103.761 337.044 106.902 337.009 108.984 337.36ZM97.2404 338.061C97.2404 338.183 95.4688 339.025 95.1949 339.025C94.6104 339.025 95.5419 338.534 97.2039 337.991C97.2222 337.973 97.2404 338.008 97.2404 338.061ZM94.1356 339.708C94.1356 339.989 92.2544 341.216 92.1631 340.988C92.1266 340.865 92.017 340.812 91.9257 340.883C91.8344 340.935 91.7613 340.9 91.7613 340.795C91.7613 340.514 93.2772 339.568 93.7338 339.551C93.9529 339.551 94.1356 339.621 94.1356 339.708ZM91.7613 341.566C91.7613 341.619 91.2134 342.215 90.5559 342.898C89.1861 344.335 88.3277 345.562 87.3597 347.438L86.684 348.77L85.9352 348.7C85.5151 348.664 85.1863 348.542 85.1863 348.454C85.1863 348.349 85.4968 347.718 85.8621 347.07C86.41 346.088 86.6292 345.86 86.9762 345.86C87.3597 345.86 87.3963 345.808 87.3049 345.404C87.1954 345.036 87.3232 344.774 88.0172 344.02C88.6747 343.284 88.9304 343.091 89.314 343.144C89.734 343.179 89.7705 343.126 89.6975 342.74C89.5879 342.162 90.355 341.496 91.1769 341.478C91.4873 341.478 91.7613 341.514 91.7613 341.566ZM86.3918 349.576C85.5334 352.468 85.4603 352.959 85.4603 356.026C85.4603 358.795 85.5151 359.251 85.9534 360.758C86.5927 362.984 87.4876 364.964 88.5104 366.454C89.4053 367.751 91.2499 369.854 91.6882 370.1C92.1266 370.345 91.9622 370.573 91.3595 370.573C90.9942 370.556 90.5559 370.398 90.2637 370.135C89.7523 369.714 89.6062 369.346 89.9349 369.346C90.0445 369.346 90.1176 369.224 90.1176 369.083C90.1176 368.908 89.9349 368.82 89.4966 368.82C88.9669 368.82 88.7478 368.68 88.0172 367.874C86.8301 366.524 85.4968 364.316 84.8576 362.633C83.9627 360.267 83.9809 360.408 84.6202 360.408C85.0585 360.408 85.1863 360.337 85.1863 360.057C85.1863 359.777 85.0585 359.706 84.5654 359.706C84.0175 359.706 83.9444 359.636 83.8348 359.146C83.6157 358.094 83.5243 355.079 83.6705 353.923C83.8166 352.801 83.8166 352.783 84.4193 352.731C85.1133 352.661 85.2411 352.17 84.5654 352.17C84.3097 352.17 84.0723 352.117 84.0357 352.03C83.9992 351.96 84.1636 351.294 84.401 350.54L84.8393 349.19H85.6612C86.4465 349.19 86.5013 349.225 86.3918 349.576ZM93.8068 371.765C94.4643 372.151 94.5009 372.589 93.8434 372.431C93.2955 372.291 91.9439 371.467 91.9439 371.257C91.9439 371.011 92.5832 370.976 92.9484 371.222C93.1493 371.362 93.5329 371.59 93.8068 371.765ZM96.1629 373.15C96.656 373.43 97.0578 373.693 97.0578 373.763C97.0578 373.938 94.9757 373.079 94.9027 372.869C94.7931 372.554 95.2131 372.641 96.1629 373.15Z" fill="#FFE400"/>
<path d="M102.72 340.497C100.984 340.83 100.126 341.075 98.7928 341.654C94.2817 343.599 90.9029 347.578 89.6244 352.45C89.1678 354.238 89.2226 357.936 89.734 359.794C91.9805 367.909 99.9982 372.799 108.637 371.362C113.623 370.52 117.952 367.383 120.234 362.966C121.586 360.32 121.805 359.338 121.805 355.85C121.805 352.836 121.787 352.766 121.202 351.118C120.874 350.207 120.308 348.98 119.979 348.384C117.824 344.686 114.043 341.829 109.934 340.777C108.089 340.304 104.436 340.164 102.72 340.497ZM108.107 341.321C114.92 342.898 119.869 348.962 119.924 355.78C119.942 358.444 119.431 360.443 118.134 362.861C114.956 368.803 107.906 372.115 101.715 370.573C94.7018 368.838 89.8801 362.879 89.8801 355.938C89.8801 351.609 91.5969 347.858 94.9209 344.879C96.4733 343.494 98.0075 342.565 100.017 341.829C102.774 340.795 105.222 340.655 108.107 341.321ZM117.057 345.597C118.901 347.385 120.545 350.487 121.093 353.169C122.006 357.778 120.381 363.054 117.02 366.296C115.267 367.979 114.445 368.452 115.906 366.927C119.029 363.65 120.49 360.215 120.49 356.026C120.508 351.837 119.193 348.577 116.198 345.317C114.536 343.512 115.084 343.704 117.057 345.597Z" fill="#FFE400"/>
<path d="M104.546 346.018C103.56 346.316 102.391 346.999 101.35 347.841C99.6878 349.208 97.0578 351.539 97.0578 351.644C97.0578 351.714 98.1901 352.941 99.5782 354.378C100.948 355.833 102.245 357.183 102.427 357.393C102.774 357.778 102.774 357.796 102.172 358.392L101.551 359.005L101.989 359.479C102.245 359.759 102.5 360.039 102.573 360.127C102.646 360.215 103.012 360.039 103.414 359.741L104.126 359.198L105.843 360.881L105.203 361.424C104.838 361.722 104.546 362.038 104.546 362.125C104.546 362.195 104.82 362.511 105.149 362.826L105.751 363.387L107.012 362.143L108.308 363.51L109.623 364.877L110.463 364.088C110.938 363.667 111.285 363.247 111.267 363.177C111.23 363.107 110.683 362.493 110.062 361.81L108.893 360.565L110.153 359.479C110.829 358.865 111.705 358.094 112.107 357.761L112.801 357.147L112.162 356.464L111.523 355.798L110.262 356.92C109.587 357.533 108.71 358.304 108.327 358.655L107.614 359.268L106.792 358.409L105.989 357.533L107.706 355.921C109.861 353.905 110.664 352.52 110.664 350.855C110.646 350.172 110.518 349.523 110.262 348.98C109.806 347.998 108.436 346.631 107.559 346.281C106.792 345.983 105.149 345.825 104.546 346.018ZM106.044 348.104C106.555 348.156 107.852 349.383 108.217 350.154C108.674 351.101 108.655 351.591 108.089 352.661C107.596 353.607 104.765 356.324 104.546 356.078C104.473 355.991 103.45 354.922 102.245 353.677L100.071 351.416L101.532 350.102C102.336 349.383 103.377 348.629 103.852 348.402C104.637 348.051 104.929 348.016 106.044 348.104Z" fill="#FFE400"/>
<path d="M62.0279 275.087C59.0874 275.35 55.6904 276.471 53.2248 277.996C49.846 280.082 47.3438 282.816 45.6453 286.321C43.271 291.229 43.1614 296.189 45.2983 302.078C46.7046 305.934 48.0013 308.02 50.4304 310.316C52.2385 312.033 53.4257 312.875 55.3981 313.856C58.503 315.381 61.9548 316.17 64.8953 315.994C71.1598 315.644 75.4883 313.874 79.2141 310.105C83.6339 305.654 85.6429 299.817 84.748 294.068C84.4558 292.105 83.2138 288.039 82.392 286.251C78.9218 278.802 70.7214 274.315 62.0279 275.087ZM65.8085 276.296C65.9363 276.699 66.0094 277.032 65.9729 277.067C65.9363 277.085 64.8953 277.155 63.6351 277.207C58.5943 277.435 53.9736 279.416 50.3391 282.904C48.9328 284.236 47.0516 286.724 46.6315 287.794C46.4124 288.337 46.1567 288.162 46.0106 287.408C45.9375 287.04 46.0288 286.689 46.3028 286.269C46.5402 285.918 46.7411 285.743 46.7777 285.866C46.8324 285.988 46.9786 286.094 47.1429 286.094C47.3621 286.094 47.3804 285.953 47.289 285.41C47.1795 284.779 47.2525 284.604 47.9465 283.605C48.9693 282.167 51.3619 279.854 52.8047 278.943C53.9918 278.171 54.3206 278.066 54.3206 278.417C54.3206 278.82 54.6128 279.1 54.9233 278.978C55.1607 278.907 55.179 278.802 55.0511 278.557C54.9416 278.382 54.8685 278.119 54.8685 277.979C54.8685 277.488 58.8683 276.033 60.8042 275.823C61.7539 275.718 61.7539 275.718 61.9548 276.261C62.1009 276.647 62.2288 276.769 62.4297 276.699C62.7584 276.576 62.7767 276.471 62.5575 276.103C62.2653 275.665 62.521 275.577 64.0734 275.577H65.5893L65.8085 276.296ZM68.8037 276.103C69.169 276.208 69.4795 276.401 69.4795 276.541C69.4795 276.909 69.79 277.015 70.1552 276.804C70.7032 276.471 72.5843 277.225 72.84 277.873C73.0409 278.399 73.2966 278.504 73.6071 278.206C73.8993 277.926 74.9221 278.557 75.1412 279.153C75.2508 279.433 75.2874 279.714 75.2326 279.749C75.1778 279.801 74.5385 279.556 73.808 279.205C71.799 278.241 69.6439 277.611 67.1052 277.242C66.5025 277.155 66.466 277.12 66.4294 276.436L66.4112 275.7L67.2513 275.805C67.7262 275.875 68.4202 275.998 68.8037 276.103ZM68.3837 278.031C72.3652 278.837 75.7805 280.59 78.6114 283.289C87.2318 291.509 85.9716 305.303 75.9814 312.051C71.7442 314.925 66.1372 316.064 61.0234 315.118C56.3844 314.242 52.3481 311.911 49.4259 308.44C46.2115 304.602 44.6043 299.519 45.1522 294.839C46.1567 286.041 52.7682 279.346 61.8087 277.926C63.3977 277.681 66.9226 277.733 68.3837 278.031ZM77.2051 280.485C77.5886 280.87 77.8808 281.274 77.8808 281.379C77.8808 281.607 77.7895 281.572 76.7302 280.923C76.0544 280.502 75.8901 280.292 75.8718 279.907C75.8718 279.486 75.9266 279.451 76.2005 279.591C76.3832 279.696 76.8398 280.082 77.2051 280.485ZM80.0725 283.535C80.0725 283.64 79.7802 283.447 79.4332 283.114C79.0862 282.781 78.794 282.395 78.794 282.255C78.794 281.957 80.0542 283.237 80.0725 283.535ZM45.8279 288.617C46.0471 288.81 46.0106 289.003 45.7001 289.844C45.28 290.931 45.0061 291.106 45.0061 290.282C45.0061 289.722 45.3531 288.372 45.4992 288.372C45.554 288.372 45.7001 288.477 45.8279 288.617ZM44.9148 292.333C44.6956 293.753 44.4582 294.016 44.4947 292.841C44.513 291.702 44.5677 291.527 44.86 291.527C44.9878 291.527 45.0061 291.807 44.9148 292.333Z" fill="#FFE400"/>
<path d="M61.9366 281.116C58.6309 281.607 55.8548 283.044 53.1335 285.655C51.7272 286.987 51.1062 287.759 50.4487 288.898C48.3666 292.596 47.837 296.417 48.878 300.448C50.5948 307.213 56.8228 312.051 64.0917 312.296C66.3016 312.366 67.781 312.156 69.8448 311.508C72.6209 310.631 74.4655 309.509 76.5476 307.424C81.9171 302.078 82.6112 293.84 78.2096 287.724C76.6937 285.603 73.8811 283.342 71.3972 282.238C68.7307 281.063 65.1328 280.643 61.9366 281.116ZM67.8723 281.817C72.8949 282.834 76.8581 285.866 79.0315 290.335C80.1273 292.561 80.3282 296.417 79.5246 299.239C76.8398 308.458 66.2103 313.067 57.3341 308.826C53.8275 307.161 50.8688 304.024 49.6268 300.606C49.0607 299.081 48.8415 295.961 49.1885 294.086C50.2843 288.074 55.179 283.114 61.3156 281.817C62.7585 281.501 66.3747 281.501 67.8723 281.817ZM78.9036 303.077C77.5521 306.074 74.4655 308.949 70.9406 310.508C69.1508 311.297 67.434 311.595 64.8223 311.595C61.3887 311.595 59.0875 311.017 56.6036 309.527C54.9233 308.51 55.0147 308.388 56.8045 309.247C59.471 310.491 61.0417 310.859 64.0004 310.912C65.8998 310.947 66.7948 310.877 67.9271 310.631C71.452 309.825 74.7212 307.897 76.9677 305.285C77.5521 304.619 78.8854 302.621 79.1776 301.99C79.3054 301.727 79.4333 301.552 79.4698 301.587C79.5246 301.622 79.2689 302.306 78.9036 303.077Z" fill="#FFE400"/>
<path d="M66.1373 288.144C65.8998 288.512 64.9136 290.09 63.9091 291.65C62.9228 293.227 62.0645 294.506 62.0097 294.506C61.9549 294.506 61.6261 294.349 61.2974 294.156C60.9686 293.963 60.6399 293.805 60.5668 293.805C60.4025 293.805 59.5441 295.208 59.6354 295.278C59.6719 295.295 60.0189 295.505 60.3842 295.716L61.0782 296.119L60.4755 297.135L59.8911 298.17L59.0875 297.714C58.4482 297.363 58.2656 297.311 58.1195 297.504C57.8821 297.872 57.4255 298.678 57.4255 298.783C57.4255 298.836 57.7542 299.046 58.156 299.274L58.8683 299.694L57.9734 301.149C57.462 301.938 57.0602 302.656 57.0602 302.727C57.0602 302.937 58.8866 303.988 59.0692 303.883C59.1605 303.831 59.6171 303.165 60.092 302.394C60.5668 301.622 60.9869 300.991 61.0234 300.991C61.0782 300.991 61.9914 301.5 63.0507 302.113C65.6259 303.603 65.5346 303.585 65.9912 302.867C66.1921 302.534 66.3747 302.201 66.3747 302.113C66.3747 302.025 65.425 301.412 64.2744 300.746C63.1055 300.08 62.1375 299.502 62.101 299.432C61.9914 299.291 63.142 297.486 63.3247 297.486C63.416 297.486 64.1465 297.872 64.9684 298.362C68.6577 300.518 71.4703 300.571 73.4062 298.503C74.4473 297.416 75.0134 296.031 74.9221 294.857C74.7578 292.754 73.5706 291.492 69.5709 289.161C68.0732 288.284 66.7765 287.566 66.7034 287.531C66.6304 287.496 66.3747 287.776 66.1373 288.144ZM69.6804 291.369C71.9999 292.719 72.6574 293.542 72.5296 294.98C72.4565 296.049 71.7808 297.135 70.8858 297.679C70.4293 297.959 70.064 298.012 69.2056 297.977C68.0367 297.907 66.9957 297.504 65.151 296.399L64.2196 295.821L65.9364 293.052C66.9043 291.544 67.708 290.3 67.7445 290.3C67.781 290.3 68.6577 290.791 69.6804 291.369Z" fill="#FFE400"/>
<path d="M121.257 205.943C118.646 206.101 115.376 206.925 113.313 207.924C109.13 209.957 105.569 213.532 103.724 217.563C102.847 219.456 101.697 223.155 101.459 224.802C100.911 228.64 101.605 232.917 103.322 236.23C103.961 237.474 105.295 239.297 106.701 240.839C108.637 242.977 112.765 245.379 115.869 246.167C118.152 246.746 118.463 246.798 120.253 246.921C125.915 247.307 132.088 245.011 136.051 241.032C138.334 238.736 139.612 236.615 140.964 232.829C142.279 229.201 142.425 228.395 142.425 225.188C142.443 222.629 142.388 222.226 141.914 220.561C140.398 215.285 136.836 210.868 132.124 208.379C128.928 206.714 124.636 205.75 121.257 205.943ZM124.161 207.135C124.015 207.941 124.508 207.994 124.8 207.205C124.983 206.714 125.038 206.679 125.677 206.802C127.01 207.012 128.782 207.538 130.133 208.099C131.887 208.835 131.96 208.905 131.741 209.448C131.649 209.676 131.613 209.957 131.686 210.044C131.868 210.342 132.124 210.202 132.234 209.764C132.289 209.519 132.416 209.326 132.508 209.326C132.599 209.326 133.202 209.694 133.859 210.15C135.119 211.008 135.101 210.973 134.645 212.113C134.498 212.498 134.48 212.498 134.078 212.235C130.243 209.536 126.846 208.344 122.536 208.151C118.92 207.994 115.76 208.555 113.039 209.834C112.436 210.132 111.924 210.325 111.888 210.29C111.851 210.255 111.87 209.992 111.924 209.711C112.089 209.063 113.276 208.432 113.532 208.87C113.787 209.308 114.007 209.203 114.299 208.572C114.518 208.046 114.701 207.924 116.07 207.503C118.225 206.837 120.034 206.557 122.317 206.539L124.289 206.521L124.161 207.135ZM124.545 208.87C125.403 208.993 126.28 209.203 127.65 209.624C134.498 211.745 139.777 217.651 140.909 224.504C141.95 230.866 139.448 237.579 134.498 241.663C129.312 245.922 122.864 247.342 116.125 245.694C112.692 244.853 108.747 242.364 106.318 239.507C101.971 234.407 100.692 227.589 102.939 221.349C105.258 214.882 111.23 210.044 118.335 208.87C119.614 208.66 123.138 208.66 124.545 208.87ZM111.103 210.412C111.103 210.693 110.829 210.991 110.171 211.394C109.66 211.709 109.203 211.92 109.148 211.867C108.966 211.692 109.495 210.991 110.171 210.518C110.993 209.939 111.121 209.922 111.103 210.412ZM136.727 212.621C137.603 213.497 137.731 213.725 137.658 214.146C137.567 214.584 137.603 214.619 137.932 214.549C138.517 214.391 139.667 216.179 139.539 216.985C139.466 217.528 139.558 217.651 140.014 217.581C140.087 217.581 140.288 217.809 140.434 218.107C140.726 218.633 140.672 219.561 140.343 219.754C140.252 219.807 139.813 219.176 139.357 218.352C138.389 216.582 137.165 215.022 135.777 213.743C135.156 213.182 134.845 212.761 134.973 212.691C135.083 212.621 135.229 212.358 135.302 212.078C135.357 211.815 135.485 211.604 135.576 211.604C135.649 211.604 136.179 212.06 136.727 212.621ZM108.546 212.34C108.527 212.586 106.957 213.97 106.829 213.865C106.719 213.76 108.18 212.13 108.4 212.13C108.491 212.13 108.564 212.235 108.546 212.34ZM141.42 221.121C141.621 221.945 141.567 222.646 141.274 222.646C141.201 222.646 141 222.173 140.836 221.595C140.58 220.736 140.562 220.49 140.745 220.298C141.055 219.965 141.165 220.105 141.42 221.121ZM141.95 224.855C141.968 225.275 141.895 225.626 141.822 225.626C141.64 225.626 141.439 224.066 141.585 223.803C141.749 223.523 141.95 224.083 141.95 224.855Z" fill="#FFE400"/>
<path d="M118.755 212.025C111.194 213.322 105.605 219.316 105.149 226.625C104.692 233.951 109.532 240.524 116.929 242.609C124.307 244.695 132.124 241.575 135.85 235.055C137.311 232.496 137.895 229.955 137.731 226.642C137.548 222.664 136.142 219.544 133.238 216.617C131.229 214.619 128.325 212.971 125.622 212.305C123.741 211.85 120.6 211.709 118.755 212.025ZM124.691 212.761C127.759 213.322 130.152 214.584 132.599 216.932C135.649 219.859 137.055 222.979 137.165 227.116C137.293 231.305 135.978 234.267 132.654 237.264C127.905 241.558 121.111 242.557 115.139 239.858C108.984 237.071 105.349 230.498 106.391 223.996C107.322 218.089 113.312 213.041 120.07 212.498C121.75 212.358 122.828 212.428 124.691 212.761ZM108.345 234.985C110.098 237.772 113.952 240.418 117.696 241.418C119.047 241.786 119.632 241.838 122.17 241.821C125.239 241.821 125.038 241.838 128.07 240.787C128.508 240.646 129.184 240.366 129.585 240.173C130.535 239.7 130.7 239.735 129.932 240.226C128.508 241.155 127.376 241.645 125.732 242.048C120.216 243.416 114.81 242.171 110.902 238.631C109.386 237.246 107.961 235.511 107.45 234.389C106.391 232.093 106.153 231.094 107.048 232.777C107.432 233.46 108.016 234.459 108.345 234.985Z" fill="#FFE400"/>
<path d="M124.727 222.716C122.828 223.505 121.111 224.206 120.928 224.276C120.655 224.364 120.527 224.241 120.234 223.593C120.034 223.154 119.796 222.821 119.741 222.857C119.668 222.892 119.303 223.032 118.938 223.172C118.152 223.452 118.134 223.47 118.518 224.346C118.664 224.679 118.792 224.995 118.792 225.047C118.792 225.135 116.819 225.976 116.6 225.976C116.49 225.976 116.417 225.906 116.417 225.819C116.417 225.731 116.289 225.38 116.143 225.047L115.869 224.416L115.139 224.732C114.737 224.907 114.354 225.082 114.299 225.135C114.262 225.188 114.354 225.556 114.518 225.959C114.682 226.362 114.792 226.712 114.755 226.747C114.719 226.783 113.97 227.098 113.093 227.466C112.198 227.834 111.486 228.185 111.486 228.255C111.486 228.325 111.687 228.833 111.943 229.359L112.399 230.34L113.897 229.727C114.737 229.376 115.504 229.061 115.614 229.008C115.742 228.973 116.235 229.85 116.801 231.164C117.349 232.374 117.878 233.408 117.988 233.443C118.225 233.548 119.522 233.04 119.522 232.847C119.522 232.777 119.084 231.708 118.536 230.481L117.55 228.255L118.335 227.922C119.887 227.256 119.76 227.203 120.527 228.903C121.623 231.357 122.536 232.584 123.905 233.425C126.316 234.915 130.206 233.688 131.211 231.129C131.649 229.99 131.668 229.043 131.302 227.694C130.9 226.204 128.727 221.332 128.435 221.297C128.307 221.279 126.645 221.91 124.727 222.716ZM128.563 225.801C130.133 229.306 129.75 230.831 127.12 231.69C125.02 232.374 123.686 231.392 122.189 228.097C121.823 227.273 121.549 226.607 121.586 226.59C122.59 226.099 127.686 224.136 127.777 224.206C127.85 224.259 128.197 224.977 128.563 225.801Z" fill="#FFE400"/>
<path d="M60.5303 146.176C58.8318 146.422 56.3662 147.07 55.0512 147.614C48.9876 150.12 44.239 156.027 43.1797 162.354C42.9423 163.844 42.9423 167.261 43.198 168.593C44.4582 175.394 49.2981 181.09 55.873 183.544C58.9231 184.683 59.9459 184.841 64.0917 184.823C69.3699 184.806 71.8903 184.262 75.4335 182.422C80.2186 179.916 83.8896 175.411 85.0768 170.626C86.063 166.613 86.063 163.423 85.095 160.128C82.9764 153.029 76.712 147.561 69.3152 146.334C67.7262 146.071 61.9183 145.966 60.5303 146.176ZM68.9864 146.842C75.6527 147.964 81.4058 152.469 83.9079 158.568C85.4055 162.231 85.6612 166.297 84.6384 170.153C84.1636 171.976 82.5381 175.183 81.2596 176.813C75.5796 184.052 65.1693 186.348 56.6949 182.247C49.0972 178.566 44.7504 170.276 46.1933 162.284C47.5996 154.554 53.7544 148.472 61.7174 146.93C63.763 146.527 66.9043 146.492 68.9864 146.842ZM57.2428 147.544C57.2428 147.666 55.4712 148.508 55.1973 148.508C54.6128 148.508 55.5443 148.017 57.2063 147.473C57.2246 147.456 57.2428 147.491 57.2428 147.544ZM54.138 149.191C54.138 149.472 52.2568 150.698 52.1655 150.471C52.129 150.348 52.0194 150.295 51.9281 150.365C51.8368 150.418 51.7637 150.383 51.7637 150.278C51.7637 149.997 53.2796 149.051 53.7362 149.033C53.9553 149.033 54.138 149.103 54.138 149.191ZM51.7637 151.049C51.7637 151.102 51.2158 151.697 50.5583 152.381C49.1885 153.818 48.3301 155.045 47.3621 156.92L46.6864 158.252L45.9376 158.182C45.5175 158.147 45.1888 158.025 45.1888 157.937C45.1888 157.832 45.4992 157.201 45.8645 156.552C46.4124 155.571 46.6316 155.343 46.9786 155.343C47.3621 155.343 47.3987 155.29 47.3073 154.887C47.1978 154.519 47.3256 154.256 48.0196 153.503C48.6771 152.767 48.9328 152.574 49.3164 152.626C49.7364 152.661 49.773 152.609 49.6999 152.223C49.5903 151.645 50.3574 150.979 51.1793 150.961C51.4897 150.961 51.7637 150.996 51.7637 151.049ZM46.3942 159.059C45.5358 161.951 45.4627 162.441 45.4627 165.509C45.4627 168.278 45.5175 168.734 45.9558 170.241C46.5951 172.467 47.49 174.447 48.5128 175.937C49.4077 177.234 51.2523 179.337 51.6906 179.583C52.129 179.828 51.9646 180.056 51.3619 180.056C50.9966 180.038 50.5583 179.881 50.2661 179.618C49.7547 179.197 49.6086 178.829 49.9373 178.829C50.0469 178.829 50.12 178.706 50.12 178.566C50.12 178.391 49.9373 178.303 49.499 178.303C48.9693 178.303 48.7502 178.163 48.0196 177.357C46.8325 176.007 45.4992 173.799 44.86 172.116C43.9651 169.75 43.9833 169.89 44.6226 169.89C45.0609 169.89 45.1888 169.82 45.1888 169.54C45.1888 169.259 45.0609 169.189 44.5678 169.189C44.0199 169.189 43.9468 169.119 43.8372 168.628C43.6181 167.577 43.5268 164.562 43.6729 163.405C43.819 162.284 43.819 162.266 44.4217 162.214C45.1157 162.143 45.2435 161.653 44.5678 161.653C44.3121 161.653 44.0747 161.6 44.0381 161.512C44.0016 161.442 44.166 160.776 44.4034 160.023L44.8417 158.673H45.6636C46.449 158.673 46.5037 158.708 46.3942 159.059ZM53.8092 181.248C54.4667 181.633 54.5033 182.072 53.8458 181.914C53.2979 181.774 51.9463 180.95 51.9463 180.739C51.9463 180.494 52.5856 180.459 52.9508 180.704C53.1517 180.845 53.5353 181.072 53.8092 181.248ZM56.1653 182.632C56.6584 182.913 57.0602 183.176 57.0602 183.246C57.0602 183.421 54.9781 182.562 54.9051 182.352C54.7955 182.036 55.2155 182.124 56.1653 182.632Z" fill="#FFE400"/>
<path d="M62.7219 149.98C60.9869 150.313 60.1285 150.558 58.7952 151.137C54.2841 153.082 50.9053 157.061 49.6268 161.933C49.1702 163.721 49.225 167.419 49.7364 169.277C51.9829 177.392 60.0006 182.282 68.6394 180.845C73.6254 180.003 77.9539 176.866 80.2369 172.449C81.5884 169.803 81.8076 168.821 81.8076 165.333C81.8076 162.319 81.7893 162.249 81.2049 160.601C80.8761 159.69 80.3099 158.463 79.9812 157.867C77.8261 154.169 74.0455 151.312 69.9361 150.26C68.0915 149.787 64.4387 149.647 62.7219 149.98ZM68.1098 150.804C74.9221 152.381 79.8716 158.445 79.9264 165.263C79.9447 167.927 79.4333 169.925 78.1365 172.344C74.9587 178.286 67.9088 181.598 61.7174 180.056C54.7042 178.321 49.8825 172.362 49.8825 165.421C49.8825 161.092 51.5993 157.341 54.9233 154.362C56.4757 152.977 58.0099 152.048 60.0189 151.312C62.7767 150.278 65.2241 150.138 68.1098 150.804ZM77.059 155.08C78.9036 156.868 80.5474 159.97 81.0953 162.652C82.0085 167.261 80.383 172.537 77.0225 175.779C75.2691 177.462 74.4473 177.935 75.9084 176.41C79.0315 173.133 80.4926 169.698 80.4926 165.509C80.5108 161.32 79.1958 158.06 76.2006 154.8C74.5386 152.994 75.0865 153.187 77.059 155.08Z" fill="#FFE400"/>
<path d="M64.5483 155.501C63.5621 155.799 62.3932 156.482 61.3522 157.324C59.6902 158.691 57.0602 161.022 57.0602 161.127C57.0602 161.197 58.1925 162.424 59.5806 163.861C60.9504 165.316 62.2471 166.665 62.4297 166.876C62.7767 167.261 62.7767 167.279 62.174 167.875L61.5531 168.488L61.9914 168.961C62.2471 169.242 62.5028 169.522 62.5758 169.61C62.6489 169.698 63.0142 169.522 63.416 169.224L64.1283 168.681L65.8451 170.364L65.2058 170.907C64.8405 171.205 64.5483 171.52 64.5483 171.608C64.5483 171.678 64.8223 171.994 65.151 172.309L65.7537 172.87L67.0139 171.626L68.3107 172.993L69.6256 174.36L70.4658 173.571C70.9406 173.15 71.2876 172.73 71.2694 172.66C71.2329 172.589 70.6849 171.976 70.064 171.293L68.8951 170.048L70.1553 168.961C70.831 168.348 71.7077 167.577 72.1095 167.244L72.8035 166.63L72.1643 165.947L71.5251 165.281L70.2649 166.403C69.5891 167.016 68.7125 167.787 68.3289 168.138L67.6166 168.751L66.7948 167.892L65.9912 167.016L67.7079 165.403C69.8631 163.388 70.6667 162.003 70.6667 160.338C70.6484 159.655 70.5206 159.006 70.2649 158.463C69.8083 157.481 68.4385 156.114 67.5618 155.764C66.7948 155.466 65.151 155.308 64.5483 155.501ZM66.046 157.586C66.5573 157.639 67.8541 158.866 68.2193 159.637C68.6759 160.584 68.6577 161.074 68.0915 162.143C67.5984 163.09 64.7675 165.807 64.5483 165.561C64.4753 165.474 63.4525 164.404 62.2471 163.16L60.0737 160.899L61.5348 159.585C62.3384 158.866 63.3794 158.112 63.8543 157.884C64.6396 157.534 64.9319 157.499 66.046 157.586Z" fill="#FFE400"/>
<path d="M119.303 78.1371C119.266 78.1722 118.792 78.2423 118.225 78.2949C115.595 78.5928 112.436 79.8372 109.386 81.8002C107.34 83.1148 104.491 86.2871 103.194 88.7234C101.934 91.0544 101.076 94.665 101.076 97.5744C101.076 101.746 102.391 105.479 105.313 109.633C107.468 112.718 109.587 114.698 112.363 116.241C115.504 117.993 118.152 118.694 122.024 118.835C124.289 118.922 124.837 118.887 126.408 118.537C127.394 118.326 128.307 118.063 128.453 117.941C128.599 117.836 128.727 117.783 128.727 117.836C128.745 117.871 129.165 117.765 129.659 117.59C134.754 115.767 138.827 112.157 140.946 107.547C143.21 102.657 143.393 97.5043 141.475 92.6669C140.452 90.0905 137.768 85.9541 135.85 84.0086C132.69 80.8187 128.526 78.8382 123.759 78.2248C122.481 78.067 119.449 77.9969 119.303 78.1371ZM122.006 79.0135C122.262 79.3465 122.298 79.3465 122.517 79.0485C122.791 78.7155 123.577 78.6629 124.709 78.9258C125.367 79.0661 125.622 79.2413 125.787 79.7146C125.823 79.8022 126.024 79.7496 126.225 79.5743C126.572 79.2764 126.663 79.2764 127.248 79.5218C127.832 79.7496 128.435 80.4156 128.234 80.6084C128.179 80.661 127.211 80.5208 126.079 80.3105C124.326 79.995 123.632 79.9424 121.623 80.03L119.23 80.1527L119.029 79.6269C118.919 79.329 118.792 79.031 118.755 78.9609C118.682 78.7856 119.614 78.6454 120.764 78.6629C121.531 78.6629 121.805 78.733 122.006 79.0135ZM118.299 79.5919C118.7 80.2404 118.609 80.4332 117.787 80.5734C114.755 81.0817 110.902 83.1498 108.29 85.6562C105.77 88.0924 104.144 90.6689 103.176 93.7361C102.902 94.6124 102.646 95.4362 102.61 95.5764C102.482 95.9094 101.788 94.8928 101.879 94.5248C101.916 94.3846 102.007 94.034 102.062 93.7711C102.135 93.5082 102.263 93.3329 102.373 93.3855C102.464 93.4556 102.683 93.4556 102.829 93.403C103.067 93.3154 103.067 93.2453 102.793 92.8597C102.427 92.3164 102.519 91.8256 103.304 90.0204C103.943 88.5481 105.55 86.1119 106.719 84.885L107.468 84.0963L107.815 84.5344C108.107 84.8675 108.235 84.92 108.4 84.7623C108.564 84.6046 108.546 84.4468 108.308 84.1138C108.016 83.6756 108.034 83.6581 108.674 83.0972C109.989 81.9405 113.44 79.9775 114.134 79.9775C114.262 79.9775 114.445 80.1703 114.554 80.4156C114.664 80.661 114.847 80.8538 114.938 80.8538C115.267 80.8538 115.34 80.5208 115.102 80.1703C114.81 79.7146 114.901 79.6444 116.271 79.2589C117.732 78.8557 117.878 78.8908 118.299 79.5919ZM130.133 80.661C130.9 80.9765 131.357 81.4672 131.138 81.6951C131.083 81.7301 130.59 81.5899 130.042 81.3621C129.202 81.0466 129.019 80.8889 129.019 80.5558C129.019 80.328 129.074 80.1703 129.165 80.2053C129.238 80.2579 129.677 80.4507 130.133 80.661ZM126.134 80.9414C128.435 81.3796 129.585 81.7301 131.211 82.5189C136.343 84.9726 140.16 89.5471 141.658 94.9629C142.187 96.9435 142.315 100.572 141.914 102.64C140.489 109.861 135.192 115.592 128.106 117.555C119.248 120.026 109.861 116.328 105.331 108.581C102.19 103.201 102.099 96.3826 105.094 90.774C109.002 83.4478 117.805 79.3465 126.134 80.9414ZM133.275 82.5189C133.64 82.7642 133.951 83.0447 133.951 83.1323C133.951 83.3251 132.8 82.6941 132.489 82.3261C132.142 81.9405 132.508 82.0281 133.275 82.5189ZM102.391 97.5043C102.354 98.0301 102.245 98.5384 102.153 98.6261C101.806 98.9941 101.441 96.9435 101.733 96.2249C101.825 95.997 101.879 95.997 102.135 96.2424C102.373 96.4703 102.427 96.7857 102.391 97.5043ZM102.318 100.607C102.336 101.395 102.299 101.711 102.19 101.536C101.952 101.203 101.752 99.6777 101.898 99.4323C102.135 99.0642 102.281 99.4323 102.318 100.607Z" fill="#FFE400"/>
<path d="M120.801 83.8508C115.084 84.4291 110.135 87.8819 107.669 92.9823C106.591 95.2257 106.281 96.6454 106.281 99.5198C106.281 102.166 106.591 103.726 107.578 105.865C108.856 108.634 111.523 111.508 114.171 112.98C118.006 115.084 121.878 115.662 126.408 114.786C126.645 114.733 127.339 114.523 127.96 114.295C133.457 112.385 137.329 108.108 138.608 102.517C138.991 100.834 138.9 97.1537 138.425 95.4886C136.252 87.952 128.818 83.0445 120.801 83.8508ZM125.494 84.6395C128.581 85.2529 131.193 86.5324 133.275 88.4603C135.266 90.3182 136.106 91.5626 136.854 93.8411C138.9 100.046 136.434 106.899 130.791 110.737C130.462 110.965 129.604 111.438 128.873 111.789C123.924 114.207 117.915 113.857 113.221 110.912C108.874 108.178 106.902 104.69 106.865 99.6074C106.829 95.734 108.034 92.5441 110.646 89.5645C112.765 87.1283 116.673 84.99 119.687 84.6044C120.143 84.5518 120.563 84.4642 120.6 84.4291C120.801 84.2363 124.271 84.3941 125.494 84.6395ZM138.078 101.57C138.005 102.079 137.895 102.815 137.841 103.2C137.713 104.077 136.58 106.443 135.649 107.792C133.476 110.947 130.006 113.261 126.097 114.172C125.02 114.418 124.161 114.488 122.079 114.435C119.76 114.4 119.248 114.33 117.915 113.909C116.235 113.366 115.705 112.998 117.184 113.384C118.956 113.857 119.23 113.892 121.988 113.874C125.166 113.874 126.207 113.664 128.764 112.49C132.416 110.842 135.192 108.108 136.836 104.515C137.238 103.674 137.969 101.378 137.969 101.027C137.969 100.817 138.023 100.659 138.078 100.659C138.151 100.659 138.151 101.08 138.078 101.57Z" fill="#FFE400"/>
<path d="M121.184 92.6318C119.34 98.6085 119.54 98.0827 119.011 97.9775C118.737 97.925 118.335 97.8373 118.134 97.7672C117.805 97.6796 117.714 97.7497 117.531 98.2229C117.184 99.1869 117.257 99.3972 118.061 99.6251C118.883 99.8704 118.938 100.028 118.499 101.255C118.171 102.149 118.299 102.114 116.892 101.781C116.49 101.693 116.417 101.763 116.253 102.359C115.961 103.376 115.979 103.446 116.874 103.656C117.331 103.761 117.696 103.867 117.696 103.884C117.696 103.884 117.458 104.673 117.166 105.602L116.637 107.319L117.769 107.652C118.372 107.828 118.938 107.95 118.993 107.915C119.066 107.88 119.175 107.635 119.23 107.372C119.303 107.092 119.522 106.355 119.723 105.724L120.07 104.55L122.463 105.234C123.796 105.619 124.928 105.917 125.001 105.917C125.093 105.917 125.275 105.567 125.44 105.129C125.641 104.515 125.659 104.305 125.494 104.235C125.367 104.2 124.307 103.884 123.12 103.551C121.933 103.218 120.892 102.903 120.819 102.85C120.545 102.692 121.202 100.659 121.531 100.659C121.677 100.659 122.463 100.869 123.266 101.115C125.969 101.956 128.49 101.869 129.969 100.905C131.795 99.6952 132.69 96.7507 131.795 94.8402C131.028 93.1752 129.494 92.2988 125.367 91.107C123.814 90.6688 122.408 90.2657 122.243 90.2306C122.006 90.1605 121.805 90.6162 121.184 92.6318ZM125.732 93.1576C127.266 93.5608 128.618 94.1917 129.22 94.8052C129.713 95.3134 129.896 96.8032 129.585 97.7322C128.873 99.8003 127.102 100.291 123.686 99.3446C122.755 99.0817 121.97 98.8539 121.933 98.8188C121.896 98.7838 122.298 97.3816 122.828 95.6815C123.613 93.1576 123.851 92.5968 124.07 92.6844C124.234 92.7545 124.983 92.9648 125.732 93.1576Z" fill="#FFE400"/>
<path d="M96.9665 0.160004C94.9757 0.405381 94.647 0.493015 92.7293 1.12398C90.8481 1.73742 90.0445 2.14054 88.1085 3.38495C85.3142 5.19022 82.8121 7.95946 81.351 10.8339C79.5063 14.4444 78.8306 18.4405 79.4333 22.1212C80.1821 26.6431 82.0998 30.3062 85.2594 33.2332C86.9214 34.7756 89.8984 36.984 91.3047 37.7376C91.9074 38.0531 92.4918 38.3686 92.5832 38.4387C92.6927 38.5088 93.4598 38.8068 94.3182 39.1223C99.9982 41.1028 106.464 40.5595 111.541 37.6675C113.696 36.4231 116.344 34.0745 117.805 32.0589C120.308 28.6237 121.294 25.7843 121.476 21.6129C121.568 19.422 121.531 18.8086 121.166 17.1611C120.143 12.2886 117.915 8.88839 113.477 5.36549C112.235 4.38398 110.883 3.36742 110.482 3.10452C109.057 2.1756 106.573 1.05388 105.532 0.861079C105.331 0.808499 104.966 0.703338 104.71 0.615703C104.254 0.440434 103.907 0.370327 102.172 0.142477C100.656 -0.0503183 98.6285 -0.0503183 96.9665 0.160004ZM100.126 0.861079C100.345 1.00129 100.528 1.19409 100.528 1.2642C100.528 1.35183 99.8887 1.47452 99.1216 1.54463C97.2952 1.70237 95.4506 2.15807 93.4233 2.94678L91.7978 3.57775L91.323 3.12205C91.0673 2.87667 90.8481 2.61377 90.8481 2.52613C90.8481 2.38592 92.4736 1.7199 93.2772 1.5271C93.5694 1.45699 93.8799 1.50957 94.0443 1.63226C94.3182 1.84258 94.7565 1.7199 94.5922 1.45699C94.4278 1.21162 95.1036 0.948714 96.2176 0.826026C97.076 0.720864 97.3135 0.755918 97.624 1.03635C97.9344 1.29925 98.0258 1.31678 98.1536 1.10646C98.2449 0.966241 98.2632 0.790972 98.2267 0.720864C98.0623 0.457961 99.706 0.580649 100.126 0.861079ZM103.231 0.966241C103.925 1.29925 103.688 1.45699 102.446 1.45699C101.788 1.45699 101.258 1.38689 101.258 1.29925C101.258 1.21162 101.204 1.00129 101.149 0.843553C101.039 0.580649 101.131 0.563122 101.916 0.668284C102.409 0.720864 102.993 0.861079 103.231 0.966241ZM105.824 1.54463C106.135 1.70237 106.427 1.80753 106.5 1.79C106.573 1.79 106.665 1.86011 106.701 1.94775C106.774 2.19312 105.258 1.82506 104.911 1.5271C104.692 1.31678 104.692 1.28172 104.966 1.28172C105.149 1.28172 105.532 1.40441 105.824 1.54463ZM103.633 2.15807C105.569 2.40344 105.934 2.47355 107.468 2.96431C108.893 3.43753 111.194 4.47161 111.687 4.89226C111.833 5.03247 112.052 5.13764 112.144 5.13764C112.472 5.13764 115.395 7.67903 116.417 8.83581C121.367 14.532 122.353 22.7171 118.883 29.3247C115.924 34.9684 109.897 39.0171 103.56 39.613C101.368 39.8233 98.2449 39.6481 96.6925 39.2274C96.6377 39.2099 96.3638 39.1398 96.0533 39.0697C94.026 38.5789 91.5056 37.3871 89.6427 36.0551C86.1178 33.5312 83.6522 30.1134 82.3372 25.907C81.8623 24.4347 81.8258 24.1017 81.8258 20.9995C81.8076 17.8446 81.8441 17.5817 82.3189 15.9167C83.9261 10.5184 87.8163 6.08409 92.9667 3.8056C96.382 2.28076 100.163 1.70237 103.633 2.15807ZM90.775 3.40248C91.2682 3.91076 91.2864 3.96334 90.9577 4.15613C88.2729 5.73355 85.789 8.01204 84.2366 10.3256C82.045 13.6031 80.7848 18.1426 81.0405 21.9109C81.077 22.7171 81.077 23.3656 81.0039 23.3656C80.2551 23.3305 79.5976 21.4376 80.3099 21.3325C80.8944 21.2624 80.9126 21.0696 80.4012 20.6665C79.9264 20.3159 79.8899 20.1932 79.8899 18.9839C79.8899 16.7229 80.5291 13.9887 81.6249 11.5525C81.8989 10.9215 81.9354 10.904 82.2459 11.1669C82.6294 11.4999 82.9216 11.5174 83.1043 11.2545C83.1591 11.1494 82.9947 10.8865 82.7207 10.6761L82.2094 10.2905L83.1591 8.94097C84.1453 7.52129 86.0995 5.41807 86.7022 5.12011C86.9762 4.96237 87.1406 5.01495 87.4876 5.33043C87.8894 5.68097 87.9259 5.6985 88.0355 5.40054C88.1268 5.20774 88.0537 5.03247 87.8711 4.92731C87.5424 4.75204 87.451 4.26129 87.725 4.26129C87.8163 4.26129 88.0172 4.15613 88.1451 4.03344C88.4008 3.78807 89.9714 2.85914 90.1358 2.85914C90.1906 2.85914 90.4646 3.10452 90.775 3.40248ZM81.0039 24.1192C81.2596 24.2945 81.7162 25.6266 81.7162 26.1524C81.7162 26.6081 81.2962 26.2926 80.9857 25.5915C80.3099 24.1192 80.3099 23.611 81.0039 24.1192ZM82.4285 28.0277C82.6477 28.5886 82.7938 29.0618 82.739 29.0969C82.7025 29.1319 82.4285 28.7288 82.118 28.203C81.6249 27.3091 81.5701 27.0462 81.8989 27.0462C81.9719 27.0462 82.2094 27.4844 82.4285 28.0277Z" fill="#FFE400"/>
<path d="M98.8842 5.33049C97.4596 5.57586 97.1856 5.64597 95.7976 6.10167C93.6242 6.80274 91.1038 8.39769 89.314 10.1854C85.6247 13.8836 84.1088 19.5623 85.4421 24.6802C86.6292 29.2021 89.6975 32.8302 94.1904 35.021C95.067 35.4417 95.8159 35.8097 95.8707 35.8097C95.9254 35.8097 95.9802 35.8097 96.0168 35.8273C98.6285 36.5984 102.336 36.7912 104.674 36.283C107.833 35.6169 110.792 34.0395 112.947 31.8837C114.573 30.2712 115.212 29.4124 116.07 27.6773C121.166 17.4591 113.568 5.50575 101.806 5.22532C100.656 5.2078 99.3408 5.24285 98.8842 5.33049ZM105.678 6.36457C111.632 8.06468 115.23 12.4289 115.888 18.686C116.107 20.8768 115.869 22.8749 115.102 24.9781C113.349 29.8856 108.838 33.6715 103.322 34.8633C102.208 35.0911 98.4093 35.0911 97.2039 34.8282C91.5239 33.6715 87.8894 30.429 86.1726 25.0307C85.7343 23.6286 85.6795 23.1729 85.6795 20.9119C85.6612 18.7911 85.7343 18.1426 86.0813 16.9683C87.9259 10.8164 93.3137 6.43468 99.7426 5.87382C101.66 5.71608 104.035 5.90887 105.678 6.36457ZM117.02 20.9119C117.038 27.1339 112.984 32.7776 106.957 34.9159C104.327 35.8273 104.089 35.8798 102.099 35.9324C100.144 35.9675 99.5417 35.8273 101.185 35.7046C101.989 35.6345 103.633 35.3891 104.455 35.2138C104.656 35.1788 105.313 34.9684 105.916 34.7406C110.829 32.9879 114.427 29.2372 115.979 24.2946C116.417 22.9275 116.472 22.4542 116.49 19.9654C116.509 17.2488 116.509 17.2137 116.764 18.1251C116.892 18.6509 117.002 19.8953 117.02 20.9119Z" fill="#FFE400"/>
<path d="M100.254 12.1309L97.697 12.236L97.7518 14.4269C97.7701 15.6362 97.8431 17.4941 97.8979 18.5808L98.0075 20.5438L97.1126 20.5963L96.2359 20.6489V22.4016H97.0578C97.8431 22.4016 97.8797 22.4191 98.0075 23.0151C98.0806 23.3481 98.1354 23.8914 98.1354 24.1894C98.1536 24.7677 98.1536 24.7677 97.2404 24.7677H96.3272V26.6256L97.2222 26.573L98.1171 26.5029L98.3728 30.2361L99.1399 30.131C99.5417 30.0784 100.071 30.0433 100.309 30.0433C100.692 30.0258 100.711 29.9732 100.711 28.2731C100.711 26.9937 100.765 26.5204 100.948 26.5029C101.825 26.4153 102.464 26.3802 103.907 26.3627C105.971 26.3276 106.117 26.2575 105.897 25.276L105.733 24.5224L103.724 24.575C102.628 24.61 101.478 24.6451 101.167 24.6451L100.619 24.6801L100.51 22.314H101.204C105.971 22.2789 108.473 21.2098 109.495 18.8086C109.806 18.055 109.806 16.162 109.477 15.2156C109.002 13.831 107.596 12.6391 106.007 12.2711C105.185 12.0783 102.866 12.0257 100.254 12.1309ZM105.605 14.2516C106.044 14.4444 106.555 14.7774 106.738 14.9877C107.249 15.5837 107.523 17.0559 107.304 17.8972C106.792 19.6674 105.514 20.2984 102.08 20.4211L100.437 20.4737L100.327 17.3188C100.236 15.0579 100.272 14.1289 100.418 14.0413C100.528 13.9712 101.569 13.9011 102.72 13.9011C104.418 13.9011 104.966 13.9712 105.605 14.2516Z" fill="#FFE400"/>
<path d="M272.463 435.493C272.39 435.65 272.371 435.808 272.408 435.843C272.536 435.948 277.558 436.299 277.65 436.211C277.686 436.176 277.686 436.036 277.631 435.896C277.558 435.721 277.084 435.615 276.189 435.528C275.458 435.475 274.344 435.37 273.723 435.317C272.755 435.23 272.554 435.247 272.463 435.493Z" fill="#14A76C"/>
<path d="M252.117 490.176C252.117 490.299 252.555 490.737 253.085 491.123C253.615 491.509 254.455 492.14 254.93 492.543C255.825 493.279 256.318 493.454 256.318 493.016C256.318 492.718 252.774 489.931 252.391 489.931C252.245 489.931 252.117 490.036 252.117 490.176Z" fill="#14A76C"/>
<path d="M146.735 435.58C146.169 435.65 145.913 435.773 145.913 435.948C145.913 436.229 146.205 436.246 148.196 436.124C149.438 436.054 149.657 435.983 149.657 435.668C149.657 435.405 148.397 435.37 146.735 435.58Z" fill="#14A76C"/>
<path d="M151.849 394.059C151.849 394.147 152.159 394.41 152.543 394.637C152.908 394.865 154.041 395.549 155.045 396.162C157.292 397.512 159.849 399.282 162.606 401.403C163.739 402.279 164.743 402.998 164.835 402.998C165.236 402.998 165.145 402.595 164.67 402.157C162.917 400.579 157.365 396.706 154.497 395.023C152.653 393.954 151.849 393.656 151.849 394.059Z" fill="#14A76C"/>
<path d="M262.29 377.566C261.212 378.6 260.336 379.547 260.336 379.652C260.336 380.265 260.938 379.88 262.819 378.092C263.97 376.988 264.901 375.989 264.901 375.866C264.901 375.288 264.061 375.831 262.29 377.566Z" fill="#14A76C"/>
<path d="M213.635 367.979C213.526 368.119 213.489 368.943 213.562 370.135C213.654 371.677 213.727 372.063 213.946 372.063C214.183 372.063 214.22 371.73 214.201 370.082C214.183 368.137 214.019 367.506 213.635 367.979Z" fill="#14A76C"/>
<path d="M177.126 356.622C176.998 356.955 180.414 366.647 180.815 367.05C181.016 367.278 181.071 367.26 181.181 366.998C181.308 366.665 177.893 356.972 177.491 356.569C177.29 356.341 177.236 356.359 177.126 356.622Z" fill="#14A76C"/>
<path d="M10.2319 497.731C9.17265 498.081 8.66126 498.502 7.82113 499.694C5.5199 502.936 5.99476 509.035 8.73432 511.454C10.4511 512.961 12.4966 512.839 14.0308 511.104C15.4006 509.579 16.0216 507.651 16.0216 505.004C16.0033 500.184 13.2455 496.714 10.2319 497.731Z" fill="#FF652F"/>
<path d="M25.8109 499.028C22.5965 500.71 21.4459 506.774 23.5827 510.858C25.2995 514.153 28.6783 514.521 30.6508 511.612C31.7466 510.017 32.0936 508.738 32.1119 506.231C32.1302 504.373 32.0571 503.847 31.6918 502.743C30.8334 500.219 29.3906 498.852 27.5277 498.747C26.7424 498.712 26.304 498.782 25.8109 499.028Z" fill="#FF652F"/>
<path fill-rule="evenodd" clip-rule="evenodd" d="M64.8893 598.19C64.1661 598.56 63.5559 598.89 63.42 598.999L63.3617 599.031L62.967 599.152H55.0962L54.3511 598.926C54.2964 598.839 54.132 598.751 54.0041 598.751C53.5841 598.751 51.0637 597.156 50.187 596.332C49.0729 595.298 47.6484 593.265 47.1735 592.038C46.9726 591.53 46.169 588.393 45.4019 585.062C44.6348 581.75 43.9408 578.911 43.8678 578.77C43.7947 578.63 42.8267 577.999 41.7309 577.368C39.6671 576.194 36.1239 573.828 33.8958 572.128C29.4577 568.762 23.9238 563.452 20.3623 559.14C19.7779 558.422 19.23 557.791 19.1752 557.738C19.1204 557.685 18.8282 557.3 18.5542 556.862C18.335 556.511 17.7886 555.712 17.2421 554.913L17.0146 554.58L16.8374 554.32C14.9928 551.621 13.2577 548.484 11.4861 544.593C10.4999 542.437 8.85616 538.09 8.58221 536.881C8.53317 536.658 8.39363 536.047 8.22986 535.331L8.22944 535.329L8.22791 535.322C8.14823 534.974 8.0629 534.6 7.9795 534.235C7.35854 531.518 6.75583 526.715 6.60972 523.385L6.50014 520.651L5.25821 519.267C3.35878 517.146 1.55067 514.061 0.874908 511.8C-0.787092 506.297 -0.0382788 499.829 2.75607 495.412C4.4546 492.748 5.42258 491.644 7.70555 489.821C10.5182 487.56 14.0065 485.93 17.6593 485.177C18.5725 484.984 18.609 484.949 20.5998 482.495C21.7138 481.128 23.9055 478.692 25.4762 477.062L28.3436 474.135L27.887 471.979C27.0469 468.018 26.9555 467.142 26.9738 463.619C27.0103 459.64 27.3025 458.15 28.5445 455.854C29.8047 453.523 32.1059 452.156 35.5395 451.7C40.8725 450.982 47.6301 452.997 53.0727 456.923L54.6799 458.08L56.0679 457.589C59.3371 456.433 64.1588 454.855 65.5651 454.487C67.0079 454.102 67.0992 454.049 67.8663 453.12C69.6744 450.877 71.8661 449.212 73.8934 448.546C76.5416 447.669 80.7605 448.546 83.7192 450.579L84.6324 451.21L88.34 451.087C89.9787 451.031 91.3831 450.952 91.8768 450.896L92.8876 451.5L90.97 451.595C89.8193 451.665 88.3217 451.718 87.6642 451.735C86.9885 451.735 86.3492 451.788 86.2579 451.858C86.1483 451.911 86.8241 452.612 87.7373 453.383L89.4175 454.803L94.0748 454.908C104.102 455.153 112.412 456.38 120.904 458.886C123.735 459.728 125.47 460.674 129.269 463.461C130.657 464.478 134.876 468.333 134.748 468.474C134.712 468.491 133.817 468.141 132.776 467.667C126.639 464.898 118.968 462.462 112.028 461.077C107.535 460.183 101.563 459.517 96.1386 459.307L92.9972 459.184L94.1661 461.077C97.2162 466.002 99.353 471.944 100.668 479.13C101.125 481.671 101.125 482.197 100.65 482.197C100.376 482.197 100.284 482.075 100.284 481.689C100.284 480.795 99.5722 477.114 98.9147 474.52C95.5724 461.656 88.6139 452.594 79.4821 449.299C78.1671 448.826 75.9389 448.633 74.8248 448.914C72.6332 449.439 70.3137 451.122 68.4508 453.541C67.0079 455.434 65.072 459.219 64.1222 462.059C63.6839 463.356 63.2638 464.478 63.1908 464.565C63.1177 464.653 62.9351 464.67 62.7707 464.618C62.5333 464.53 62.5698 464.302 62.9716 463.058C63.6291 460.99 64.7067 458.343 65.6564 456.555C66.0947 455.714 66.3687 455.031 66.2591 455.031C65.8025 455.031 61.0174 456.485 58.3692 457.432C45.9681 461.848 35.2838 468.404 26.4624 477.044C24.0881 479.375 19.7414 484.335 19.7414 484.704C19.7414 484.756 21.9878 484.791 24.7274 484.791C29.1837 484.774 30.8092 484.879 32.3799 485.264L32.8547 485.387L32.4164 484.3C32.1607 483.705 31.905 482.67 31.8502 481.987C31.7406 480.848 31.7589 480.76 32.0876 480.83C32.3616 480.865 32.4529 481.093 32.5442 481.794C32.9643 484.984 34.5533 486.632 36.1605 485.527C36.7266 485.142 37.5485 483.529 37.7311 482.408C37.8225 481.847 37.932 481.671 38.206 481.671C38.6261 481.671 38.6261 481.794 38.2791 483.214C37.9503 484.563 37.6764 485.089 36.891 485.86C36.5623 486.193 36.3796 486.491 36.4709 486.526C36.5805 486.561 37.3111 486.947 38.0964 487.368C46.9361 492.205 51.1002 501.74 48.4885 511.134C47.6484 514.184 45.5298 517.777 43.192 520.125C42.6076 520.721 42.4067 521.142 41.804 523.175C40.6533 527.031 39.5027 529.274 37.7311 531.08C34.3706 534.515 30.17 533.183 27.4852 527.837L26.8642 526.593L25.8962 526.488C25.3849 526.435 23.9238 526.435 22.6636 526.488C17.3305 526.715 12.3628 525.191 8.27172 522.106L7.13937 521.247V522.719C7.13937 525.313 7.50465 528.486 8.25346 532.324C8.71005 534.673 9.00227 535.742 9.8972 538.546C15.5407 555.915 29.3298 570.813 48.5067 580.26C53.8763 582.907 59.4833 585.01 65.5468 586.64C66.6792 586.955 67.6654 587.183 67.7385 587.148C67.8298 587.113 67.7385 586.447 67.5376 585.658L67.2088 584.221L65.072 583.59C57.6569 581.399 50.2601 578.227 44.2148 574.599C41.3291 572.864 36.5805 569.621 35.4116 568.57C35.2838 568.447 34.5898 567.869 33.8958 567.29C30.517 564.538 25.8414 559.754 23.3393 556.476C22.2252 555.039 22.1522 554.846 22.5722 554.706C22.7549 554.636 23.248 555.144 24.1612 556.301C27.8505 561.016 33.0921 566.011 38.48 569.954C44.0321 574.021 51.3376 577.912 58.3874 580.576C61.2914 581.68 66.6792 583.38 66.8253 583.24C66.8801 583.187 66.4965 581.312 65.9486 579.068L65.7442 578.209C64.6336 573.539 64.5104 573.021 64.6939 572.886C64.7049 572.878 64.7169 572.871 64.73 572.865L64.7355 572.862L64.7446 572.858L64.7557 572.853L64.7755 572.845C64.7842 572.842 64.7931 572.838 64.8023 572.835L64.8195 572.827C64.8254 572.825 64.8313 572.822 64.8374 572.819C64.8425 572.817 64.8476 572.814 64.8528 572.811C64.8575 572.809 64.8621 572.806 64.8667 572.804C64.8702 572.802 64.8737 572.8 64.8772 572.799L64.8816 572.796L64.8969 572.788L64.9129 572.78L64.9246 572.775C64.9289 572.773 64.9331 572.771 64.9373 572.769C64.9578 572.761 64.9774 572.755 64.9969 572.755C65.2625 572.76 65.5105 573.815 67.5613 582.544L67.6837 583.064C68.5421 586.728 69.3274 590.04 69.437 590.426C69.9666 592.459 71.3364 594.65 72.9436 596.052C74.2221 597.156 76.779 598.435 78.3314 598.733C79.7012 599.014 82.4591 598.961 83.8106 598.663C87.7373 597.769 91.2256 594.58 92.3215 590.864C92.4676 590.338 93.2712 586.903 94.0748 583.24C94.576 580.955 95.1199 578.513 95.5292 576.676C95.776 575.568 95.9739 574.679 96.0838 574.178C96.3943 572.864 96.6317 571.742 96.6317 571.689C96.6317 571.637 96.7961 571.584 96.997 571.584C97.1979 571.584 97.3623 571.654 97.3623 571.742C97.3623 571.83 96.6317 575.195 95.7368 579.226C94.8236 583.257 94.1296 586.587 94.1661 586.64C94.2026 586.692 95.5176 586.692 97.1248 586.622C106.896 586.219 116.265 584.449 125.269 581.277C127.096 580.628 127.497 580.418 127.497 580.137C127.497 579.945 127.132 578.262 126.676 576.369C126.219 574.494 125.854 572.934 125.854 572.899C125.854 572.881 126.018 572.811 126.219 572.759C126.42 572.706 126.584 572.706 126.584 572.741C126.584 572.776 127.077 574.844 127.68 577.316C128.014 578.737 128.425 580.485 128.795 582.056L128.814 582.136L128.833 582.219C129.096 583.334 129.335 584.349 129.506 585.08C131.041 591.705 131.424 592.739 133.068 594.772C134.529 596.543 137.415 598.278 139.698 598.733C141.086 599.014 144.044 598.979 145.305 598.663C148.665 597.822 151.533 595.561 153.085 592.529C153.688 591.337 154.016 590.163 155.331 584.554C156.13 581.124 157.208 576.571 157.784 574.14L157.787 574.126L157.87 573.775C158.407 571.581 159.305 567.764 159.942 565.059L159.943 565.051L159.946 565.041L159.946 565.039L159.947 565.035L159.949 565.026L160.043 564.626C161.121 559.999 161.212 559.666 161.596 559.666C161.979 559.666 161.979 559.684 161.724 560.665C161.596 561.226 161.486 561.839 161.486 562.032C161.485 562.058 161.483 562.083 161.481 562.106L161.477 562.14C161.47 562.209 161.464 562.262 161.484 562.274C161.55 562.312 161.895 561.902 163.371 560.147L163.372 560.145L163.879 559.543C171.696 550.237 176.389 539.791 178.033 528.012C178.435 525.138 178.472 517.391 178.125 514.534C177.431 509.083 176.408 505.07 174.362 499.759C169.066 485.965 157.432 473.083 142.401 464.407C134.365 459.78 124.794 456.1 115.443 454.067C114.849 453.927 114.163 453.777 113.74 453.686L114.425 453.104C114.984 453.269 116.614 453.683 118.475 454.154C122.877 455.241 125.47 456.047 129.178 457.467C133.141 458.992 134.456 459.57 138.547 461.638C142.583 463.671 145.542 465.424 149.377 468.053L151.441 469.473L153.121 469.42C153.891 469.402 154.349 469.369 154.765 469.269L156.632 469.537C156.765 469.578 156.947 469.615 157.176 469.648C158.875 469.893 161.705 471.015 163.331 472.084L164.007 472.54L164.755 472.908L166.582 474.591C167.586 475.519 168.847 476.852 169.394 477.535C170.582 479.06 172.097 481.566 172.645 482.933C172.883 483.494 173.157 483.95 173.157 483.95L173.522 484.896C173.522 485.054 173.686 485.755 173.887 486.456C174.07 487.14 174.417 489.138 174.636 490.873C174.803 492.183 174.927 493.077 175.029 493.631V495.31L174.636 498.119L174.947 499.111L175.878 501.792C177.23 505.631 178.051 509.083 178.746 513.833C178.983 515.428 179.074 517.251 179.074 521.335L178.844 526.797L178.793 527.621C178.766 527.664 178.428 528.807 178.407 528.896C178.334 529.299 178.271 530.642 178.271 530.817L178.033 532.4L177.095 536.178L175.783 540.376L174.471 543.735L172.285 548.353L170.143 552.007L169.358 553.304C167.732 555.985 164.262 560.455 162.089 562.646L160.957 563.785L159.66 569.131C159.427 570.12 159.136 571.351 158.823 572.673L158.816 572.704C158.2 575.31 157.501 578.268 156.993 580.435C154.4 591.582 154.363 591.723 153.578 593.177C152.373 595.421 149.98 597.577 147.496 598.681L145.305 599.066H139.698L137.999 599.014L137.287 598.716C136.903 598.541 136.027 598.05 135.351 597.612C134.675 597.174 133.634 596.332 133.05 595.719L131.972 594.632L130.493 596.034C129.452 597.033 128.575 597.664 127.479 598.225L125.945 599.014L125.06 599.152H118.063L117.087 599.031C117.087 598.996 116.375 598.576 115.498 598.12C113.197 596.893 111.535 595.263 110.457 593.195C110.001 592.319 109.526 591.144 109.398 590.618C109.215 589.795 109.106 589.637 108.777 589.637C108.558 589.637 108.339 589.672 108.302 589.707C108.01 589.988 99.2982 590.724 94.1844 590.916L93.1251 590.951L92.7598 591.81C92.2667 593.037 91.1161 594.842 90.2211 595.824C89.3993 596.718 87.1711 598.243 86.1301 598.593C85.7831 598.716 84.8306 599.082 84.8306 599.152H76.9597L76.5416 598.961C76.5416 598.891 75.8476 598.506 74.9892 598.085C73.1811 597.191 71.9209 596.157 70.7702 594.615C70.3137 594.001 69.9119 593.493 69.8936 593.493C69.8793 593.493 69.7762 593.674 69.6362 593.92C69.5967 593.99 69.5543 594.064 69.5101 594.141C68.8343 595.351 66.5331 597.384 64.8893 598.19ZM48.0684 454.785C45.7124 453.646 43.3929 452.857 41.2195 452.489C39.5027 452.209 36.3248 452.174 34.7724 452.419C31.284 452.98 29.1654 455.013 28.1244 458.799C27.6313 460.604 27.4669 464.285 27.7591 466.966C27.96 468.772 28.8002 473.434 28.9645 473.592C29.0011 473.627 29.2933 473.416 29.6038 473.136L30.17 472.628L29.8595 470.962C29.3663 468.526 29.3846 463.198 29.8595 461.866C30.5352 459.991 31.7224 458.711 33.1104 458.343C33.5487 458.238 34.535 458.185 35.3569 458.22C37.6033 458.343 39.4297 459.272 42.4615 461.796L43.9043 463.005L48.6711 460.727C51.3011 459.465 53.4745 458.361 53.511 458.273C53.6206 458.01 50.2601 455.872 48.0684 454.785ZM173.887 489.033C172.006 480.164 166.18 473.136 158.728 470.77C157.286 470.314 156.628 470.209 154.765 470.139C153.523 470.104 152.519 470.139 152.537 470.209C152.537 470.296 153.213 470.892 154.035 471.541C157.541 474.275 162.253 478.99 165.194 482.67C166.728 484.581 169.522 488.577 170.509 490.26C171.367 491.697 173.321 495.412 173.997 496.85L174.307 497.533L174.454 496.306C174.636 494.782 174.38 491.311 173.887 489.033ZM41.9866 491.048C38.9365 488.226 34.8089 486.263 30.8822 485.72C27.5034 485.264 27.2112 485.352 29.3846 486.123C35.1742 488.174 39.9228 492.748 42.0414 498.339C45.0732 506.297 42.918 515.06 36.5257 520.844C34.188 522.93 31.6676 524.419 28.7271 525.401C27.3025 525.874 27.6678 525.944 30.1152 525.664C32.252 525.401 34.535 524.735 36.6353 523.753C38.9548 522.667 40.3976 521.685 42.2605 519.95C50.6984 511.993 50.5888 498.918 41.9866 491.048ZM42.5528 503.808C41.8222 495.115 34.9003 487.631 25.9328 485.878C23.5767 485.422 19.5952 485.405 17.3671 485.878C13.0386 486.754 9.98852 488.367 6.7741 491.486C4.71029 493.485 3.35878 495.342 2.29948 497.744C-0.0748061 503.019 0.0895676 509.224 2.70128 514.359C3.57794 516.077 3.94322 516.62 5.33126 518.303C10.3173 524.367 18.883 527.119 26.7729 525.208C29.7134 524.49 33.1652 522.754 35.3934 520.879C40.6168 516.462 43.1189 510.503 42.5528 503.808ZM128.356 583.958C128.411 583.923 128.301 583.275 128.137 582.556C127.826 581.259 127.68 581.084 127.132 581.382C126.548 581.715 119.626 583.871 117.27 584.449C110.877 586.061 104.376 587.008 97.3075 587.341C95.5176 587.429 94.0017 587.551 93.9469 587.604C93.8374 587.691 93.3625 589.742 93.3442 590.128C93.3442 590.25 93.4173 590.321 93.4903 590.268C93.5817 590.215 94.7505 590.163 96.1021 590.145C103.682 590.04 112.503 588.708 120.539 586.482C123.023 585.799 128.173 584.134 128.356 583.958ZM46.3507 585.718L44.6016 579.068L48.9744 581.099L52.4725 582.779L56.408 584.458L61.2179 586.137L65.5468 587.397L67.6837 587.817L67.777 588.236L68.6516 590.426L69.5101 592.855L68.2143 594.954L65.072 597.473L62.7719 598.593L59.4689 598.663L55.0962 598.312L53.3471 597.473L51.1607 596.052L49.6209 594.615L48.5067 592.855L47.6625 591.175L46.3507 585.718ZM128.558 584.878L128.995 586.482L129.87 589.076L131.619 594.114L128.995 596.633L127.479 597.612L126.371 598.225L125.06 598.663L121.999 598.732H118.063L117.189 598.312L115.877 597.612L114.128 596.633L112.816 595.793L111.941 594.632L111.067 593.195L110.457 592.015L109.755 590.336V589.637L111.067 589.076L118.938 587.397L121.999 586.557L125.269 585.474L127.479 584.78L128.356 584.558L128.558 584.878ZM93.9427 455.692H90.0073L91.7563 457.372H93.9427L100.502 457.792L107.498 458.631L113.183 459.184L120.616 460.73L124.552 462.41L128.05 464.509L130.673 466.188L132.776 467.123L129.178 464.368L126.738 462.829L122.803 460.73L120.616 459.891L113.183 457.792L107.498 456.952L100.502 456.112L93.9427 455.692Z" fill="#FF652F"/>
<path d="M12.6427 536.377C12.3505 536.553 12.3505 536.623 12.6062 537.482C13.4098 540.093 16.2955 546.858 16.7886 547.244C16.953 547.367 17.0808 547.349 17.2269 547.191C17.3731 546.999 17.2452 546.596 16.679 545.474C15.7111 543.546 14.7431 541.197 13.7751 538.428C13.355 537.201 12.9898 536.202 12.9715 536.202C12.9715 536.202 12.8071 536.29 12.6427 536.377Z" fill="#FF652F"/>
<path d="M165.2 491.316C165.017 491.438 165.108 491.719 165.693 492.665C168.706 497.643 171.245 504.11 172.469 509.824C173.254 513.628 173.437 515.222 173.528 519.814C173.638 525.02 173.382 527.965 172.487 532.171C171.282 537.937 169.017 543.844 166.113 548.822C165.309 550.224 165.09 550.714 165.236 550.907C165.547 551.258 166.022 550.574 167.611 547.612C172.195 539.077 174.35 530.611 174.35 521.129C174.368 510.981 171.83 501.797 166.497 492.595C166.04 491.807 165.62 491.158 165.565 491.158C165.51 491.158 165.346 491.228 165.2 491.316Z" fill="#FF652F"/>
<path d="M52.5491 483.919C52.9143 487.67 54.7407 490.457 56.8045 490.457C58.9414 490.457 60.3842 488.844 61.1513 485.602C61.5166 484.025 61.5166 483.972 61.0965 483.972C60.8043 483.972 60.6947 484.165 60.5303 484.971C60.1833 486.741 59.5806 488.021 58.6857 488.915C57.9369 489.668 57.7725 489.756 57.0419 489.756C55.179 489.756 53.6631 487.407 53.2979 483.972C53.1883 482.903 53.1335 482.745 52.8047 482.745C52.4577 482.745 52.4577 482.815 52.5491 483.919Z" fill="#FF652F"/>
<path d="M151.94 475.927C151.867 476.032 153.054 477.329 154.625 478.854C156.178 480.361 158.205 482.5 159.136 483.569C160.725 485.409 161.182 485.777 161.419 485.409C161.711 484.953 152.963 475.734 152.233 475.734C152.141 475.734 151.995 475.822 151.94 475.927Z" fill="#FF652F"/>
<path d="M71.7077 453.826C70.3562 454.492 69.096 455.631 68.0367 457.191C66.5573 459.329 64.9684 462.957 64.0917 466.2L63.6351 467.917L64.1282 468.426C64.4205 468.706 65.3154 469.249 66.1555 469.635C74.4473 473.438 81.7528 479.871 85.1681 486.373C85.4786 486.987 85.789 487.477 85.8621 487.477C85.9169 487.477 85.9169 485.637 85.8621 483.394C85.3142 464.465 81.1318 453.756 74.1368 453.353C72.9862 453.282 72.7487 453.317 71.7077 453.826Z" fill="#FF652F"/>
<path d="M9.57443 599.965H17.5192L25.4639 599.982V599.124H9.57443V599.965Z" fill="#747474"/>
<path d="M272.39 599.649C272.39 600 272.518 600 279.969 600C287.421 600 287.549 600 287.549 599.649C287.549 599.299 287.421 599.299 279.969 599.299C272.518 599.299 272.39 599.299 272.39 599.649Z" fill="#747474"/>
<path fill-rule="evenodd" clip-rule="evenodd" d="M177.969 533.012L178.271 530.817C178.271 530.869 183.458 530.922 189.777 530.922H249.974L250.467 533.586C251.095 536.953 251.548 539.866 251.868 542.816H174.759L175.346 541.408L176.658 537.63L177.969 533.012ZM171.612 549.385L170.143 552.007L170.253 557.37C170.326 560.315 170.472 564.311 170.582 566.239C170.751 569.243 170.896 571.049 171.197 573.315H251.73C252.486 567.562 252.642 563.195 252.549 555.898C252.518 553.338 252.456 551.073 252.349 548.965L171.612 549.385ZM176.097 596.613C174.607 591.96 173.212 585.81 172.035 578.772H250.913C250.807 579.419 250.695 580.089 250.577 580.786C250.157 583.187 249.554 586.395 249.207 587.884C248.549 590.671 246.997 596.315 246.486 597.682C246.471 597.723 246.455 597.764 246.44 597.803C246.407 597.888 246.373 597.968 246.342 598.042C246.225 598.322 246.139 598.529 246.199 598.681C246.371 599.112 247.717 599.11 252.859 599.103L252.889 599.103L253.429 599.103L253.992 599.102C254.364 599.102 254.754 599.102 255.161 599.102C263.982 599.102 264.11 599.102 264.11 599.452C264.11 599.803 263.946 599.803 150.053 599.803L35.9961 599.785V599.014L45.2375 599.066C51.6116 599.102 54.4425 599.066 54.3511 598.926L63.3917 599.031C63.3917 599.066 66.3504 599.102 69.9666 599.102C73.5829 599.102 76.5416 599.049 76.5416 598.961L79.1461 598.924H82.207L85.4908 598.961C85.4908 599.031 92.5954 599.102 101.289 599.102C109.982 599.102 117.087 599.066 117.087 599.031L118.938 599.066H125.06L125.945 599.014L129.013 599.066C130.712 599.084 133.415 599.084 135.04 599.066L137.999 599.014L140.801 599.066H147.36C147.752 599.123 148.779 599.114 150.96 599.096H150.962C153.163 599.077 156.537 599.048 161.617 599.066H161.621L161.724 599.066C169.961 599.084 176.718 599.066 176.773 599.031C176.81 598.979 176.517 597.892 176.097 596.613ZM208.141 557.781C207.513 558.208 207.238 558.491 206.829 559.041C206.532 559.653 206.427 560.018 206.392 560.72C206.432 561.402 206.522 561.771 206.829 562.399C207.22 562.944 207.501 563.222 208.141 563.659C208.84 563.962 209.226 564.072 209.89 564.079C210.632 564.031 211.012 563.934 211.639 563.659C212.25 563.228 212.53 562.948 212.951 562.399C213.169 561.934 213.275 561.664 213.388 561.14V560.3C213.28 559.807 213.181 559.532 212.951 559.041C212.545 558.473 212.26 558.196 211.639 557.781C210.997 557.49 210.612 557.402 209.89 557.361C209.171 557.401 208.789 557.496 208.141 557.781ZM243.123 559.049C243.531 558.499 243.806 558.217 244.435 557.79C245.083 557.505 245.464 557.409 246.184 557.37C246.905 557.411 247.29 557.499 247.933 557.79C248.554 558.204 248.838 558.482 249.245 559.049C249.474 559.54 249.574 559.816 249.682 560.309V561.148C249.568 561.673 249.463 561.943 249.245 562.408C248.824 562.957 248.543 563.236 247.933 563.667C247.306 563.942 246.926 564.04 246.184 564.087C245.52 564.081 245.134 563.97 244.435 563.667C243.795 563.231 243.514 562.953 243.123 562.408C242.815 561.779 242.726 561.41 242.685 560.729C242.721 560.026 242.825 559.662 243.123 559.049ZM226.069 557.781C225.441 558.208 225.166 558.491 224.757 559.041C224.46 559.653 224.355 560.018 224.32 560.72C224.36 561.402 224.45 561.771 224.757 562.399C225.148 562.944 225.43 563.222 226.069 563.659C226.768 563.962 227.154 564.072 227.818 564.079C228.56 564.031 228.94 563.934 229.567 563.659C230.178 563.228 230.458 562.948 230.879 562.399C231.097 561.934 231.203 561.664 231.316 561.14V560.3C231.208 559.807 231.109 559.532 230.879 559.041C230.473 558.473 230.188 558.196 229.567 557.781C228.925 557.49 228.54 557.402 227.818 557.361C227.099 557.401 226.718 557.496 226.069 557.781ZM174.034 559.041C174.442 558.491 174.717 558.208 175.346 557.781C175.994 557.496 176.375 557.401 177.095 557.361C177.817 557.402 178.201 557.49 178.844 557.781C179.465 558.196 179.749 558.473 180.156 559.041C180.385 559.532 180.485 559.807 180.593 560.3V561.14C180.479 561.664 180.374 561.934 180.156 562.399C179.735 562.948 179.454 563.228 178.844 563.659C178.217 563.934 177.837 564.031 177.095 564.079C176.431 564.072 176.045 563.962 175.346 563.659C174.706 563.222 174.425 562.944 174.034 562.399C173.726 561.771 173.637 561.402 173.597 560.72C173.632 560.018 173.737 559.653 174.034 559.041ZM191.087 557.361C190.459 557.788 190.184 558.071 189.776 558.621C189.478 559.234 189.374 559.598 189.338 560.3C189.379 560.982 189.468 561.351 189.776 561.979C190.167 562.524 190.448 562.802 191.087 563.239C191.787 563.542 192.173 563.653 192.837 563.659C193.579 563.611 193.959 563.514 194.586 563.239C195.196 562.808 195.477 562.528 195.897 561.979C196.116 561.514 196.221 561.244 196.335 560.72V559.88C196.227 559.388 196.127 559.112 195.897 558.621C195.491 558.053 195.207 557.776 194.586 557.361C193.943 557.071 193.558 556.982 192.837 556.942C192.117 556.981 191.736 557.077 191.087 557.361Z" fill="#747474"/>
</svg>
